if (_typeface_js && _typeface_js.loadFace) _typeface_js.loadFace({"glyphs":{"S":{"x_min":-0.140625,"x_max":605.359375,"ha":615,"o":"m 599 765 q 603 792 602 781 q 605 806 605 802 q 588 835 605 819 q 543 865 572 851 q 476 890 515 880 q 394 900 437 900 q 291 881 338 900 q 209 829 244 862 q 155 752 174 797 q 136 655 136 708 q 167 523 136 584 q 255 394 199 462 q 295 344 276 368 q 329 296 315 320 q 352 246 344 272 q 361 189 361 219 q 349 125 361 154 q 316 74 337 96 q 267 40 295 53 q 205 28 238 28 q 120 56 154 28 q 76 137 87 84 q 70 180 72 159 q 65 214 69 200 q 56 238 62 229 q 37 247 49 247 q 10 230 17 247 q 2 176 4 212 l 0 78 l 0 73 q 52 -3 0 21 q 217 -29 105 -29 q 342 -6 286 -29 q 441 55 399 16 q 506 145 483 94 q 529 255 529 197 q 519 330 529 295 q 492 397 509 365 q 451 461 474 430 q 401 526 427 492 q 326 628 355 584 q 297 716 297 672 q 333 804 297 769 q 419 840 369 840 q 526 742 509 840 q 530 708 528 724 q 533 680 531 692 q 541 660 535 667 q 559 652 547 652 q 585 689 578 652 l 599 765 "},"¦":{"x_min":287,"x_max":408,"ha":695,"o":"m 408 971 l 287 971 l 287 457 l 408 457 l 408 971 m 408 276 l 287 276 l 287 -238 l 408 -238 l 408 276 "},"/":{"x_min":-43,"x_max":374,"ha":308,"o":"m 307 900 l -43 -129 l 25 -129 l 374 900 l 307 900 "},"y":{"x_min":-158,"x_max":543,"ha":565,"o":"m 302 184 q 295 391 300 305 q 279 533 291 477 q 242 616 266 590 q 176 643 218 643 q 98 614 137 643 q 26 527 59 586 q 0 476 8 497 q -6 444 -6 455 q 5 426 -6 426 q 26 442 18 426 q 43 477 34 458 q 61 513 51 497 q 86 529 71 529 q 111 499 98 529 q 133 412 123 469 q 149 273 143 355 q 155 89 155 192 q 143 -49 155 10 q 111 -148 130 -108 q 70 -207 93 -188 q 25 -227 47 -227 q 0 -215 11 -227 q -24 -188 -12 -203 q -53 -161 -37 -174 q -91 -149 -69 -149 q -138 -169 -119 -149 q -158 -221 -158 -189 q -132 -285 -158 -260 q -62 -310 -106 -310 q 34 -284 -12 -310 q 131 -207 82 -258 q 233 -81 180 -157 q 348 94 286 -5 q 493 358 444 248 q 543 538 543 467 q 525 614 543 587 q 479 641 508 641 q 427 616 447 641 q 408 551 408 591 q 422 484 408 522 q 436 398 436 447 q 404 276 436 351 q 304 99 372 201 l 302 184 "},"Ž":{"x_min":-63.890625,"x_max":720.890625,"ha":664,"o":"m 173 877 q 149 870 156 877 q 137 848 141 863 l 105 723 q 100 688 100 699 q 119 664 100 664 q 147 689 136 664 q 181 749 158 713 q 211 785 195 771 q 248 804 227 798 q 297 812 269 810 q 362 815 325 815 q 425 813 394 815 q 484 809 455 812 l -43 66 q -57 45 -51 55 q -63 22 -63 36 q -41 0 -63 0 q 45 5 -33 0 q 297 11 123 11 q 466 5 405 11 q 543 0 527 0 q 575 5 569 0 q 584 31 581 11 l 600 123 q 611 181 607 159 q 615 210 615 203 q 590 241 615 241 q 572 232 579 241 q 559 209 565 223 q 545 178 552 195 q 525 146 537 162 q 441 86 490 103 q 319 69 391 69 q 264 71 300 69 q 175 75 229 73 l 713 837 q 720 855 720 847 q 715 868 720 862 q 702 875 709 875 l 672 875 q 605 872 652 875 q 480 870 558 870 q 310 874 375 870 q 220 877 245 877 l 173 877 m 327 1212 l 416 974 l 485 974 l 651 1212 l 595 1212 l 461 1089 l 371 1212 l 327 1212 "},"Á":{"x_min":-72.234375,"x_max":635,"ha":682,"o":"m 480 831 q 472 886 475 871 q 444 901 469 901 q 406 889 419 901 q 373 835 394 877 l 25 130 q -4 91 12 103 q -36 70 -22 78 q -61 53 -51 62 q -72 29 -72 45 q -63 8 -72 13 q -36 4 -54 4 q -4 6 -23 4 q 43 8 15 8 q 100 6 77 8 q 137 4 123 4 l 145 4 q 183 32 183 4 q 169 53 183 47 q 139 66 155 59 q 109 82 123 72 q 95 112 95 91 q 99 134 95 118 q 113 175 102 150 l 165 296 l 375 296 l 394 145 q 397 123 397 132 q 397 112 397 115 q 358 65 397 73 q 320 52 334 61 q 306 20 306 43 q 344 -1 306 -1 q 398 3 358 -1 q 508 8 438 8 q 568 5 547 8 q 595 2 588 2 q 630 33 630 2 q 622 53 630 48 q 605 64 615 58 q 586 83 595 70 q 572 127 576 95 l 480 831 m 331 645 l 365 368 l 195 368 q 259 503 226 434 q 331 645 293 572 m 597 1098 q 635 1159 635 1124 q 621 1201 635 1184 q 590 1219 607 1219 q 529 1180 561 1219 l 361 974 l 419 974 l 597 1098 "},"g":{"x_min":-103,"x_max":608.671875,"ha":620,"o":"m 521 601 q 484 601 498 601 q 464 603 471 601 q 384 632 425 617 q 293 647 344 647 q 193 629 238 647 q 114 581 148 612 q 62 508 81 551 q 44 417 44 466 q 140 240 44 311 q 75 174 97 209 q 54 104 54 138 q 80 20 54 61 q -57 -34 -11 4 q -103 -131 -103 -73 q -16 -262 -103 -210 q 238 -315 70 -315 q 363 -299 309 -315 q 454 -254 417 -283 q 510 -187 491 -226 q 529 -103 529 -149 q 517 -30 529 -60 q 483 20 506 -1 q 427 57 460 42 q 351 89 394 73 l 226 130 q 161 187 161 151 q 179 218 161 205 q 280 199 233 199 q 385 217 337 199 q 468 266 433 235 q 522 340 503 298 q 542 430 542 381 q 507 538 542 485 q 548 537 533 538 q 567 537 562 537 q 597 549 586 537 q 608 591 608 560 q 576 601 608 601 l 521 601 m 381 489 q 371 399 381 442 q 344 324 361 356 q 306 272 328 291 q 259 253 284 253 q 217 279 234 253 q 200 355 200 306 q 210 448 200 403 q 238 527 220 493 q 278 580 255 560 q 325 601 301 601 q 365 572 350 601 q 381 489 381 544 m 111 -17 q 204 -70 159 -54 q 291 -98 249 -86 q 352 -127 333 -111 q 372 -179 372 -142 q 337 -243 372 -219 q 237 -268 302 -268 q 156 -255 193 -268 q 94 -221 120 -243 q 53 -170 68 -199 q 39 -106 39 -140 q 58 -50 39 -74 q 111 -17 77 -26 "},"²":{"x_min":-33.203125,"x_max":395,"ha":431,"o":"m 91 453 q 155 508 123 484 q 214 549 186 532 q 266 579 243 566 q 307 605 290 593 q 395 755 395 668 q 353 849 395 813 q 243 886 311 886 q 170 872 205 886 q 109 831 136 859 q 76 789 86 811 q 66 761 66 767 q 76 748 66 748 q 92 760 84 748 q 115 793 100 772 q 155 830 133 818 q 201 843 177 843 q 252 822 233 843 q 271 761 271 801 q 227 639 271 698 q 107 509 184 580 q 2 412 37 447 q -33 361 -33 376 q -12 349 -33 349 q 10 350 -2 349 q 43 351 23 351 l 268 351 q 275 351 271 351 q 287 350 279 350 q 303 357 298 350 q 310 373 307 364 l 332 457 q 337 479 335 471 q 339 491 339 487 q 328 503 339 503 q 316 495 321 503 q 306 478 312 487 q 289 460 300 468 q 255 453 277 453 l 91 453 "},"–":{"x_min":-36.109375,"x_max":700.0625,"ha":695,"o":"m 688 375 l 20 375 q -1 356 5 375 l -34 259 q -36 249 -36 255 q -25 243 -36 243 l 641 243 q 663 261 657 243 l 698 356 q 700 366 700 361 q 688 375 700 375 "},"ë":{"x_min":1,"x_max":584,"ha":606,"o":"m 189 309 q 273 524 222 452 q 368 597 324 597 q 395 580 385 597 q 406 535 406 563 q 390 453 406 494 q 346 381 375 413 q 280 328 318 348 q 196 309 242 309 l 189 309 m 180 255 q 352 285 279 267 q 474 329 426 302 q 546 396 522 356 q 570 494 570 435 q 526 605 570 563 q 406 647 483 647 q 277 620 341 647 q 154 544 212 594 q 40 392 80 478 q 1 212 1 305 q 58 33 1 98 q 204 -31 115 -31 q 335 1 270 -31 q 451 96 399 34 q 497 177 497 152 q 481 195 497 195 q 462 183 472 195 q 434 151 452 170 q 358 86 395 108 q 290 65 320 65 q 208 105 238 65 q 179 220 179 145 q 179 237 179 228 q 180 255 179 245 m 501 911 q 445 885 469 911 q 421 830 421 860 q 445 771 421 795 q 501 747 469 747 q 560 770 536 747 q 584 830 584 794 q 559 886 584 862 q 501 911 535 911 m 274 911 q 217 885 242 911 q 192 830 192 860 q 217 771 192 795 q 274 747 242 747 q 332 770 308 747 q 356 830 356 794 q 331 886 356 862 q 274 911 307 911 "},"ƒ":{"x_min":-4.171875,"x_max":616.71875,"ha":651,"o":"m 405 613 q 421 814 413 754 q 451 875 429 875 q 468 856 461 875 q 485 815 475 837 q 511 774 495 793 q 554 755 526 755 q 599 777 581 755 q 616 834 616 798 q 582 909 616 879 q 491 939 548 939 q 331 863 395 939 q 247 644 266 787 l 237 570 q 233 555 236 560 q 220 551 230 551 l 120 551 q 115 517 118 534 q 113 482 113 500 l 113 469 l 209 469 q 225 452 225 469 l 225 449 l 220 387 q 205 113 209 231 q 197 -83 201 -4 q 186 -202 193 -162 q 161 -242 179 -242 q 143 -223 151 -242 q 126 -182 136 -204 q 100 -142 116 -161 q 58 -123 84 -123 q 13 -144 30 -123 q -4 -197 -4 -164 q 29 -273 -4 -244 q 123 -303 62 -303 q 248 -262 201 -303 q 323 -146 295 -222 q 364 38 351 -71 q 387 287 377 148 l 398 449 q 415 469 401 469 l 518 469 q 522 520 522 494 q 521 535 522 527 q 520 551 520 542 l 419 551 q 402 567 402 551 l 402 570 l 405 613 "},"Î":{"x_min":-61,"x_max":492,"ha":433,"o":"m 374 730 q 397 789 384 769 q 440 816 410 809 q 476 825 462 822 q 490 849 490 829 q 455 875 490 875 q 410 869 446 875 q 305 863 373 863 q 201 868 234 863 q 162 872 168 872 q 133 845 133 872 q 143 825 133 830 q 165 817 154 820 q 188 806 177 813 q 198 779 198 799 q 191 733 198 768 l 55 139 q 45 104 51 119 q 32 80 40 89 q 13 66 25 71 q -12 59 2 62 q -48 50 -36 55 q -61 23 -61 45 q -26 -6 -61 -6 q 16 0 -15 -6 q 105 6 47 6 q 226 1 183 6 q 280 -3 269 -3 q 308 24 308 -3 q 298 48 308 46 q 273 53 288 49 q 247 69 258 57 q 236 91 236 80 q 238 123 236 103 q 244 162 240 142 l 374 730 m 334 1212 l 168 974 l 223 974 l 357 1096 l 448 974 l 492 974 l 403 1212 l 334 1212 "},"e":{"x_min":1,"x_max":570,"ha":606,"o":"m 189 309 q 273 524 222 452 q 368 597 324 597 q 395 580 385 597 q 406 535 406 563 q 390 453 406 494 q 346 381 375 413 q 280 328 318 348 q 196 309 242 309 l 189 309 m 180 255 q 352 285 279 267 q 474 329 426 302 q 546 396 522 356 q 570 494 570 435 q 526 605 570 563 q 406 647 483 647 q 277 620 341 647 q 154 544 212 594 q 40 392 80 478 q 1 212 1 305 q 58 33 1 98 q 204 -31 115 -31 q 335 1 270 -31 q 451 96 399 34 q 497 177 497 152 q 481 195 497 195 q 462 183 472 195 q 434 151 452 170 q 358 86 395 108 q 290 65 320 65 q 208 105 238 65 q 179 220 179 145 q 179 237 179 228 q 180 255 179 245 "},"Ã":{"x_min":-72.234375,"x_max":634,"ha":682,"o":"m 480 831 q 472 886 475 871 q 444 901 469 901 q 406 889 419 901 q 373 835 394 877 l 25 130 q -4 91 12 103 q -36 70 -22 78 q -61 53 -51 62 q -72 29 -72 45 q -63 8 -72 13 q -36 4 -54 4 q -4 6 -23 4 q 43 8 15 8 q 100 6 77 8 q 137 4 123 4 l 145 4 q 183 32 183 4 q 169 53 183 47 q 139 66 155 59 q 109 82 123 72 q 95 112 95 91 q 99 134 95 118 q 113 175 102 150 l 165 296 l 375 296 l 394 145 q 397 123 397 132 q 397 112 397 115 q 358 65 397 73 q 320 52 334 61 q 306 20 306 43 q 344 -1 306 -1 q 398 3 358 -1 q 508 8 438 8 q 568 5 547 8 q 595 2 588 2 q 630 33 630 2 q 622 53 630 48 q 605 64 615 58 q 586 83 595 70 q 572 127 576 95 l 480 831 m 331 645 l 365 368 l 195 368 q 259 503 226 434 q 331 645 293 572 m 597 1181 q 542 1125 586 1125 q 508 1132 533 1125 l 461 1147 q 429 1153 446 1153 q 360 1112 389 1153 q 321 989 332 1071 l 357 989 q 375 1036 364 1021 q 410 1052 387 1052 q 422 1050 415 1052 q 437 1046 429 1049 l 494 1028 q 525 1024 511 1024 q 594 1063 565 1024 q 634 1181 622 1102 l 597 1181 "},"J":{"x_min":-268,"x_max":499,"ha":422,"o":"m 368 730 q 389 786 376 770 q 429 809 401 802 q 454 815 442 813 q 476 820 467 816 q 492 829 486 823 q 499 845 499 834 q 490 868 499 861 q 460 875 482 875 q 406 870 446 875 q 300 865 367 865 q 190 868 226 865 q 147 872 154 872 q 116 865 126 872 q 107 843 107 859 q 111 825 107 830 q 123 817 115 819 q 140 814 130 815 q 161 811 150 813 q 194 768 194 802 q 193 744 194 759 q 187 709 191 729 l 22 -15 q -21 -172 -1 -119 q -74 -225 -41 -225 q -101 -208 -95 -225 q -110 -165 -106 -191 q -138 -98 -117 -120 q -188 -76 -159 -76 q -244 -103 -220 -76 q -268 -173 -268 -130 q -233 -256 -268 -223 q -147 -289 -199 -289 q 16 -236 -66 -289 q 154 -88 98 -184 q 213 53 190 -25 q 257 227 236 131 l 368 730 "},"»":{"x_min":-26.390625,"x_max":433.375,"ha":474,"o":"m 240 305 q 164 397 194 356 q 114 467 134 438 q 81 511 94 495 q 58 526 69 526 q 46 519 51 526 q 41 501 41 512 q 116 311 41 469 q -26 109 -26 163 q -8 91 -26 91 q 18 106 0 91 q 65 148 36 120 q 137 215 94 176 q 240 305 180 255 m 433 305 q 357 397 387 356 q 307 467 327 438 q 275 510 287 495 q 252 526 262 526 q 240 519 245 526 q 234 501 234 512 q 254 437 234 484 q 311 311 273 390 q 168 110 168 164 q 186 92 168 92 q 212 106 194 92 q 259 148 230 121 q 331 216 288 176 q 433 305 373 255 "},"©":{"x_min":82,"x_max":1060,"ha":1142,"o":"m 572 950 q 384 912 473 950 q 225 805 294 874 q 118 645 154 734 q 82 459 82 556 q 118 272 82 359 q 226 113 155 184 q 384 7 297 42 q 571 -28 472 -28 q 758 7 671 -28 q 915 113 846 42 q 1023 274 986 184 q 1060 459 1060 363 q 1022 647 1060 556 q 915 806 984 737 q 757 912 847 874 q 572 950 668 950 m 993 459 q 961 299 993 376 q 868 159 929 222 q 732 67 808 98 q 571 36 657 36 q 273 159 397 36 q 180 296 212 220 q 149 459 149 372 q 180 620 149 544 q 272 759 211 697 q 409 853 332 821 q 572 885 487 885 q 732 853 655 885 q 868 762 809 821 q 960 623 927 702 q 993 459 993 544 m 790 746 l 762 746 q 749 713 758 722 q 721 704 740 704 q 699 711 712 704 q 667 726 686 718 q 623 742 648 735 q 564 749 597 749 q 452 726 504 749 q 363 664 401 704 q 303 571 325 625 q 282 454 282 517 q 303 340 282 393 q 363 247 325 286 q 453 185 401 207 q 565 163 505 163 q 802 307 718 163 l 773 325 q 586 207 697 207 q 458 272 502 207 q 414 463 414 337 q 573 714 414 714 q 690 667 643 714 q 760 529 737 620 l 792 529 l 790 746 "},"˘":{"x_min":280,"x_max":618,"ha":695,"o":"m 280 936 q 403 737 280 737 q 518 786 467 737 q 618 935 569 835 l 573 935 q 501 869 538 891 q 414 847 463 847 q 348 867 370 847 q 321 936 327 888 l 280 936 "},"ò":{"x_min":3,"x_max":604,"ha":653,"o":"m 362 647 q 231 616 295 647 q 116 533 166 585 q 34 406 65 480 q 3 248 3 333 q 20 136 3 187 q 68 49 37 85 q 144 -7 100 13 q 243 -28 188 -28 q 381 3 315 -28 q 496 90 447 35 q 574 215 545 144 q 604 363 604 285 q 585 481 604 428 q 535 571 567 534 q 459 627 504 608 q 362 647 415 647 m 440 458 q 372 148 440 301 q 316 55 344 85 q 251 26 287 26 q 170 158 170 26 q 188 316 170 237 q 239 467 206 395 q 362 593 297 593 q 418 558 397 593 q 440 458 440 524 m 362 922 q 308 963 336 963 q 276 947 290 963 q 263 904 263 932 q 272 876 263 889 q 297 848 282 863 l 439 718 l 496 718 l 362 922 "},"^":{"x_min":279,"x_max":1107,"ha":1389,"o":"m 766 992 l 620 992 l 279 609 l 349 609 l 693 878 l 1036 609 l 1107 609 l 766 992 "},"«":{"x_min":18.0625,"x_max":479.203125,"ha":474,"o":"m 143 306 q 250 431 215 381 q 284 506 284 481 q 266 526 284 526 q 240 511 258 526 q 193 468 222 495 q 120 400 163 440 q 18 312 77 361 q 94 220 63 261 q 144 150 125 179 q 176 106 163 122 q 200 91 188 91 q 218 115 218 91 q 143 306 218 148 m 336 306 q 479 506 479 453 q 461 526 479 526 q 434 510 452 526 q 387 467 416 495 q 315 400 358 440 q 212 312 272 361 q 288 220 258 261 q 338 150 319 179 q 370 107 358 122 q 394 92 383 92 q 412 115 412 92 q 336 306 412 146 "},"D":{"x_min":-70.796875,"x_max":814,"ha":850,"o":"m 52 168 q 34 102 43 127 q 0 68 26 77 q -51 52 -31 57 q -70 22 -70 47 q -66 2 -70 6 q -51 -1 -62 -1 q -1 2 -40 -1 q 108 6 37 6 q 202 3 154 6 q 302 0 250 0 q 504 23 419 0 q 658 116 588 47 q 720 196 691 150 q 769 294 748 242 q 802 406 790 347 q 814 525 814 466 q 727 784 814 694 q 473 875 640 875 q 394 872 437 875 q 300 869 351 869 q 193 872 232 869 q 143 876 154 876 q 118 871 126 876 q 111 851 111 866 q 122 826 111 831 q 149 816 134 820 q 175 805 163 812 q 187 777 187 798 q 186 759 187 772 q 182 727 186 747 l 52 168 m 229 165 l 354 722 q 366 767 360 748 q 382 796 372 786 q 407 812 392 807 q 447 817 422 817 q 583 755 535 817 q 631 583 631 694 q 621 456 631 518 q 595 337 611 393 q 557 232 579 280 q 510 151 535 184 q 318 58 442 58 q 246 66 269 58 q 222 119 222 74 q 224 145 222 134 q 229 165 226 155 "},"ł":{"x_min":-11,"x_max":395,"ha":365,"o":"m 372 882 q 388 937 382 917 q 395 964 395 957 q 390 976 395 971 q 381 981 386 981 q 360 973 374 981 q 320 956 346 965 q 255 939 294 947 q 161 932 217 932 q 128 928 140 932 q 115 900 115 924 q 126 885 115 889 q 150 876 137 880 q 175 866 164 872 q 186 846 186 860 q 182 819 186 835 q 173 786 179 804 l 94 482 l 7 420 l -11 344 l 73 405 l 37 270 q 13 165 20 208 q 5 98 5 122 q 28 14 5 45 q 93 -17 51 -17 q 173 12 133 -17 q 257 99 214 41 q 299 166 286 140 q 311 198 311 192 q 299 216 311 216 q 279 201 286 216 q 253 158 272 185 q 187 97 212 97 q 173 119 173 97 q 179 152 173 134 l 276 519 l 363 580 l 382 655 l 296 594 l 372 882 "},"ÿ":{"x_min":-158,"x_max":565,"ha":565,"o":"m 302 184 q 295 391 300 305 q 279 533 291 477 q 242 616 266 590 q 176 643 218 643 q 98 614 137 643 q 26 527 59 586 q 0 476 8 497 q -6 444 -6 455 q 5 426 -6 426 q 26 442 18 426 q 43 477 34 458 q 61 513 51 497 q 86 529 71 529 q 111 499 98 529 q 133 412 123 469 q 149 273 143 355 q 155 89 155 192 q 143 -49 155 10 q 111 -148 130 -108 q 70 -207 93 -188 q 25 -227 47 -227 q 0 -215 11 -227 q -24 -188 -12 -203 q -53 -161 -37 -174 q -91 -149 -69 -149 q -138 -169 -119 -149 q -158 -221 -158 -189 q -132 -285 -158 -260 q -62 -310 -106 -310 q 34 -284 -12 -310 q 131 -207 82 -258 q 233 -81 180 -157 q 348 94 286 -5 q 493 358 444 248 q 543 538 543 467 q 525 614 543 587 q 479 641 508 641 q 427 616 447 641 q 408 551 408 591 q 422 484 408 522 q 436 398 436 447 q 404 276 436 351 q 304 99 372 201 l 302 184 m 482 911 q 426 885 450 911 q 402 830 402 860 q 426 771 402 795 q 482 747 450 747 q 541 770 517 747 q 565 830 565 794 q 540 886 565 862 q 482 911 516 911 m 255 911 q 198 885 223 911 q 173 830 173 860 q 198 771 173 795 q 255 747 223 747 q 313 770 289 747 q 337 830 337 794 q 312 886 337 862 q 255 911 288 911 "},"Ł":{"x_min":-70.84375,"x_max":562.546875,"ha":610,"o":"m 363 730 q 387 789 373 772 q 433 810 401 806 q 472 819 458 815 q 487 847 487 823 q 452 875 487 875 q 407 869 445 875 q 294 863 369 863 q 191 868 225 863 q 152 872 158 872 q 120 843 120 872 q 131 820 120 825 q 156 811 143 815 q 180 798 169 806 q 191 765 191 790 q 176 673 191 743 l 122 438 l 22 368 l 4 286 l 104 357 l 54 140 q 29 81 43 97 q -15 59 16 65 q -55 51 -40 55 q -70 23 -70 47 q -34 -4 -70 -4 q 38 0 -27 -4 q 247 5 105 5 q 416 1 359 5 q 480 -2 472 -2 q 516 7 511 -2 q 526 46 520 18 q 550 142 537 104 q 562 200 562 181 q 538 236 562 236 q 518 228 526 236 q 504 208 511 221 q 488 177 497 194 q 466 142 480 160 q 391 78 430 94 q 287 63 351 63 q 225 101 225 63 q 227 126 225 112 q 234 160 230 140 l 304 468 l 466 586 l 484 665 l 323 551 l 363 730 "},"í":{"x_min":14,"x_max":443,"ha":399,"o":"m 294 397 q 320 485 309 446 q 331 558 331 524 q 254 645 331 645 q 81 559 158 645 q 30 491 47 522 q 14 446 14 461 q 22 432 14 432 q 47 448 38 432 q 73 490 55 465 q 115 537 97 522 q 147 553 134 553 q 156 532 156 553 q 152 504 156 518 l 63 224 q 36 139 48 179 q 25 63 25 99 q 105 -24 25 -24 q 281 81 197 -24 q 331 155 316 123 q 347 198 347 187 q 335 216 347 216 q 311 197 323 216 q 286 156 299 178 q 257 115 273 134 q 222 97 241 97 q 209 119 209 97 q 226 190 209 141 l 294 397 m 405 842 q 443 903 443 868 q 429 945 443 928 q 398 963 415 963 q 337 924 369 963 l 169 718 l 227 718 l 405 842 "},"ˆ":{"x_min":244,"x_max":568,"ha":695,"o":"m 410 956 l 244 718 l 299 718 l 433 840 l 524 718 l 568 718 l 479 956 l 410 956 "},"w":{"x_min":13.546875,"x_max":861,"ha":890,"o":"m 398 191 q 385 66 385 118 q 408 0 385 23 q 476 -25 432 -25 q 604 18 539 -25 q 726 152 670 62 q 788 265 762 211 q 829 369 813 320 q 853 458 845 419 q 861 526 861 498 q 840 609 861 578 q 788 640 819 640 q 742 618 760 640 q 724 560 724 596 q 731 520 724 539 q 746 480 738 501 q 762 439 755 460 q 769 395 769 417 q 762 345 769 376 q 741 278 755 314 q 706 202 727 241 q 659 126 686 163 q 611 74 634 91 q 569 58 587 58 q 546 73 555 58 q 538 115 538 88 q 541 161 538 132 q 553 227 544 190 l 638 588 q 640 597 639 593 q 640 607 640 600 q 633 613 640 610 q 626 617 626 617 l 514 617 q 486 604 494 617 q 470 565 478 592 q 453 495 462 538 q 421 392 443 453 q 361 257 393 315 q 301 158 330 199 q 249 97 272 118 q 216 77 226 77 q 202 83 208 77 q 197 96 197 89 q 200 130 197 107 q 210 175 203 153 l 280 401 q 303 484 295 448 q 312 548 312 520 q 292 616 312 592 q 234 640 273 640 q 153 615 195 640 q 74 545 112 591 q 28 478 42 508 q 13 441 13 448 q 24 424 13 424 q 48 442 34 424 q 76 480 62 459 q 107 518 91 501 q 138 536 123 536 q 145 524 145 536 q 137 473 145 499 q 120 418 130 447 l 55 214 q 38 144 44 177 q 33 87 33 111 q 127 -26 33 -26 q 269 46 201 -26 q 412 266 337 119 l 398 191 "},"$":{"x_min":16.4375,"x_max":610.71875,"ha":651,"o":"m 469 1051 l 420 865 q 305 842 356 862 q 219 789 255 823 q 165 712 184 756 q 147 616 147 667 q 156 548 147 578 q 185 489 166 517 q 232 431 205 460 q 295 367 259 402 l 226 95 q 169 110 192 100 q 131 132 147 119 q 107 166 116 146 q 92 214 98 187 q 87 251 88 234 q 84 281 85 269 q 79 301 83 294 q 67 309 76 309 q 45 281 52 309 l 19 162 q 16 149 16 155 q 16 139 16 144 q 209 30 16 81 l 156 -181 l 209 -181 l 262 26 q 369 60 320 32 q 452 126 417 87 q 506 212 487 164 q 526 310 526 260 q 493 435 526 380 q 394 551 460 489 l 459 803 q 508 776 492 795 q 531 720 524 756 q 535 691 534 705 q 537 666 535 677 q 544 650 539 656 q 559 644 548 644 q 573 653 566 644 q 585 681 581 662 l 609 784 q 610 796 610 791 q 473 862 610 830 l 521 1051 l 469 1051 m 406 807 l 351 591 q 307 643 322 619 q 293 697 293 666 q 323 775 293 745 q 406 807 354 804 m 340 333 q 393 230 393 288 q 384 183 393 206 q 361 142 376 160 q 325 112 345 124 q 280 97 305 101 l 340 333 "},"\\":{"x_min":39,"x_max":278,"ha":308,"o":"m 39 900 l 212 -129 l 278 -129 l 102 900 l 39 900 "},"Ì":{"x_min":-61,"x_max":490,"ha":433,"o":"m 374 730 q 397 789 384 769 q 440 816 410 809 q 476 825 462 822 q 490 849 490 829 q 455 875 490 875 q 410 869 446 875 q 305 863 373 863 q 201 868 234 863 q 162 872 168 872 q 133 845 133 872 q 143 825 133 830 q 165 817 154 820 q 188 806 177 813 q 198 779 198 799 q 191 733 198 768 l 55 139 q 45 104 51 119 q 32 80 40 89 q 13 66 25 71 q -12 59 2 62 q -48 50 -36 55 q -61 23 -61 45 q -26 -6 -61 -6 q 16 0 -15 -6 q 105 6 47 6 q 226 1 183 6 q 280 -3 269 -3 q 308 24 308 -3 q 298 48 308 46 q 273 53 288 49 q 247 69 258 57 q 236 91 236 80 q 238 123 236 103 q 244 162 240 142 l 374 730 m 305 1178 q 251 1219 279 1219 q 219 1203 233 1219 q 206 1160 206 1188 q 215 1132 206 1145 q 240 1104 225 1119 l 382 974 l 439 974 l 305 1178 "},"µ":{"x_min":-73.609375,"x_max":757,"ha":803,"o":"m 45 252 q 4 85 26 159 q -34 -47 -16 10 q -62 -148 -51 -105 q -73 -216 -73 -190 q -56 -266 -73 -248 q -6 -285 -38 -285 q 43 -259 27 -285 q 69 -181 59 -233 q 88 -50 79 -129 q 116 135 97 28 q 163 21 123 60 q 269 -17 202 -17 q 450 126 391 -17 q 481 19 451 55 q 569 -17 512 -17 q 718 80 662 -17 q 747 153 737 115 q 757 207 757 191 q 741 227 757 227 q 726 221 732 227 q 715 205 720 215 q 704 181 709 194 q 691 154 700 168 q 604 93 657 93 q 561 109 576 93 q 545 154 545 125 q 550 198 545 177 q 558 239 554 219 l 634 600 l 493 600 l 418 246 q 366 132 401 168 q 272 96 331 96 q 202 120 227 96 q 177 189 177 144 q 191 283 177 219 l 259 600 l 119 600 l 45 252 "},"Ç":{"x_min":26,"x_max":745.484375,"ha":738,"o":"m 739 792 q 744 827 744 812 q 745 851 745 842 q 718 889 745 878 q 628 901 691 901 q 435 869 530 901 q 260 777 341 838 q 26 319 26 600 q 114 62 26 155 q 360 -31 202 -31 q 489 -14 427 -31 q 588 24 551 2 q 614 49 610 36 q 621 81 619 63 l 641 190 q 642 206 642 197 q 642 224 642 214 q 621 252 642 252 q 595 233 606 252 q 567 178 584 214 q 539 117 552 143 q 509 72 526 90 q 469 43 492 53 q 409 34 445 34 q 257 109 314 34 q 201 320 201 184 q 242 530 201 427 q 362 714 284 632 q 427 772 392 748 q 494 813 462 796 q 555 838 527 830 q 599 847 582 847 q 646 824 638 847 q 655 745 655 802 l 655 703 q 687 644 655 644 q 710 659 705 644 q 720 702 714 674 l 739 792 m 274 0 l 238 -138 q 287 -130 267 -130 q 344 -184 344 -130 q 291 -245 344 -245 q 227 -231 257 -245 q 160 -194 196 -218 l 139 -254 q 227 -294 188 -279 q 305 -310 266 -310 q 396 -277 363 -310 q 430 -188 430 -245 q 402 -104 430 -136 q 332 -72 374 -72 q 316 -73 325 -72 q 292 -77 306 -74 l 312 0 l 274 0 "},"’":{"x_min":106.390625,"x_max":318,"ha":325,"o":"m 155 807 q 165 759 155 775 q 189 735 175 744 q 212 719 202 726 q 223 697 223 712 q 205 650 223 672 q 164 608 187 627 q 124 573 142 589 q 106 547 106 558 q 125 528 106 528 q 167 548 136 528 q 239 615 198 569 q 299 702 280 659 q 318 798 318 745 q 295 871 318 843 q 239 900 273 900 q 180 873 205 900 q 155 807 155 847 "},"-":{"x_min":-0.390625,"x_max":300,"ha":324,"o":"m 53 389 q 44 384 49 389 q 35 370 38 379 l 1 246 q 0 236 0 241 q 7 228 0 228 l 244 228 q 254 232 248 228 q 262 246 259 237 l 297 372 q 300 382 300 380 q 290 389 300 389 l 53 389 "},"Q":{"x_min":-25.171875,"x_max":815,"ha":851,"o":"m 632 599 q 627 507 632 556 q 613 409 622 459 q 591 312 604 360 q 562 222 579 264 q 471 76 526 125 q 359 28 416 28 q 251 91 291 28 q 211 276 211 154 q 234 494 211 385 q 298 698 258 603 q 380 813 331 773 q 481 854 429 854 q 591 790 551 854 q 632 599 632 726 m 310 -85 q 374 -50 341 -64 q 441 -26 408 -37 q 507 -4 474 -15 q 569 23 540 6 q 671 104 626 56 q 749 211 717 152 q 798 338 781 270 q 815 481 815 406 q 787 653 815 576 q 715 785 760 730 q 607 871 669 841 q 477 901 545 901 q 302 862 384 901 q 160 754 220 823 q 64 590 99 685 q 29 384 29 495 q 49 227 29 298 q 109 103 70 155 q 203 17 148 50 q 330 -26 259 -16 l 170 -85 q 99 -104 134 -98 q 37 -118 65 -110 q -7 -140 9 -126 q -25 -186 -25 -155 q 17 -234 -25 -234 q 70 -220 47 -234 q 114 -188 94 -205 q 149 -157 134 -172 q 177 -143 165 -143 q 218 -159 194 -143 q 280 -201 242 -175 q 337 -243 310 -223 q 390 -277 365 -262 q 442 -300 416 -291 q 499 -310 469 -310 q 720 -186 615 -310 q 765 -97 765 -133 q 744 -73 765 -73 q 725 -85 734 -73 q 701 -113 716 -98 q 665 -141 687 -129 q 608 -154 642 -154 q 549 -142 577 -154 q 493 -118 521 -131 q 434 -93 465 -104 q 367 -82 403 -82 q 338 -82 352 -82 q 310 -85 324 -82 "},"M":{"x_min":-86.125,"x_max":1000.078125,"ha":954,"o":"m 425 837 q 417 865 425 856 q 388 874 409 874 q 354 872 372 874 q 316 870 336 870 q 231 873 265 870 q 177 877 197 877 q 152 871 161 877 q 144 849 144 866 q 177 817 144 817 q 206 806 195 817 q 218 776 218 795 q 206 716 218 757 l 43 150 q 17 89 30 109 q -34 60 4 69 q -72 50 -58 55 q -86 23 -86 46 q -48 -6 -86 -6 q -9 -2 -37 -6 q 63 0 19 0 q 137 -1 112 0 q 168 -3 162 -3 q 198 25 198 -3 q 181 50 198 48 q 137 56 163 52 q 101 103 101 63 q 111 169 101 127 q 137 273 120 210 l 248 678 l 263 132 q 265 74 265 94 q 265 53 265 55 l 265 38 q 266 18 265 25 q 273 7 268 10 q 290 2 279 3 q 323 0 302 0 q 359 44 334 0 q 427 173 383 88 q 541 386 472 259 q 708 678 609 513 l 594 139 q 573 84 586 100 q 534 60 561 67 q 498 51 512 55 q 484 24 484 48 q 511 -4 484 -4 q 554 0 522 -4 q 644 6 586 6 q 758 2 718 6 q 807 -1 798 -1 q 831 3 823 -1 q 838 24 838 7 q 827 46 838 41 q 802 55 816 50 q 777 65 788 59 q 766 91 766 71 q 769 123 766 98 q 782 192 772 148 l 895 728 q 950 807 909 796 q 967 810 958 809 q 984 815 976 812 q 995 825 991 819 q 1000 842 1000 831 q 963 874 1000 874 q 925 871 958 874 q 826 869 893 869 l 766 869 q 744 864 751 869 q 730 846 737 859 l 436 306 l 425 837 "},"⋅":{"x_min":49,"x_max":268,"ha":325,"o":"m 158 546 q 80 514 112 546 q 49 437 49 483 q 80 359 49 391 q 158 328 112 328 q 236 359 204 328 q 268 437 268 391 q 236 514 268 483 q 158 546 204 546 "},"C":{"x_min":26,"x_max":745.484375,"ha":738,"o":"m 739 792 q 744 827 744 812 q 745 851 745 842 q 718 889 745 878 q 628 901 691 901 q 435 869 530 901 q 260 777 341 838 q 26 319 26 600 q 114 62 26 155 q 360 -31 202 -31 q 489 -14 427 -31 q 588 24 551 2 q 614 49 610 36 q 621 81 619 63 l 641 190 q 642 206 642 197 q 642 224 642 214 q 621 252 642 252 q 595 233 606 252 q 567 178 584 214 q 539 117 552 143 q 509 72 526 90 q 469 43 492 53 q 409 34 445 34 q 257 109 314 34 q 201 320 201 184 q 242 530 201 427 q 362 714 284 632 q 427 772 392 748 q 494 813 462 796 q 555 838 527 830 q 599 847 582 847 q 646 824 638 847 q 655 745 655 802 l 655 703 q 687 644 655 644 q 710 659 705 644 q 720 702 714 674 l 739 792 "},"œ":{"x_min":3,"x_max":964,"ha":1000,"o":"m 438 457 q 370 148 438 300 q 314 55 343 85 q 249 26 286 26 q 168 157 168 26 q 185 315 168 236 q 237 468 202 393 q 361 592 295 592 q 418 558 397 592 q 438 457 438 524 m 581 312 q 665 527 615 455 q 761 600 716 600 q 788 584 777 600 q 800 538 800 568 q 784 456 800 497 q 740 384 768 416 q 673 332 712 352 q 588 312 634 312 l 581 312 m 575 258 q 747 287 673 270 q 868 331 820 303 q 940 398 916 358 q 964 496 964 438 q 919 608 964 566 q 798 651 875 651 q 675 624 740 651 q 548 544 611 598 q 475 619 523 593 q 362 646 426 646 q 230 615 294 646 q 114 532 165 584 q 33 406 64 479 q 3 248 3 333 q 20 136 3 187 q 68 49 37 85 q 144 -7 100 13 q 243 -28 189 -28 q 359 -7 305 -28 q 455 53 412 13 q 529 -9 491 9 q 619 -28 566 -28 q 729 -5 677 -28 q 818 47 780 16 q 879 108 857 77 q 901 156 901 140 q 886 173 901 173 q 866 162 876 173 q 836 133 855 151 q 697 61 759 61 q 608 102 643 61 q 573 223 573 144 q 573 240 573 231 q 575 258 573 248 "},"!":{"x_min":7,"x_max":359,"ha":360,"o":"m 103 268 q 122 235 103 235 q 164 284 143 235 q 225 433 185 333 q 322 676 286 583 q 359 813 359 769 q 337 877 359 853 q 279 901 315 901 q 225 886 247 901 q 187 843 203 871 q 162 774 172 814 q 147 680 153 733 q 113 373 123 475 q 103 268 103 271 m 97 187 q 34 155 61 187 q 7 73 7 124 q 25 5 7 28 q 77 -17 44 -17 q 140 13 114 -17 q 167 95 167 44 q 147 163 167 139 q 97 187 128 187 "},"ç":{"x_min":2,"x_max":550.3125,"ha":560,"o":"m 391 651 q 328 641 362 651 q 257 615 293 632 q 187 573 222 598 q 124 516 153 548 q 33 374 64 452 q 2 215 2 296 q 58 36 2 101 q 204 -28 115 -28 q 335 4 271 -28 q 451 99 400 37 q 497 180 497 155 q 482 198 497 198 q 465 189 473 198 q 441 164 457 180 q 365 98 400 121 q 294 76 330 76 q 215 115 246 76 q 185 226 185 155 q 204 367 185 301 q 249 482 223 433 q 302 560 275 531 q 344 590 329 590 q 373 572 366 590 q 390 531 379 555 q 427 476 410 494 q 476 459 444 459 q 530 481 510 459 q 550 538 550 503 q 509 619 550 587 q 391 651 468 651 m 173 0 l 137 -138 q 186 -130 166 -130 q 243 -184 243 -130 q 190 -245 243 -245 q 126 -231 156 -245 q 59 -194 95 -218 l 38 -254 q 126 -294 87 -279 q 204 -310 165 -310 q 295 -277 262 -310 q 329 -188 329 -245 q 301 -104 329 -136 q 231 -72 273 -72 q 215 -73 224 -72 q 191 -77 205 -74 l 211 0 l 173 0 "},"È":{"x_min":-75,"x_max":698.671875,"ha":671,"o":"m 236 875 q 193 875 215 875 q 148 876 172 876 q 116 848 116 876 q 127 826 116 831 q 151 816 138 820 q 175 803 163 812 q 186 769 186 794 q 177 712 186 749 l 48 139 q 25 80 38 96 q -20 59 11 64 q -59 50 -44 55 q -75 23 -75 46 q -34 -6 -75 -6 q 11 -2 -18 -6 q 83 0 40 0 l 465 0 q 493 0 480 0 q 516 -1 505 -1 q 547 7 540 -1 q 562 45 555 16 q 582 136 576 101 q 588 184 588 170 q 581 208 588 198 q 566 217 575 217 q 547 209 555 217 q 533 187 540 201 q 518 157 526 173 q 498 126 511 141 q 459 89 479 102 q 417 70 438 76 q 372 62 395 63 q 322 61 348 61 q 250 67 276 61 q 223 101 223 73 q 233 167 223 124 l 293 436 l 370 436 q 447 420 422 436 q 473 365 473 405 q 470 338 473 351 q 468 309 468 324 q 476 290 468 298 q 494 281 484 281 q 521 310 515 281 q 536 383 527 338 q 566 517 551 469 q 580 585 580 566 q 561 616 580 616 q 541 607 548 616 q 527 585 533 598 q 513 557 520 571 q 494 530 506 542 q 450 505 473 510 q 397 501 427 501 l 308 501 l 351 692 q 365 750 358 720 q 383 814 372 780 l 493 814 q 593 757 573 814 q 600 720 598 739 q 602 687 601 702 q 609 662 604 672 q 630 652 615 652 q 652 666 647 652 q 662 701 657 680 l 697 843 q 698 855 698 848 q 670 875 698 875 l 236 875 m 421 1178 q 367 1219 395 1219 q 335 1203 349 1219 q 322 1160 322 1188 q 331 1132 322 1145 q 356 1104 341 1119 l 498 974 l 555 974 l 421 1178 "},"ﬁ":{"x_min":-274,"x_max":700,"ha":711,"o":"m 285 617 q 502 923 349 923 q 532 917 522 923 q 548 902 543 911 q 556 879 554 892 q 561 852 558 866 q 633 775 573 775 q 680 797 661 775 q 700 850 700 818 q 654 934 700 902 q 524 967 609 967 q 123 617 222 967 l 59 617 q 30 576 30 617 q 48 559 30 559 l 109 559 l 38 234 q -4 27 13 117 q -37 -124 -22 -62 q -67 -217 -53 -186 q -100 -249 -82 -249 q -128 -203 -128 -249 q -127 -189 -128 -196 q -126 -174 -126 -182 q -145 -107 -126 -130 q -196 -83 -164 -83 q -251 -111 -228 -83 q -274 -179 -274 -139 q -238 -272 -274 -237 q -136 -307 -203 -307 q -1 -259 -64 -307 q 109 -119 60 -212 q 179 88 152 -36 q 240 378 206 213 l 276 559 l 391 559 q 446 554 431 559 q 461 528 461 550 q 452 476 461 506 l 354 148 q 340 63 340 102 q 419 -24 340 -24 q 597 81 509 -24 q 646 154 630 122 q 662 198 662 187 q 651 216 662 216 q 627 197 638 216 q 602 156 615 178 q 572 115 588 134 q 537 97 556 97 q 523 119 523 97 q 530 155 523 131 l 647 559 q 654 582 651 572 q 656 599 656 592 q 652 619 656 614 q 631 623 647 623 q 593 620 624 623 q 505 617 562 617 l 285 617 "},"{":{"x_min":121.265625,"x_max":576.40625,"ha":695,"o":"m 576 989 l 576 1028 q 445 1016 497 1028 q 362 977 393 1004 q 318 905 330 950 q 306 793 306 859 l 306 656 q 298 567 306 604 q 269 507 290 530 q 212 472 249 484 q 121 454 176 459 l 121 408 q 212 391 176 403 q 268 354 247 378 q 297 294 289 330 q 306 205 306 258 l 306 69 q 318 -41 306 2 q 361 -113 330 -85 q 442 -153 391 -141 q 569 -165 493 -165 l 576 -165 l 576 -126 q 499 -116 529 -126 q 452 -85 469 -106 q 430 -30 436 -64 q 425 51 425 3 l 425 144 q 418 258 425 210 q 393 341 412 307 q 339 396 375 375 q 245 430 304 418 q 339 464 304 443 q 393 520 375 486 q 418 602 412 554 q 425 716 425 651 l 425 809 q 430 892 425 858 q 452 948 436 926 q 499 979 469 969 q 576 989 529 989 "},"X":{"x_min":-132,"x_max":824,"ha":715,"o":"m 352 743 q 347 764 348 754 q 346 780 346 773 q 355 805 346 797 q 382 816 364 814 q 423 823 407 821 q 439 848 439 826 q 431 869 439 861 q 409 878 423 878 q 362 873 401 878 q 251 868 323 868 q 126 873 169 868 q 75 879 83 879 q 58 870 65 879 q 51 850 51 862 q 56 831 51 837 q 69 823 61 826 q 88 820 77 820 q 109 815 98 819 q 141 793 132 808 q 161 751 151 777 l 279 409 l 195 304 q 63 152 118 208 q -23 79 8 95 q -62 63 -43 68 q -97 52 -81 58 q -122 39 -112 47 q -132 15 -132 30 q -125 -1 -132 2 q -104 -5 -118 -5 q -40 0 -77 -5 q 48 5 -2 5 q 110 0 84 5 q 151 -4 136 -4 q 180 24 180 -4 q 170 46 180 40 q 149 55 161 51 q 127 66 137 60 q 118 92 118 72 q 159 169 118 118 l 301 351 l 355 176 q 367 139 362 155 q 372 107 372 122 q 360 78 372 87 q 330 64 348 69 q 294 50 307 57 q 282 25 282 43 q 290 4 282 12 q 314 -4 298 -4 q 359 0 325 -4 q 447 4 393 4 q 589 0 539 4 q 653 -4 640 -4 q 679 2 672 -4 q 686 25 686 8 q 680 42 686 37 q 664 50 673 47 q 644 55 655 52 q 619 65 632 58 q 575 115 593 80 q 537 205 557 150 l 447 471 l 494 541 q 626 712 565 648 q 723 794 687 775 q 757 806 739 803 q 789 814 775 809 q 814 827 804 819 q 824 853 824 836 q 787 875 824 875 q 748 872 771 875 q 696 869 725 869 q 594 873 630 869 q 546 878 557 878 q 519 868 528 878 q 509 846 509 859 q 521 824 509 828 q 553 816 533 821 q 576 807 568 814 q 585 780 585 800 q 579 757 585 768 q 564 732 573 746 l 426 540 l 352 743 "},"ô":{"x_min":3,"x_max":604,"ha":653,"o":"m 362 647 q 231 616 295 647 q 116 533 166 585 q 34 406 65 480 q 3 248 3 333 q 20 136 3 187 q 68 49 37 85 q 144 -7 100 13 q 243 -28 188 -28 q 381 3 315 -28 q 496 90 447 35 q 574 215 545 144 q 604 363 604 285 q 585 481 604 428 q 535 571 567 534 q 459 627 504 608 q 362 647 415 647 m 440 458 q 372 148 440 301 q 316 55 344 85 q 251 26 287 26 q 170 158 170 26 q 188 316 170 237 q 239 467 206 395 q 362 593 297 593 q 418 558 397 593 q 440 458 440 524 m 391 956 l 225 718 l 280 718 l 414 840 l 505 718 l 549 718 l 460 956 l 391 956 "},"¼":{"x_min":15,"x_max":982,"ha":1006,"o":"m 338 854 q 344 877 344 870 q 332 891 344 891 q 287 875 324 891 q 174 836 249 859 q 120 818 141 825 q 99 798 99 812 q 113 786 99 786 q 132 789 121 786 q 155 797 144 793 q 178 804 167 801 q 196 808 189 808 q 210 802 210 808 q 201 754 210 793 l 121 463 q 103 426 114 436 q 63 413 91 416 q 27 409 39 411 q 15 394 15 408 q 35 380 15 380 q 87 384 44 380 q 209 388 130 388 q 264 386 244 388 q 292 383 285 383 q 316 401 316 383 q 295 415 316 412 q 246 420 264 416 q 228 444 228 425 q 238 491 228 458 l 338 854 m 716 900 l 223 -26 l 286 -26 l 779 900 l 716 900 m 956 526 q 935 524 941 526 q 922 514 929 521 l 625 222 q 603 197 613 208 q 594 172 594 186 q 602 158 594 161 q 625 156 610 156 l 774 156 q 788 150 788 156 q 788 143 788 147 q 787 133 788 140 l 765 57 q 753 38 762 45 q 728 28 745 31 q 701 25 713 25 q 689 11 689 25 q 706 0 689 0 q 747 2 713 0 q 848 4 781 4 q 885 3 870 4 q 908 2 899 2 q 922 13 922 2 q 913 25 922 22 q 895 29 905 28 q 877 32 886 29 q 869 46 869 35 q 872 61 869 50 l 893 139 q 898 153 897 150 q 912 156 899 156 l 955 156 q 968 168 965 156 l 973 189 q 974 191 973 190 q 975 193 975 192 q 963 199 975 199 l 926 199 q 913 205 913 199 q 915 218 913 212 l 952 357 q 955 367 955 362 q 955 375 955 372 q 943 385 955 385 q 924 380 937 385 l 876 368 q 851 355 858 364 q 841 335 844 347 l 808 214 q 803 201 805 203 q 788 199 801 199 l 644 199 q 784 339 721 280 q 890 435 847 397 q 958 493 934 474 q 982 518 982 512 q 969 526 982 526 l 956 526 "},"#":{"x_min":47.21875,"x_max":1020.921875,"ha":1068,"o":"m 623 990 l 500 990 l 394 695 l 179 695 l 137 582 l 354 582 l 291 404 l 87 404 l 47 290 l 251 290 l 145 -4 l 270 -4 l 375 290 l 556 290 l 451 -4 l 576 -4 l 680 290 l 888 290 l 929 404 l 720 404 l 783 582 l 980 582 l 1020 695 l 823 695 l 929 990 l 805 990 l 700 695 l 518 695 l 623 990 m 662 582 l 598 403 l 412 403 l 476 582 l 662 582 "},"Ê":{"x_min":-75,"x_max":698.671875,"ha":671,"o":"m 236 875 q 193 875 215 875 q 148 876 172 876 q 116 848 116 876 q 127 826 116 831 q 151 816 138 820 q 175 803 163 812 q 186 769 186 794 q 177 712 186 749 l 48 139 q 25 80 38 96 q -20 59 11 64 q -59 50 -44 55 q -75 23 -75 46 q -34 -6 -75 -6 q 11 -2 -18 -6 q 83 0 40 0 l 465 0 q 493 0 480 0 q 516 -1 505 -1 q 547 7 540 -1 q 562 45 555 16 q 582 136 576 101 q 588 184 588 170 q 581 208 588 198 q 566 217 575 217 q 547 209 555 217 q 533 187 540 201 q 518 157 526 173 q 498 126 511 141 q 459 89 479 102 q 417 70 438 76 q 372 62 395 63 q 322 61 348 61 q 250 67 276 61 q 223 101 223 73 q 233 167 223 124 l 293 436 l 370 436 q 447 420 422 436 q 473 365 473 405 q 470 338 473 351 q 468 309 468 324 q 476 290 468 298 q 494 281 484 281 q 521 310 515 281 q 536 383 527 338 q 566 517 551 469 q 580 585 580 566 q 561 616 580 616 q 541 607 548 616 q 527 585 533 598 q 513 557 520 571 q 494 530 506 542 q 450 505 473 510 q 397 501 427 501 l 308 501 l 351 692 q 365 750 358 720 q 383 814 372 780 l 493 814 q 593 757 573 814 q 600 720 598 739 q 602 687 601 702 q 609 662 604 672 q 630 652 615 652 q 652 666 647 652 q 662 701 657 680 l 697 843 q 698 855 698 848 q 670 875 698 875 l 236 875 m 450 1212 l 284 974 l 339 974 l 473 1096 l 564 974 l 608 974 l 519 1212 l 450 1212 "},")":{"x_min":-131.6875,"x_max":388,"ha":465,"o":"m 147 910 q 126 891 126 910 q 144 860 126 872 q 182 825 162 848 q 235 595 235 759 q 218 420 235 520 q 164 192 201 319 q 100 17 133 92 q 32 -111 68 -58 q -30 -186 -1 -160 q -83 -227 -60 -212 q -118 -249 -105 -242 q -131 -268 -131 -257 q -108 -288 -131 -288 q -74 -279 -99 -288 q -15 -253 -49 -271 q 60 -209 19 -236 q 141 -143 101 -182 q 323 121 258 -32 q 388 444 388 274 q 358 652 388 558 q 276 812 329 746 q 200 885 239 861 q 147 910 161 910 "},"Å":{"x_min":-72.234375,"x_max":635,"ha":682,"o":"m 462 1288 q 396 1274 426 1288 q 341 1238 365 1261 q 305 1184 318 1215 q 292 1117 292 1153 q 305 1049 292 1080 q 341 995 318 1018 q 395 959 364 972 q 462 946 426 946 q 530 959 498 946 q 585 995 561 972 q 621 1049 608 1018 q 635 1117 635 1080 q 621 1183 635 1151 q 585 1237 608 1214 q 530 1274 561 1261 q 462 1288 498 1288 m 463 1213 q 531 1184 503 1213 q 559 1115 559 1156 q 531 1047 559 1075 q 463 1020 503 1020 q 394 1047 422 1020 q 367 1115 367 1075 q 394 1184 367 1156 q 463 1213 422 1213 m 480 831 q 472 886 475 871 q 444 901 469 901 q 406 889 419 901 q 373 835 394 877 l 25 130 q -4 91 12 103 q -36 70 -22 78 q -61 53 -51 62 q -72 29 -72 45 q -63 8 -72 13 q -36 4 -54 4 q -4 6 -23 4 q 43 8 15 8 q 100 6 77 8 q 137 4 123 4 l 145 4 q 183 32 183 4 q 169 53 183 47 q 139 66 155 59 q 109 82 123 72 q 95 112 95 91 q 99 134 95 118 q 113 175 102 150 l 165 296 l 375 296 l 394 145 q 397 123 397 132 q 397 112 397 115 q 358 65 397 73 q 320 52 334 61 q 306 20 306 43 q 344 -1 306 -1 q 398 3 358 -1 q 508 8 438 8 q 568 5 547 8 q 595 2 588 2 q 630 33 630 2 q 622 53 630 48 q 605 64 615 58 q 586 83 595 70 q 572 127 576 95 l 480 831 m 331 645 l 365 368 l 195 368 q 259 503 226 434 q 331 645 293 572 "},"ø":{"x_min":3,"x_max":604,"ha":653,"o":"m 495 758 l 434 637 q 393 644 411 641 q 359 647 374 647 q 231 617 294 647 q 116 533 168 587 q 34 406 65 480 q 3 247 3 333 q 32 107 3 171 q 118 4 62 44 l 32 -167 l 93 -167 l 168 -16 q 241 -26 202 -26 q 383 5 316 -26 q 498 91 449 37 q 575 216 547 146 q 604 363 604 286 q 575 511 604 451 q 486 613 547 572 l 556 758 l 495 758 m 404 574 l 170 108 q 168 137 168 123 q 168 165 168 152 q 181 298 168 227 q 224 440 195 369 q 362 593 287 593 q 404 574 380 593 m 434 514 q 439 448 439 476 q 382 178 439 321 q 320 64 351 100 q 247 28 288 28 q 221 32 232 28 q 200 47 211 36 l 434 514 "},"â":{"x_min":-11,"x_max":685.1875,"ha":736,"o":"m 556 656 q 526 653 535 656 q 511 636 518 651 l 500 611 q 404 645 458 645 q 259 599 336 645 q 111 462 183 554 q -11 134 -11 307 q 23 15 -11 58 q 107 -28 58 -28 q 257 48 182 -28 q 421 277 333 124 l 396 157 q 383 95 389 124 q 378 38 378 66 q 393 -5 378 12 q 437 -24 409 -24 q 528 2 480 -24 q 619 82 575 28 q 669 158 654 125 q 685 197 685 191 q 674 216 685 216 q 653 200 664 216 q 631 165 643 184 q 604 131 618 146 q 572 116 590 116 q 558 123 561 116 q 556 149 556 131 q 557 171 556 157 q 562 200 558 185 l 671 604 q 676 629 675 619 q 676 643 676 639 q 644 656 676 656 l 556 656 m 426 596 q 477 529 477 596 q 452 429 477 494 q 374 273 427 365 q 288 146 326 188 q 216 104 251 104 q 172 174 172 104 q 192 281 172 212 q 259 433 212 350 q 426 596 348 596 m 431 956 l 265 718 l 320 718 l 454 840 l 545 718 l 589 718 l 500 956 l 431 956 "},"}":{"x_min":117.59375,"x_max":574.734375,"ha":695,"o":"m 390 793 q 377 904 390 859 q 334 976 364 948 q 252 1016 303 1004 q 124 1028 200 1028 l 117 1028 l 117 989 q 194 979 164 989 q 241 948 224 969 q 263 892 257 926 q 269 809 269 858 l 269 716 q 274 603 269 651 q 298 521 280 555 q 353 464 317 486 q 448 430 388 443 q 353 396 388 418 q 298 341 317 375 q 274 258 280 307 q 269 144 269 210 l 269 51 q 263 -30 269 3 q 241 -85 257 -64 q 194 -116 224 -106 q 117 -126 164 -126 l 117 -165 l 124 -165 q 252 -153 200 -165 q 334 -113 303 -141 q 377 -41 364 -85 q 390 69 390 2 l 390 205 q 397 294 390 258 q 426 354 405 330 q 483 391 446 378 q 574 408 519 403 l 574 454 q 483 472 519 459 q 426 507 446 484 q 397 567 405 530 q 390 656 390 604 l 390 793 "},"‰":{"x_min":36,"x_max":1185,"ha":1235,"o":"m 36 629 q 75 495 36 544 q 181 446 115 446 q 264 466 224 446 q 335 524 305 487 q 382 609 364 561 q 401 713 401 658 q 360 852 401 803 q 249 901 319 901 q 167 879 206 901 q 99 821 128 858 q 53 734 70 784 q 36 629 36 684 m 648 900 l 86 -26 l 148 -26 l 712 900 l 648 900 m 256 866 q 308 767 308 866 q 296 664 308 714 q 267 573 285 613 q 227 509 249 533 q 183 485 205 485 q 132 573 132 485 q 144 683 132 630 q 175 776 156 735 q 215 841 194 817 q 256 866 237 866 m 397 156 q 436 22 397 72 q 542 -28 476 -28 q 625 -7 585 -28 q 696 50 666 13 q 743 135 725 87 q 762 240 762 184 q 720 379 762 330 q 609 429 678 429 q 528 407 566 429 q 460 349 489 385 q 414 262 431 312 q 397 156 397 212 m 820 155 q 860 22 820 72 q 967 -28 900 -28 q 1049 -7 1010 -28 q 1119 50 1089 13 q 1167 135 1150 87 q 1185 240 1185 184 q 1144 379 1185 330 q 1033 429 1104 429 q 951 407 990 429 q 883 349 912 385 q 837 262 854 312 q 820 155 820 212 m 615 391 q 653 366 638 391 q 668 300 668 341 q 656 189 668 242 q 626 96 644 137 q 585 31 608 55 q 542 8 563 8 q 491 98 491 8 q 502 207 491 155 q 533 301 514 260 q 573 366 552 342 q 615 391 595 391 m 1039 391 q 1077 366 1063 391 q 1091 300 1091 341 q 1079 189 1091 242 q 1049 96 1067 137 q 1008 31 1031 55 q 965 8 986 8 q 914 98 914 8 q 926 207 914 155 q 957 301 939 260 q 998 366 976 342 q 1039 391 1019 391 "},"Ä":{"x_min":-72.234375,"x_max":673,"ha":682,"o":"m 480 831 q 472 886 475 871 q 444 901 469 901 q 406 889 419 901 q 373 835 394 877 l 25 130 q -4 91 12 103 q -36 70 -22 78 q -61 53 -51 62 q -72 29 -72 45 q -63 8 -72 13 q -36 4 -54 4 q -4 6 -23 4 q 43 8 15 8 q 100 6 77 8 q 137 4 123 4 l 145 4 q 183 32 183 4 q 169 53 183 47 q 139 66 155 59 q 109 82 123 72 q 95 112 95 91 q 99 134 95 118 q 113 175 102 150 l 165 296 l 375 296 l 394 145 q 397 123 397 132 q 397 112 397 115 q 358 65 397 73 q 320 52 334 61 q 306 20 306 43 q 344 -1 306 -1 q 398 3 358 -1 q 508 8 438 8 q 568 5 547 8 q 595 2 588 2 q 630 33 630 2 q 622 53 630 48 q 605 64 615 58 q 586 83 595 70 q 572 127 576 95 l 480 831 m 331 645 l 365 368 l 195 368 q 259 503 226 434 q 331 645 293 572 m 590 1167 q 534 1141 558 1167 q 510 1086 510 1116 q 534 1027 510 1051 q 590 1003 558 1003 q 649 1026 625 1003 q 673 1086 673 1050 q 648 1142 673 1118 q 590 1167 624 1167 m 363 1167 q 306 1141 331 1167 q 281 1086 281 1116 q 306 1027 281 1051 q 363 1003 331 1003 q 421 1026 397 1003 q 445 1086 445 1050 q 420 1142 445 1118 q 363 1167 396 1167 "},"¸":{"x_min":103.8125,"x_max":394,"ha":695,"o":"m 238 0 l 202 -138 q 251 -130 231 -130 q 308 -184 308 -130 q 255 -245 308 -245 q 191 -231 221 -245 q 124 -194 160 -218 l 103 -254 q 191 -294 152 -279 q 269 -310 230 -310 q 360 -277 327 -310 q 394 -188 394 -245 q 366 -104 394 -136 q 296 -72 338 -72 q 280 -73 289 -72 q 256 -77 270 -74 l 276 0 l 238 0 "},"a":{"x_min":-11,"x_max":685.1875,"ha":736,"o":"m 556 656 q 526 653 535 656 q 511 636 518 651 l 500 611 q 404 645 458 645 q 259 599 336 645 q 111 462 183 554 q -11 134 -11 307 q 23 15 -11 58 q 107 -28 58 -28 q 257 48 182 -28 q 421 277 333 124 l 396 157 q 383 95 389 124 q 378 38 378 66 q 393 -5 378 12 q 437 -24 409 -24 q 528 2 480 -24 q 619 82 575 28 q 669 158 654 125 q 685 197 685 191 q 674 216 685 216 q 653 200 664 216 q 631 165 643 184 q 604 131 618 146 q 572 116 590 116 q 558 123 561 116 q 556 149 556 131 q 557 171 556 157 q 562 200 558 185 l 671 604 q 676 629 675 619 q 676 643 676 639 q 644 656 676 656 l 556 656 m 426 596 q 477 529 477 596 q 452 429 477 494 q 374 273 427 365 q 288 146 326 188 q 216 104 251 104 q 172 174 172 104 q 192 281 172 212 q 259 433 212 350 q 426 596 348 596 "},"—":{"x_min":-56.953125,"x_max":929.234375,"ha":917,"o":"m 918 375 l 0 375 q -13 369 -6 375 q -22 356 -19 363 l -55 259 q -56 249 -56 255 q -45 243 -56 243 l 872 243 q 894 261 887 243 l 927 356 q 929 366 929 361 q 918 375 929 375 "},"=":{"x_min":172,"x_max":985,"ha":1157,"o":"m 985 611 l 172 611 l 172 497 l 985 497 l 985 611 m 985 331 l 172 331 l 172 218 l 985 218 l 985 331 "},"N":{"x_min":-70.84375,"x_max":852.84375,"ha":779,"o":"m 359 875 q 291 870 318 870 q 206 874 240 870 q 155 879 172 879 q 131 872 140 879 q 123 847 123 866 q 134 825 123 830 q 157 816 144 820 q 181 804 170 812 q 191 776 191 797 q 186 733 191 753 l 44 144 q -5 66 27 76 q -53 52 -36 56 q -70 26 -70 48 q -40 -4 -70 -4 q 0 -1 -26 -4 q 63 1 25 1 q 128 0 105 1 q 156 -3 151 -3 q 186 26 186 -3 q 170 50 186 48 q 130 56 155 52 q 98 103 98 63 q 102 133 98 105 q 113 212 105 162 q 136 333 122 262 q 175 490 151 404 l 230 697 l 488 19 q 505 -12 495 0 q 531 -23 515 -23 q 557 -14 548 -23 q 572 15 566 -5 q 585 72 579 37 q 602 158 591 106 q 732 724 687 566 q 754 782 743 761 q 790 811 766 804 q 817 817 805 815 q 836 822 829 819 q 848 832 844 826 q 852 850 852 838 q 819 875 852 875 q 778 871 807 875 q 705 868 750 868 q 654 870 675 868 q 623 873 634 873 q 595 845 595 873 q 610 824 595 825 q 650 819 625 823 q 684 776 684 812 q 659 631 684 751 q 576 298 634 512 q 464 580 518 437 q 359 875 411 723 "},"˚":{"x_min":290,"x_max":633,"ha":695,"o":"m 290 880 q 303 812 290 844 q 339 757 316 781 q 394 721 363 734 q 460 708 424 708 q 528 721 496 708 q 583 757 559 734 q 619 812 606 781 q 633 880 633 844 q 619 947 633 916 q 583 1001 606 978 q 529 1037 560 1024 q 462 1051 498 1051 q 394 1037 426 1051 q 339 1001 363 1024 q 303 947 316 978 q 290 880 290 916 m 365 878 q 393 947 365 919 q 462 976 421 976 q 530 947 502 976 q 558 878 558 919 q 530 810 558 838 q 462 783 502 783 q 393 810 421 783 q 365 878 365 838 "},"ú":{"x_min":15.109375,"x_max":649.0625,"ha":718,"o":"m 281 404 q 305 488 297 452 q 313 551 313 524 q 234 640 313 640 q 154 617 195 640 q 74 548 113 594 q 29 482 42 510 q 15 443 15 453 q 26 427 15 427 q 47 443 35 427 q 72 478 59 459 q 100 514 85 498 q 131 530 115 530 q 141 513 141 530 q 140 498 141 507 q 135 480 138 489 l 51 198 q 35 140 41 168 q 29 84 29 112 q 51 5 29 33 q 112 -22 73 -22 q 252 53 174 -22 q 413 283 330 128 l 391 203 q 372 115 377 153 q 368 64 368 78 q 434 -24 368 -24 q 583 71 507 -24 q 633 145 618 116 q 649 188 649 175 q 637 204 649 204 q 616 188 626 204 q 594 151 606 171 q 569 114 582 131 q 542 98 556 98 q 531 121 531 98 q 535 156 531 128 q 550 228 539 184 l 639 580 q 646 607 646 605 q 641 613 646 610 q 631 617 636 617 l 517 617 q 489 605 497 617 q 476 567 482 593 q 459 500 469 541 q 425 398 448 458 q 366 278 398 332 q 305 189 334 225 q 252 133 276 152 q 220 114 229 114 q 208 119 213 114 q 204 132 204 125 q 208 166 204 147 q 222 213 213 186 l 281 404 m 564 842 q 602 903 602 868 q 588 945 602 928 q 557 963 574 963 q 496 924 528 963 l 328 718 l 386 718 l 564 842 "},"2":{"x_min":-50.140625,"x_max":597,"ha":651,"o":"m 138 172 q 235 263 187 224 q 325 331 283 302 q 404 383 367 361 q 465 426 440 405 q 597 675 597 529 q 534 834 597 774 q 367 895 472 895 q 257 872 309 895 q 165 804 205 849 q 136 768 148 786 q 116 732 124 749 q 104 703 108 716 q 101 685 101 691 q 116 666 101 666 q 140 685 129 666 q 173 738 151 704 q 235 801 201 779 q 305 823 270 823 q 382 788 354 823 q 411 686 411 753 q 394 583 411 633 q 345 483 377 533 q 266 378 312 432 q 162 266 220 325 q 4 102 58 161 q -50 19 -50 44 q -18 -3 -50 -3 q 16 0 -4 -3 q 65 1 37 1 l 405 1 q 415 0 408 1 q 435 0 423 0 q 459 11 454 0 q 469 40 465 23 l 502 178 q 513 235 513 226 q 508 248 513 242 q 497 253 502 253 q 479 241 485 253 q 463 212 473 228 q 437 184 454 197 q 387 172 420 172 l 138 172 "},"ü":{"x_min":15.109375,"x_max":649.0625,"ha":718,"o":"m 281 404 q 305 488 297 452 q 313 551 313 524 q 234 640 313 640 q 154 617 195 640 q 74 548 113 594 q 29 482 42 510 q 15 443 15 453 q 26 427 15 427 q 47 443 35 427 q 72 478 59 459 q 100 514 85 498 q 131 530 115 530 q 141 513 141 530 q 140 498 141 507 q 135 480 138 489 l 51 198 q 35 140 41 168 q 29 84 29 112 q 51 5 29 33 q 112 -22 73 -22 q 252 53 174 -22 q 413 283 330 128 l 391 203 q 372 115 377 153 q 368 64 368 78 q 434 -24 368 -24 q 583 71 507 -24 q 633 145 618 116 q 649 188 649 175 q 637 204 649 204 q 616 188 626 204 q 594 151 606 171 q 569 114 582 131 q 542 98 556 98 q 531 121 531 98 q 535 156 531 128 q 550 228 539 184 l 639 580 q 646 607 646 605 q 641 613 646 610 q 631 617 636 617 l 517 617 q 489 605 497 617 q 476 567 482 593 q 459 500 469 541 q 425 398 448 458 q 366 278 398 332 q 305 189 334 225 q 252 133 276 152 q 220 114 229 114 q 208 119 213 114 q 204 132 204 125 q 208 166 204 147 q 222 213 213 186 l 281 404 m 557 911 q 501 885 525 911 q 477 830 477 860 q 501 771 477 795 q 557 747 525 747 q 616 770 592 747 q 640 830 640 794 q 615 886 640 862 q 557 911 591 911 m 330 911 q 273 885 298 911 q 248 830 248 860 q 273 771 248 795 q 330 747 298 747 q 388 770 364 747 q 412 830 412 794 q 387 886 412 862 q 330 911 363 911 "},"¯":{"x_min":272,"x_max":590,"ha":695,"o":"m 290 879 l 272 779 l 571 779 l 590 879 l 290 879 "},"Z":{"x_min":-63.890625,"x_max":720.890625,"ha":664,"o":"m 173 877 q 149 870 156 877 q 137 848 141 863 l 105 723 q 100 688 100 699 q 119 664 100 664 q 147 689 136 664 q 181 749 158 713 q 211 785 195 771 q 248 804 227 798 q 297 812 269 810 q 362 815 325 815 q 425 813 394 815 q 484 809 455 812 l -43 66 q -57 45 -51 55 q -63 22 -63 36 q -41 0 -63 0 q 45 5 -33 0 q 297 11 123 11 q 466 5 405 11 q 543 0 527 0 q 575 5 569 0 q 584 31 581 11 l 600 123 q 611 181 607 159 q 615 210 615 203 q 590 241 615 241 q 572 232 579 241 q 559 209 565 223 q 545 178 552 195 q 525 146 537 162 q 441 86 490 103 q 319 69 391 69 q 264 71 300 69 q 175 75 229 73 l 713 837 q 720 855 720 847 q 715 868 720 862 q 702 875 709 875 l 672 875 q 605 872 652 875 q 480 870 558 870 q 310 874 375 870 q 220 877 245 877 l 173 877 "},"u":{"x_min":15.109375,"x_max":649.0625,"ha":718,"o":"m 281 404 q 305 488 297 452 q 313 551 313 524 q 234 640 313 640 q 154 617 195 640 q 74 548 113 594 q 29 482 42 510 q 15 443 15 453 q 26 427 15 427 q 47 443 35 427 q 72 478 59 459 q 100 514 85 498 q 131 530 115 530 q 141 513 141 530 q 140 498 141 507 q 135 480 138 489 l 51 198 q 35 140 41 168 q 29 84 29 112 q 51 5 29 33 q 112 -22 73 -22 q 252 53 174 -22 q 413 283 330 128 l 391 203 q 372 115 377 153 q 368 64 368 78 q 434 -24 368 -24 q 583 71 507 -24 q 633 145 618 116 q 649 188 649 175 q 637 204 649 204 q 616 188 626 204 q 594 151 606 171 q 569 114 582 131 q 542 98 556 98 q 531 121 531 98 q 535 156 531 128 q 550 228 539 184 l 639 580 q 646 607 646 605 q 641 613 646 610 q 631 617 636 617 l 517 617 q 489 605 497 617 q 476 567 482 593 q 459 500 469 541 q 425 398 448 458 q 366 278 398 332 q 305 189 334 225 q 252 133 276 152 q 220 114 229 114 q 208 119 213 114 q 204 132 204 125 q 208 166 204 147 q 222 213 213 186 l 281 404 "},"˜":{"x_min":275,"x_max":588,"ha":695,"o":"m 551 925 q 496 869 540 869 q 462 876 487 869 l 415 891 q 383 897 400 897 q 314 856 343 897 q 275 733 286 815 l 311 733 q 329 780 318 765 q 364 796 341 796 q 376 794 369 796 q 391 790 383 793 l 448 772 q 479 768 465 768 q 548 807 519 768 q 588 925 576 846 l 551 925 "},"Ó":{"x_min":30,"x_max":815,"ha":851,"o":"m 469 901 q 303 862 382 901 q 162 757 223 824 q 66 596 102 689 q 30 392 30 502 q 55 216 30 295 q 126 83 81 138 q 233 -1 171 28 q 369 -31 295 -31 q 677 114 546 -31 q 815 481 815 267 q 788 652 815 574 q 715 785 762 730 q 605 870 669 839 q 469 901 542 901 m 632 599 q 627 508 632 556 q 613 410 622 459 q 591 313 604 360 q 562 223 579 265 q 471 77 526 126 q 359 29 416 29 q 251 92 291 29 q 211 277 211 155 q 234 494 211 385 q 298 698 258 604 q 380 813 331 773 q 481 854 429 854 q 591 790 551 854 q 632 599 632 726 m 682 1098 q 720 1159 720 1124 q 706 1201 720 1184 q 675 1219 692 1219 q 614 1180 646 1219 l 446 974 l 504 974 l 682 1098 "},"k":{"x_min":-38.890625,"x_max":632,"ha":668,"o":"m 351 879 q 368 937 362 917 q 375 964 375 958 q 370 976 375 971 q 359 981 365 981 q 338 973 352 981 q 299 956 325 965 q 234 940 273 947 q 140 932 195 932 q 107 928 119 932 q 95 900 95 924 q 106 885 95 889 q 129 876 116 880 q 153 867 143 872 q 163 849 163 861 q 152 786 163 828 l -34 36 q -38 12 -38 20 q -16 0 -38 0 l 77 0 q 115 9 104 0 q 133 43 126 19 l 194 264 l 208 264 q 287 44 231 118 q 420 -29 343 -29 q 487 -15 455 -29 q 543 20 519 -2 q 581 74 568 43 q 595 143 595 106 q 575 211 595 186 q 529 236 555 236 q 492 220 506 236 q 477 176 477 203 q 486 144 477 156 q 504 124 494 132 q 523 107 515 115 q 531 85 531 99 q 521 57 531 70 q 497 45 511 45 q 459 73 472 45 q 423 157 447 101 q 406 195 415 178 q 388 228 398 213 q 362 256 377 243 q 325 278 347 268 q 554 364 476 297 q 632 522 632 431 q 597 621 632 586 q 504 656 563 656 q 368 605 431 656 q 234 451 305 554 l 351 879 m 205 303 q 317 496 260 433 q 412 560 374 560 q 439 545 428 560 q 451 507 451 530 q 432 434 451 471 q 383 369 414 398 q 309 321 352 340 q 217 303 266 303 l 205 303 "},"ˇ":{"x_min":289,"x_max":613,"ha":695,"o":"m 289 956 l 378 718 l 447 718 l 613 956 l 557 956 l 423 833 l 333 956 l 289 956 "},"Ù":{"x_min":60,"x_max":865.9375,"ha":788,"o":"m 732 647 q 758 748 747 709 q 792 801 768 787 q 816 809 803 808 q 840 813 829 810 q 858 823 852 816 q 865 847 865 830 q 835 875 865 875 q 801 871 818 875 q 764 868 783 868 q 683 870 714 868 q 639 873 652 873 q 607 847 607 873 q 611 828 607 834 q 623 819 615 822 q 641 817 631 817 q 664 813 652 816 q 700 770 700 804 q 695 733 700 756 q 683 676 690 709 l 604 326 q 517 111 572 185 q 363 37 461 37 q 262 74 297 37 q 227 181 227 111 q 234 252 227 208 q 257 358 242 296 l 349 730 q 372 788 360 772 q 418 810 385 805 q 458 819 443 815 q 472 847 472 823 q 438 875 472 875 q 392 869 431 875 q 279 863 354 863 q 178 868 211 863 q 139 872 144 872 q 105 841 105 872 q 117 820 105 825 q 141 811 128 815 q 165 798 154 806 q 176 765 176 790 q 174 734 176 758 q 161 673 171 709 l 94 411 q 69 303 79 353 q 60 208 60 253 q 129 34 60 94 q 332 -26 199 -26 q 463 -3 410 -26 q 552 62 515 18 q 613 174 588 107 q 658 332 638 241 l 732 647 m 480 1178 q 426 1219 454 1219 q 394 1203 408 1219 q 381 1160 381 1188 q 390 1132 381 1145 q 415 1104 400 1119 l 557 974 l 614 974 l 480 1178 "},"Ÿ":{"x_min":15,"x_max":740,"ha":599,"o":"m 294 731 q 288 758 291 746 q 285 778 285 770 q 297 810 285 802 q 324 822 309 819 q 350 831 338 826 q 362 854 362 837 q 355 874 362 869 q 334 879 349 879 q 299 875 324 879 q 231 872 274 872 q 96 877 142 872 q 42 883 51 883 q 15 856 15 883 q 30 828 15 833 q 58 817 46 823 q 84 793 80 808 q 94 759 88 778 l 184 417 q 190 394 187 404 q 192 376 192 385 q 192 365 192 372 q 190 348 192 358 l 167 223 q 143 117 156 155 q 109 69 130 80 q 82 60 96 62 q 54 56 67 59 q 32 46 41 53 q 23 23 23 39 q 56 -6 23 -6 q 103 0 69 -6 q 196 6 137 6 q 314 1 271 6 q 369 -3 356 -3 q 398 24 398 -3 q 387 48 398 46 q 359 53 377 51 q 328 68 340 56 q 317 92 317 80 q 321 125 317 109 q 328 159 326 141 l 377 399 l 460 527 q 574 696 528 631 q 648 784 620 760 q 680 804 663 798 q 710 816 696 810 q 731 829 723 822 q 740 852 740 837 q 710 873 740 873 q 680 870 701 873 q 626 868 659 868 q 546 871 576 868 q 508 875 517 875 q 477 849 477 875 q 489 827 477 833 q 514 819 501 822 q 539 809 527 816 q 551 784 551 802 q 535 743 551 769 q 495 677 520 717 l 359 454 l 294 731 m 548 1167 q 492 1141 516 1167 q 468 1086 468 1116 q 492 1027 468 1051 q 548 1003 516 1003 q 607 1026 583 1003 q 631 1086 631 1050 q 606 1142 631 1118 q 548 1167 582 1167 m 321 1167 q 264 1141 289 1167 q 239 1086 239 1116 q 264 1027 239 1051 q 321 1003 289 1003 q 379 1026 355 1003 q 403 1086 403 1050 q 378 1142 403 1118 q 321 1167 354 1167 "},"¢":{"x_min":108,"x_max":517.796875,"ha":651,"o":"m 395 875 l 356 703 q 253 653 299 686 q 175 577 208 621 q 125 482 142 533 q 108 375 108 430 q 142 248 108 296 q 238 192 176 201 l 195 0 l 240 0 l 281 192 q 364 219 327 197 q 426 265 401 240 q 465 315 451 290 q 478 350 478 339 q 467 363 478 363 q 447 348 460 363 q 416 316 434 333 q 376 284 398 299 q 328 270 353 270 q 299 274 312 270 l 387 648 q 403 617 396 633 q 416 589 409 602 q 433 569 423 577 q 463 562 444 562 q 503 578 488 562 q 517 623 517 595 q 489 684 517 659 q 420 709 460 709 l 401 709 l 438 875 l 395 875 m 345 653 l 265 302 q 240 397 240 341 q 247 462 240 427 q 268 531 255 497 q 301 596 281 565 q 345 653 320 628 "},"ß":{"x_min":-285.234375,"x_max":772,"ha":746,"o":"m 563 440 q 516 500 534 474 q 498 552 498 527 q 507 581 498 571 q 533 598 517 592 q 572 608 550 604 q 621 620 594 613 q 733 686 695 639 q 772 799 772 732 q 717 919 772 875 q 557 963 662 963 q 139 617 231 963 l 98 617 q 59 610 71 617 q 46 576 46 604 q 51 561 46 564 q 67 559 56 559 l 124 559 l -11 1 q -113 -243 -69 -243 q -139 -199 -139 -243 q -138 -180 -139 -191 q -138 -155 -138 -169 q -158 -96 -138 -119 q -207 -73 -178 -73 q -262 -100 -239 -73 q -285 -170 -285 -127 q -247 -264 -285 -229 q -140 -300 -210 -300 q 188 127 81 -300 l 313 633 q 499 906 380 906 q 566 875 539 906 q 594 792 594 845 q 585 729 594 754 q 558 685 576 703 q 516 655 541 667 q 459 635 491 644 q 366 589 398 619 q 335 499 335 560 q 360 411 335 452 q 427 318 386 370 l 473 255 q 511 187 498 222 q 525 125 525 153 q 507 63 525 85 q 466 41 490 41 q 420 67 444 41 q 363 145 395 93 q 320 210 336 189 q 288 231 304 231 q 248 131 248 231 q 299 23 248 59 q 444 -13 351 -13 q 540 3 497 -13 q 614 50 584 20 q 661 123 644 81 q 678 216 678 166 q 615 379 678 306 l 563 440 "},"é":{"x_min":1,"x_max":570,"ha":606,"o":"m 189 309 q 273 524 222 452 q 368 597 324 597 q 395 580 385 597 q 406 535 406 563 q 390 453 406 494 q 346 381 375 413 q 280 328 318 348 q 196 309 242 309 l 189 309 m 180 255 q 352 285 279 267 q 474 329 426 302 q 546 396 522 356 q 570 494 570 435 q 526 605 570 563 q 406 647 483 647 q 277 620 341 647 q 154 544 212 594 q 40 392 80 478 q 1 212 1 305 q 58 33 1 98 q 204 -31 115 -31 q 335 1 270 -31 q 451 96 399 34 q 497 177 497 152 q 481 195 497 195 q 462 183 472 195 q 434 151 452 170 q 358 86 395 108 q 290 65 320 65 q 208 105 238 65 q 179 220 179 145 q 179 237 179 228 q 180 255 179 245 m 508 842 q 546 903 546 868 q 532 945 546 928 q 501 963 518 963 q 440 924 472 963 l 272 718 l 330 718 l 508 842 "},"s":{"x_min":-30.53125,"x_max":468.125,"ha":492,"o":"m 295 395 q 233 473 255 440 q 212 543 212 507 q 257 596 212 596 q 305 570 282 596 q 363 500 329 544 q 397 458 383 473 q 429 443 412 443 q 468 557 468 443 q 416 622 468 598 q 282 646 365 646 q 115 597 177 646 q 54 466 54 548 q 80 367 54 411 q 151 275 106 323 l 201 220 q 243 158 229 188 q 257 101 257 127 q 240 45 257 66 q 200 25 223 25 q 88 131 159 25 q 44 192 61 172 q 12 212 27 212 q -20 189 -11 212 q -30 115 -30 166 q 22 10 -30 45 q 175 -25 76 -25 q 275 -7 230 -25 q 350 38 319 9 q 399 106 382 68 q 417 187 417 144 q 399 267 417 232 q 348 338 382 302 l 295 395 "},"B":{"x_min":-64.890625,"x_max":707,"ha":733,"o":"m 303 506 q 332 658 317 584 q 367 802 348 732 q 435 811 414 811 q 526 710 526 811 q 512 624 526 663 q 474 559 498 586 q 419 517 450 532 q 352 502 388 502 q 303 506 334 502 m 443 481 q 637 544 567 482 q 707 700 707 606 q 659 830 707 786 q 515 875 611 875 q 428 872 468 875 q 355 869 389 869 q 208 875 260 869 q 149 881 157 881 q 124 875 132 881 q 117 852 117 869 q 128 827 117 829 q 158 818 139 825 q 186 773 186 807 q 183 739 186 762 q 171 680 179 715 l 49 141 q 26 84 39 101 q -17 59 14 66 q -52 50 -39 55 q -64 23 -64 45 q -28 -5 -64 -5 q 19 1 -13 -5 q 110 8 53 8 q 235 2 171 8 q 365 -4 299 -4 q 582 63 508 -4 q 656 255 656 131 q 443 471 656 463 l 443 481 m 229 161 l 289 436 q 321 440 308 439 q 343 442 334 442 q 437 402 404 442 q 471 284 471 362 q 457 190 471 233 q 420 116 444 147 q 363 67 395 84 q 293 50 330 50 q 219 104 219 50 q 222 129 219 115 q 229 161 225 144 "},"…":{"x_min":58,"x_max":1149,"ha":1389,"o":"m 58 72 q 78 8 58 32 q 131 -15 99 -15 q 195 16 169 -15 q 222 100 222 48 q 201 163 222 140 q 149 186 181 186 q 85 154 112 186 q 58 72 58 122 m 521 72 q 541 8 521 32 q 594 -15 562 -15 q 658 16 632 -15 q 685 100 685 48 q 664 163 685 140 q 612 186 644 186 q 548 154 575 186 q 521 72 521 122 m 985 72 q 1005 8 985 32 q 1058 -15 1026 -15 q 1122 16 1096 -15 q 1149 100 1149 48 q 1128 163 1149 140 q 1076 186 1108 186 q 1012 154 1039 186 q 985 72 985 122 "},"?":{"x_min":22,"x_max":451,"ha":425,"o":"m 109 267 l 109 255 q 127 229 109 229 q 143 241 140 229 q 153 272 147 254 q 172 315 159 291 q 216 361 184 338 q 254 386 233 373 q 298 413 276 398 q 344 450 320 429 q 388 501 367 472 q 435 592 420 544 q 451 690 451 640 q 436 778 451 739 q 397 846 421 818 q 340 890 372 875 q 273 906 308 906 q 147 865 191 906 q 102 761 102 825 q 113 729 102 741 q 137 716 123 716 q 177 730 160 716 q 216 770 194 744 q 265 825 244 804 q 309 846 286 846 q 345 827 330 846 q 361 780 361 809 q 322 675 361 719 q 213 587 284 630 q 176 564 190 573 q 154 543 162 555 q 140 509 145 530 q 131 449 135 488 l 109 267 m 112 187 q 49 154 76 187 q 22 71 22 121 q 40 5 22 28 q 92 -17 59 -17 q 155 13 129 -17 q 182 94 182 44 q 162 162 182 138 q 112 187 143 187 "},"H":{"x_min":-75,"x_max":915.34375,"ha":871,"o":"m 800 680 q 822 767 811 737 q 858 806 834 797 q 878 811 868 811 q 897 815 888 812 q 910 826 905 819 q 915 848 915 833 q 884 875 915 875 q 839 868 873 875 q 743 862 805 862 q 644 867 682 862 q 590 872 607 872 q 568 866 575 872 q 561 845 561 861 q 573 820 561 822 q 608 812 586 818 q 640 770 640 805 q 632 712 640 754 l 583 488 l 302 488 l 358 730 q 381 789 368 772 q 427 810 395 806 q 468 819 452 815 q 483 847 483 823 q 445 875 483 875 q 396 868 434 875 q 288 862 358 862 q 190 867 225 862 q 148 872 155 872 q 124 865 131 872 q 116 843 116 859 q 119 826 116 831 q 127 818 122 820 q 140 815 133 816 q 158 809 148 813 q 186 765 186 798 q 182 731 186 754 q 170 673 179 708 l 48 139 q 25 81 38 98 q -20 59 11 64 q -59 50 -44 55 q -75 23 -75 46 q -38 -6 -75 -6 q 7 0 -25 -6 q 97 7 40 7 q 210 2 166 7 q 270 -3 254 -3 q 300 24 300 -3 q 295 42 300 37 q 285 50 291 48 q 270 52 279 52 q 252 55 262 52 q 218 98 218 64 q 218 106 218 102 q 220 116 219 110 l 288 428 l 570 428 l 509 140 q 486 80 500 96 q 440 59 472 64 q 400 51 415 55 q 384 23 384 46 q 422 -6 384 -6 q 473 0 434 -6 q 579 7 512 7 q 674 3 638 7 q 722 -1 709 -1 q 746 3 738 -1 q 754 24 754 7 q 743 46 754 41 q 718 55 732 50 q 693 65 704 59 q 682 91 682 71 q 684 123 682 98 q 697 192 687 149 l 800 680 "},"î":{"x_min":14,"x_max":422,"ha":399,"o":"m 294 397 q 320 485 309 446 q 331 558 331 524 q 254 645 331 645 q 81 559 158 645 q 30 491 47 522 q 14 446 14 461 q 22 432 14 432 q 47 448 38 432 q 73 490 55 465 q 115 537 97 522 q 147 553 134 553 q 156 532 156 553 q 152 504 156 518 l 63 224 q 36 139 48 179 q 25 63 25 99 q 105 -24 25 -24 q 281 81 197 -24 q 331 155 316 123 q 347 198 347 187 q 335 216 347 216 q 311 197 323 216 q 286 156 299 178 q 257 115 273 134 q 222 97 241 97 q 209 119 209 97 q 226 190 209 141 l 294 397 m 264 956 l 98 718 l 153 718 l 287 840 l 378 718 l 422 718 l 333 956 l 264 956 "},"c":{"x_min":2,"x_max":550.3125,"ha":560,"o":"m 391 651 q 328 641 362 651 q 257 615 293 632 q 187 573 222 598 q 124 516 153 548 q 33 374 64 452 q 2 215 2 296 q 58 36 2 101 q 204 -28 115 -28 q 335 4 271 -28 q 451 99 400 37 q 497 180 497 155 q 482 198 497 198 q 465 189 473 198 q 441 164 457 180 q 365 98 400 121 q 294 76 330 76 q 215 115 246 76 q 185 226 185 155 q 204 367 185 301 q 249 482 223 433 q 302 560 275 531 q 344 590 329 590 q 373 572 366 590 q 390 531 379 555 q 427 476 410 494 q 476 459 444 459 q 530 481 510 459 q 550 538 550 503 q 509 619 550 587 q 391 651 468 651 "},"¶":{"x_min":36.984375,"x_max":657.171875,"ha":695,"o":"m 657 936 l 657 1003 l 302 1003 q 191 985 241 1003 q 107 937 142 968 q 55 861 73 905 q 36 766 36 818 q 103 601 36 666 q 287 532 170 536 l 287 0 l 375 0 l 375 936 l 490 936 l 490 0 l 578 0 l 578 936 l 657 936 "},"−":{"x_min":172,"x_max":985,"ha":1157,"o":"m 985 472 l 172 472 l 172 357 l 985 357 l 985 472 "},"•":{"x_min":209,"x_max":610,"ha":820,"o":"m 209 517 q 224 438 209 475 q 266 374 239 402 q 330 331 293 347 q 408 316 367 316 q 487 331 450 316 q 551 375 523 347 q 594 439 578 403 q 610 517 610 475 q 594 594 610 558 q 551 658 578 630 q 487 701 523 685 q 410 717 451 717 q 331 701 368 717 q 267 658 295 685 q 224 594 240 630 q 209 517 209 558 "},"¥":{"x_min":-2.78125,"x_max":797.28125,"ha":722,"o":"m 347 730 q 341 757 344 745 q 338 779 338 769 q 350 810 338 802 q 376 822 362 817 q 402 831 390 826 q 413 852 413 836 q 407 872 413 868 q 386 877 401 877 q 351 873 375 877 q 288 869 327 869 q 175 875 216 869 q 120 882 133 882 q 94 852 94 882 q 109 827 94 831 q 136 816 125 822 q 163 791 158 805 q 173 758 168 777 l 212 605 l 41 605 l 29 547 l 227 547 l 251 457 l 8 457 l -2 399 l 265 399 q 268 375 268 385 q 268 364 268 371 q 265 348 268 357 l 240 223 q 216 118 227 156 q 183 69 205 80 q 155 60 170 62 q 127 56 140 59 q 106 46 115 53 q 97 23 97 39 q 130 -6 97 -6 q 177 0 141 -6 q 276 6 212 6 q 375 1 337 6 q 427 -3 412 -3 q 456 24 456 -3 q 445 48 456 46 q 416 53 434 51 q 386 68 397 56 q 375 92 375 80 q 378 124 375 108 q 386 159 381 140 l 434 399 l 698 399 l 711 457 l 473 457 l 531 547 l 729 547 l 743 605 l 570 605 q 661 733 623 684 q 729 799 698 783 q 750 808 738 805 q 772 815 762 811 q 790 828 783 820 q 797 851 797 836 q 768 872 797 872 q 737 869 758 872 q 684 866 716 866 q 610 870 638 866 q 570 873 581 873 q 540 848 540 873 q 552 826 540 831 q 577 817 563 820 q 602 808 590 815 q 613 783 613 801 q 598 742 613 767 q 558 675 583 716 l 415 442 l 347 730 "},"(":{"x_min":42,"x_max":563.09375,"ha":465,"o":"m 536 910 q 505 901 529 910 q 445 875 481 893 q 368 830 410 858 q 286 764 326 802 q 105 500 169 652 q 42 177 42 347 q 74 -43 42 55 q 165 -207 107 -142 q 236 -268 203 -249 q 282 -288 270 -288 q 303 -269 303 -288 q 285 -238 303 -250 q 247 -203 267 -226 q 195 27 195 -137 q 211 202 195 102 q 265 429 228 302 q 326 600 293 525 q 397 733 358 676 q 461 807 431 782 q 513 848 490 833 q 549 870 536 862 q 563 890 563 878 q 536 910 563 910 "},"U":{"x_min":60,"x_max":865.9375,"ha":788,"o":"m 732 647 q 758 748 747 709 q 792 801 768 787 q 816 809 803 808 q 840 813 829 810 q 858 823 852 816 q 865 847 865 830 q 835 875 865 875 q 801 871 818 875 q 764 868 783 868 q 683 870 714 868 q 639 873 652 873 q 607 847 607 873 q 611 828 607 834 q 623 819 615 822 q 641 817 631 817 q 664 813 652 816 q 700 770 700 804 q 695 733 700 756 q 683 676 690 709 l 604 326 q 517 111 572 185 q 363 37 461 37 q 262 74 297 37 q 227 181 227 111 q 234 252 227 208 q 257 358 242 296 l 349 730 q 372 788 360 772 q 418 810 385 805 q 458 819 443 815 q 472 847 472 823 q 438 875 472 875 q 392 869 431 875 q 279 863 354 863 q 178 868 211 863 q 139 872 144 872 q 105 841 105 872 q 117 820 105 825 q 141 811 128 815 q 165 798 154 806 q 176 765 176 790 q 174 734 176 758 q 161 673 171 709 l 94 411 q 69 303 79 353 q 60 208 60 253 q 129 34 60 94 q 332 -26 199 -26 q 463 -3 410 -26 q 552 62 515 18 q 613 174 588 107 q 658 332 638 241 l 732 647 "},"Ñ":{"x_min":-70.84375,"x_max":852.84375,"ha":779,"o":"m 359 875 q 291 870 318 870 q 206 874 240 870 q 155 879 172 879 q 131 872 140 879 q 123 847 123 866 q 134 825 123 830 q 157 816 144 820 q 181 804 170 812 q 191 776 191 797 q 186 733 191 753 l 44 144 q -5 66 27 76 q -53 52 -36 56 q -70 26 -70 48 q -40 -4 -70 -4 q 0 -1 -26 -4 q 63 1 25 1 q 128 0 105 1 q 156 -3 151 -3 q 186 26 186 -3 q 170 50 186 48 q 130 56 155 52 q 98 103 98 63 q 102 133 98 105 q 113 212 105 162 q 136 333 122 262 q 175 490 151 404 l 230 697 l 488 19 q 505 -12 495 0 q 531 -23 515 -23 q 557 -14 548 -23 q 572 15 566 -5 q 585 72 579 37 q 602 158 591 106 q 732 724 687 566 q 754 782 743 761 q 790 811 766 804 q 817 817 805 815 q 836 822 829 819 q 848 832 844 826 q 852 850 852 838 q 819 875 852 875 q 778 871 807 875 q 705 868 750 868 q 654 870 675 868 q 623 873 634 873 q 595 845 595 873 q 610 824 595 825 q 650 819 625 823 q 684 776 684 812 q 659 631 684 751 q 576 298 634 512 q 464 580 518 437 q 359 875 411 723 m 645 1181 q 590 1125 634 1125 q 556 1132 581 1125 l 509 1147 q 477 1153 494 1153 q 408 1112 437 1153 q 369 989 380 1071 l 405 989 q 423 1036 412 1021 q 458 1052 435 1052 q 470 1050 463 1052 q 485 1046 477 1049 l 542 1028 q 573 1024 559 1024 q 642 1063 613 1024 q 682 1181 670 1102 l 645 1181 "},"F":{"x_min":-75,"x_max":678,"ha":617,"o":"m 236 875 q 193 875 215 875 q 148 876 172 876 q 116 848 116 876 q 127 826 116 831 q 151 816 138 820 q 175 803 163 812 q 186 769 186 794 q 170 677 186 747 l 51 145 q 25 82 40 99 q -20 59 11 64 q -59 50 -44 55 q -75 23 -75 46 q -37 -6 -75 -6 q 14 0 -22 -6 q 109 7 51 7 q 217 3 176 7 q 273 -1 258 -1 q 315 30 315 -1 q 299 58 315 55 q 259 69 283 62 q 225 117 225 80 q 227 144 225 128 q 234 181 229 160 l 293 436 l 359 436 q 436 421 411 436 q 462 366 462 406 q 459 337 462 351 q 457 308 457 323 q 464 289 457 297 q 483 281 472 281 q 510 309 504 281 q 525 381 516 337 q 555 517 540 469 q 569 581 569 566 q 550 616 569 616 q 530 607 537 616 q 516 584 522 598 q 502 555 509 570 q 483 528 496 541 q 440 505 464 509 q 386 501 416 501 l 308 501 l 351 692 q 365 750 358 720 q 383 814 372 780 l 472 814 q 572 757 552 814 q 579 720 577 739 q 582 687 580 702 q 589 662 583 672 q 609 652 594 652 q 631 666 626 652 q 641 701 636 680 l 676 843 q 678 855 678 848 q 650 875 678 875 l 236 875 "},"­":{"x_min":-0.390625,"x_max":300,"ha":324,"o":"m 53 389 q 44 384 49 389 q 35 370 38 379 l 1 246 q 0 236 0 241 q 7 228 0 228 l 244 228 q 254 232 248 228 q 262 246 259 237 l 297 372 q 300 382 300 380 q 290 389 300 389 l 53 389 "},":":{"x_min":4,"x_max":243,"ha":353,"o":"m 79 419 q 99 355 79 379 q 152 332 120 332 q 216 363 190 332 q 243 447 243 395 q 222 510 243 487 q 169 533 201 533 q 105 501 131 533 q 79 419 79 469 m 4 72 q 24 7 4 30 q 77 -15 45 -15 q 140 17 113 -15 q 168 100 168 50 q 147 163 168 140 q 94 186 126 186 q 30 154 56 186 q 4 72 4 123 "},"Û":{"x_min":60,"x_max":865.9375,"ha":788,"o":"m 732 647 q 758 748 747 709 q 792 801 768 787 q 816 809 803 808 q 840 813 829 810 q 858 823 852 816 q 865 847 865 830 q 835 875 865 875 q 801 871 818 875 q 764 868 783 868 q 683 870 714 868 q 639 873 652 873 q 607 847 607 873 q 611 828 607 834 q 623 819 615 822 q 641 817 631 817 q 664 813 652 816 q 700 770 700 804 q 695 733 700 756 q 683 676 690 709 l 604 326 q 517 111 572 185 q 363 37 461 37 q 262 74 297 37 q 227 181 227 111 q 234 252 227 208 q 257 358 242 296 l 349 730 q 372 788 360 772 q 418 810 385 805 q 458 819 443 815 q 472 847 472 823 q 438 875 472 875 q 392 869 431 875 q 279 863 354 863 q 178 868 211 863 q 139 872 144 872 q 105 841 105 872 q 117 820 105 825 q 141 811 128 815 q 165 798 154 806 q 176 765 176 790 q 174 734 176 758 q 161 673 171 709 l 94 411 q 69 303 79 353 q 60 208 60 253 q 129 34 60 94 q 332 -26 199 -26 q 463 -3 410 -26 q 552 62 515 18 q 613 174 588 107 q 658 332 638 241 l 732 647 m 509 1212 l 343 974 l 398 974 l 532 1096 l 623 974 l 667 974 l 578 1212 l 509 1212 "},"*":{"x_min":82,"x_max":525,"ha":556,"o":"m 313 637 q 337 703 322 674 q 366 753 352 731 q 390 793 380 774 q 401 831 401 812 q 383 882 401 863 q 338 901 365 901 q 284 815 284 901 q 293 776 284 808 q 302 687 302 745 q 298 641 302 680 q 256 715 269 680 q 236 778 244 751 q 216 823 227 806 q 180 839 205 839 q 138 816 156 839 q 119 766 119 792 q 134 718 119 733 q 172 693 148 704 q 227 669 197 683 q 287 624 256 655 q 237 616 259 616 q 178 622 201 616 q 140 629 155 629 q 98 611 115 629 q 82 566 82 594 q 97 507 82 530 q 138 484 113 484 q 170 498 156 484 q 200 529 183 511 q 238 568 216 548 q 294 604 259 588 q 271 541 286 568 q 242 491 256 514 q 217 448 227 469 q 206 405 206 428 q 226 360 206 378 q 269 342 245 342 q 307 361 291 342 q 323 408 323 380 q 314 470 323 436 q 305 545 305 504 q 309 601 305 569 q 348 531 336 566 q 370 466 361 495 q 390 419 379 437 q 427 401 402 401 q 469 425 451 401 q 487 476 487 448 q 472 525 487 511 q 433 549 456 538 q 379 572 409 559 q 320 618 350 586 q 370 624 348 624 q 431 618 405 624 q 476 612 456 612 q 510 631 495 612 q 525 679 525 649 q 509 735 525 713 q 469 756 493 756 q 436 743 450 756 q 406 711 422 730 q 368 672 390 692 q 313 637 347 651 "},"†":{"x_min":61.109375,"x_max":529.203125,"ha":556,"o":"m 315 594 q 336 671 322 637 q 366 733 351 705 q 391 785 380 762 q 401 832 401 809 q 382 882 401 863 q 333 901 363 901 q 288 880 305 901 q 272 824 272 859 q 277 769 272 809 q 283 663 283 730 q 279 595 283 628 q 232 606 252 597 q 195 626 212 616 q 161 644 177 635 q 127 652 145 652 q 78 631 95 652 q 61 573 61 609 q 77 517 61 540 q 120 495 93 495 q 155 504 137 495 q 192 524 173 513 q 231 544 211 534 q 272 554 251 554 q 177 317 254 435 l 177 267 q 165 17 177 152 q 126 -274 152 -118 l 168 -274 q 236 41 198 -105 q 327 317 275 188 q 309 394 312 353 q 305 484 305 435 q 306 512 305 495 q 309 552 306 530 q 358 543 336 552 q 399 523 380 534 q 434 504 418 513 q 468 495 451 495 q 512 519 495 495 q 529 574 529 542 q 510 628 529 606 q 463 649 491 649 q 430 640 447 649 q 395 621 413 631 q 359 602 377 610 q 319 594 340 594 l 315 594 "},"∕":{"x_min":-186,"x_max":370,"ha":185,"o":"m 307 900 l -186 -26 l -122 -26 l 370 900 l 307 900 "},"°":{"x_min":29,"x_max":429,"ha":457,"o":"m 229 990 q 150 974 187 990 q 86 931 113 958 q 44 867 59 903 q 29 788 29 830 q 44 710 29 747 q 86 646 59 673 q 149 604 113 619 q 227 589 185 589 q 306 604 269 589 q 369 647 342 620 q 413 711 397 675 q 429 788 429 748 q 413 867 429 830 q 369 931 397 903 q 306 974 342 958 q 229 990 270 990 m 354 790 q 344 742 354 765 q 317 702 334 719 q 278 674 301 684 q 229 664 255 664 q 139 700 176 664 q 103 790 103 737 q 139 878 103 842 q 229 915 176 915 q 317 878 281 915 q 354 790 354 842 "},"V":{"x_min":22.21875,"x_max":729.21875,"ha":654,"o":"m 262 730 q 260 748 261 740 q 259 764 259 755 q 300 811 259 805 q 337 823 325 815 q 350 854 350 832 q 312 878 350 878 q 256 873 297 878 q 150 868 216 868 q 84 871 108 868 q 50 875 59 875 q 30 866 38 875 q 22 841 22 857 q 30 823 22 828 q 49 813 38 819 q 70 793 59 807 q 84 748 80 780 l 186 44 q 199 -10 191 8 q 238 -29 206 -29 q 266 -19 255 -29 q 286 7 277 -10 q 305 50 295 25 q 330 107 315 75 l 598 683 q 635 756 619 727 q 669 794 651 784 q 713 816 697 808 q 729 847 729 825 q 694 873 729 873 q 658 870 679 873 q 608 866 637 866 q 554 870 579 866 q 509 873 529 873 q 473 844 473 873 q 486 821 473 826 q 519 809 498 816 q 549 792 538 803 q 559 759 559 782 q 543 701 559 739 l 331 248 l 262 730 "},"å":{"x_min":-11,"x_max":685.1875,"ha":736,"o":"m 556 656 q 526 653 535 656 q 511 636 518 651 l 500 611 q 404 645 458 645 q 259 599 336 645 q 111 462 183 554 q -11 134 -11 307 q 23 15 -11 58 q 107 -28 58 -28 q 257 48 182 -28 q 421 277 333 124 l 396 157 q 383 95 389 124 q 378 38 378 66 q 393 -5 378 12 q 437 -24 409 -24 q 528 2 480 -24 q 619 82 575 28 q 669 158 654 125 q 685 197 685 191 q 674 216 685 216 q 653 200 664 216 q 631 165 643 184 q 604 131 618 146 q 572 116 590 116 q 558 123 561 116 q 556 149 556 131 q 557 171 556 157 q 562 200 558 185 l 671 604 q 675 629 675 619 q 676 643 676 639 q 644 656 676 656 l 556 656 m 426 596 q 477 529 477 596 q 452 429 477 494 q 374 273 427 365 q 288 146 326 188 q 216 104 251 104 q 172 174 172 104 q 192 281 172 212 q 259 433 212 350 q 426 596 348 596 m 328 880 q 341 812 328 844 q 377 757 354 781 q 432 721 401 734 q 498 708 462 708 q 566 721 534 708 q 621 757 597 734 q 657 812 644 781 q 671 880 671 844 q 657 947 671 916 q 621 1001 644 978 q 566 1037 597 1024 q 498 1051 534 1051 q 431 1037 462 1051 q 377 1001 400 1024 q 341 947 354 978 q 328 880 328 916 m 403 878 q 430 947 403 919 q 499 976 458 976 q 567 947 539 976 q 595 878 595 919 q 567 810 595 838 q 499 783 539 783 q 430 810 458 783 q 403 878 403 838 "}," ":{"x_min":0,"x_max":0,"ha":325},"0":{"x_min":13,"x_max":628,"ha":651,"o":"m 426 904 q 283 854 361 904 q 139 706 204 805 q 46 506 79 615 q 13 291 13 397 q 28 155 13 215 q 72 54 44 95 q 136 -9 99 12 q 217 -32 174 -32 q 359 17 285 -32 q 500 162 433 66 q 595 360 562 254 q 628 574 628 466 q 612 713 628 652 q 570 817 597 774 q 506 881 543 859 q 426 904 469 904 m 418 861 q 466 826 451 861 q 481 719 481 792 q 459 528 481 653 q 386 248 437 403 q 228 12 307 12 q 160 142 160 12 q 180 337 160 213 q 254 620 201 460 q 418 861 332 861 "},"”":{"x_min":76.375,"x_max":521,"ha":486,"o":"m 125 806 q 135 759 125 774 q 158 735 145 744 q 181 719 170 726 q 191 697 191 712 q 173 649 191 672 q 134 608 155 627 q 94 573 112 588 q 76 547 76 558 q 94 527 76 527 q 136 548 105 527 q 209 615 168 569 q 269 702 250 659 q 288 798 288 745 q 265 871 288 843 q 209 900 243 900 q 150 873 175 900 q 125 806 125 847 m 358 807 q 368 759 358 775 q 391 735 378 744 q 414 719 403 726 q 424 697 424 712 q 406 650 424 672 q 367 608 388 627 q 327 573 345 589 q 309 547 309 558 q 314 533 309 539 q 326 528 319 528 q 364 545 337 528 q 427 598 391 562 q 498 693 475 647 q 521 798 521 738 q 498 871 521 843 q 442 900 476 900 q 383 873 408 900 q 358 807 358 847 "},"¾":{"x_min":-51.625,"x_max":982,"ha":1006,"o":"m 141 648 q 306 713 251 682 q 361 797 361 744 q 327 865 361 840 q 231 890 294 890 q 170 879 197 890 q 123 855 143 869 q 93 827 104 841 q 83 807 83 813 q 95 796 83 796 q 111 805 102 796 q 133 825 120 814 q 161 845 145 836 q 195 855 176 855 q 234 839 219 855 q 250 796 250 824 q 219 725 250 759 q 135 670 188 691 q 67 645 94 654 q 41 620 41 636 q 52 608 41 608 q 81 616 59 608 q 135 625 102 625 q 199 599 176 625 q 222 525 222 573 q 208 450 222 486 q 174 389 194 415 q 131 346 155 362 q 90 331 108 331 q 65 340 73 331 q 44 368 56 349 q -11 408 19 408 q -39 397 -28 408 q -51 367 -51 386 q -23 320 -51 337 q 55 303 5 303 q 166 320 115 303 q 256 368 217 337 q 316 439 294 398 q 339 523 339 479 q 301 617 339 582 q 193 653 263 653 q 141 648 179 653 m 716 900 l 223 -26 l 286 -26 l 779 900 l 716 900 m 956 526 q 935 524 941 526 q 922 514 929 521 l 625 222 q 603 197 613 208 q 594 172 594 186 q 602 158 594 161 q 625 156 610 156 l 774 156 q 788 150 788 156 q 788 143 788 147 q 787 133 788 140 l 765 57 q 753 38 762 45 q 728 28 745 31 q 701 25 713 25 q 689 11 689 25 q 706 0 689 0 q 747 2 713 0 q 848 4 781 4 q 885 3 870 4 q 908 2 899 2 q 922 13 922 2 q 913 25 922 22 q 895 29 905 28 q 877 32 886 29 q 869 46 869 35 q 872 61 869 50 l 893 139 q 898 153 897 150 q 912 156 899 156 l 955 156 q 968 168 965 156 l 973 189 q 974 191 973 190 q 975 193 975 192 q 963 199 975 199 l 926 199 q 913 205 913 199 q 915 218 913 212 l 952 357 q 955 367 955 362 q 955 375 955 372 q 943 385 955 385 q 924 380 937 385 l 876 368 q 851 355 858 364 q 841 335 844 347 l 808 214 q 803 201 805 203 q 788 199 801 199 l 644 199 q 784 339 721 280 q 890 435 847 397 q 958 493 934 474 q 982 518 982 512 q 969 526 982 526 l 956 526 "},"@":{"x_min":95,"x_max":1278,"ha":1370,"o":"m 847 523 q 826 390 847 466 q 764 243 804 313 q 692 154 728 183 q 612 125 657 125 q 549 157 575 125 q 524 248 524 190 q 543 370 524 301 q 603 516 562 438 q 673 615 637 583 q 754 647 708 647 q 821 614 796 647 q 847 523 847 581 m 885 558 q 737 685 861 685 q 628 662 682 685 q 528 594 575 639 q 431 461 464 533 q 399 313 399 388 q 451 145 399 208 q 596 83 504 83 q 709 116 660 83 q 801 220 758 149 q 842 117 805 152 q 946 81 879 81 q 1123 156 1037 81 q 1237 316 1197 223 q 1278 519 1278 409 q 1241 711 1278 625 q 1136 859 1204 797 q 972 954 1068 921 q 758 988 876 988 q 523 949 632 988 q 322 835 414 910 q 152 621 210 742 q 95 363 95 501 q 148 118 95 229 q 304 -69 201 8 q 489 -160 382 -128 q 726 -192 596 -192 q 1175 -40 974 -192 l 1150 -8 q 726 -150 950 -150 q 520 -118 615 -150 q 354 -26 425 -86 q 192 340 192 108 q 358 776 192 607 q 544 902 439 859 q 767 946 649 946 q 960 915 872 946 q 1108 830 1047 884 q 1203 697 1169 775 q 1238 525 1238 619 q 1198 323 1238 414 q 1083 173 1158 233 q 1017 134 1051 147 q 964 121 983 121 q 908 190 908 121 q 912 223 908 207 q 919 255 915 239 l 1036 673 l 919 673 l 885 558 "},"ö":{"x_min":3,"x_max":608,"ha":653,"o":"m 362 647 q 231 616 295 647 q 116 533 166 585 q 34 406 65 480 q 3 248 3 333 q 20 136 3 187 q 68 49 37 85 q 144 -7 100 13 q 243 -28 188 -28 q 381 3 315 -28 q 496 90 447 35 q 574 215 545 144 q 604 363 604 285 q 585 481 604 428 q 535 571 567 534 q 459 627 504 608 q 362 647 415 647 m 440 458 q 372 148 440 301 q 316 55 344 85 q 251 26 287 26 q 170 158 170 26 q 188 316 170 237 q 239 467 206 395 q 362 593 297 593 q 418 558 397 593 q 440 458 440 524 m 525 911 q 469 885 493 911 q 445 830 445 860 q 469 771 445 795 q 525 747 493 747 q 584 770 560 747 q 608 830 608 794 q 583 886 608 862 q 525 911 559 911 m 298 911 q 241 885 266 911 q 216 830 216 860 q 241 771 216 795 q 298 747 266 747 q 356 770 332 747 q 380 830 380 794 q 355 886 380 862 q 298 911 331 911 "},"i":{"x_min":14,"x_max":399,"ha":399,"o":"m 311 901 q 249 869 278 901 q 220 788 220 837 q 242 717 220 743 q 301 691 265 691 q 369 722 340 691 q 399 806 399 754 q 375 873 399 846 q 311 901 351 901 m 294 397 q 320 485 309 446 q 331 558 331 524 q 254 645 331 645 q 81 559 158 645 q 30 491 47 522 q 14 446 14 461 q 22 432 14 432 q 47 448 38 432 q 73 490 55 465 q 115 537 97 522 q 147 553 134 553 q 156 532 156 553 q 152 504 156 518 l 63 224 q 36 139 48 179 q 25 63 25 99 q 105 -24 25 -24 q 281 81 197 -24 q 331 155 316 123 q 347 198 347 187 q 335 216 347 216 q 311 197 323 216 q 286 156 299 178 q 257 115 273 134 q 222 97 241 97 q 209 119 209 97 q 226 190 209 141 l 294 397 "},"Õ":{"x_min":30,"x_max":815,"ha":851,"o":"m 469 901 q 303 862 382 901 q 162 757 223 824 q 66 596 102 689 q 30 392 30 502 q 55 216 30 295 q 126 83 81 138 q 233 -1 171 28 q 369 -31 295 -31 q 677 114 546 -31 q 815 481 815 267 q 788 652 815 574 q 715 785 762 730 q 605 870 669 839 q 469 901 542 901 m 632 599 q 627 508 632 556 q 613 410 622 459 q 591 313 604 360 q 562 223 579 265 q 471 77 526 126 q 359 29 416 29 q 251 92 291 29 q 211 277 211 155 q 234 494 211 385 q 298 698 258 604 q 380 813 331 773 q 481 854 429 854 q 591 790 551 854 q 632 599 632 726 m 682 1181 q 627 1125 671 1125 q 593 1132 618 1125 l 546 1147 q 514 1153 531 1153 q 445 1112 474 1153 q 406 989 417 1071 l 442 989 q 460 1036 449 1021 q 495 1052 472 1052 q 507 1050 500 1052 q 522 1046 514 1049 l 579 1028 q 610 1024 596 1024 q 679 1063 650 1024 q 719 1181 707 1102 l 682 1181 "},"þ":{"x_min":-163.796875,"x_max":621,"ha":665,"o":"m 372 882 q 388 934 380 914 q 395 962 395 954 q 380 981 395 981 q 361 973 373 981 q 325 956 348 965 q 266 940 302 947 q 179 932 230 932 q 144 928 157 932 q 132 900 132 924 q 143 885 132 889 q 166 876 154 880 q 190 866 179 872 q 201 846 201 860 q 198 817 201 832 q 190 786 194 801 l -41 -163 q -56 -208 -48 -191 q -90 -233 -63 -224 q -117 -240 -104 -237 q -140 -248 -130 -244 q -157 -259 -151 -252 q -163 -279 -163 -266 q -141 -301 -163 -301 q -95 -295 -129 -301 q -6 -290 -61 -290 q 138 -298 87 -290 q 200 -307 189 -307 q 220 -284 220 -307 q 202 -257 220 -262 q 161 -243 184 -252 q 120 -187 120 -227 q 126 -140 120 -167 l 165 36 q 294 -19 226 -19 q 402 14 347 -19 q 509 114 458 47 q 593 270 565 187 q 621 426 621 352 q 570 584 621 526 q 427 643 520 643 q 375 640 404 643 q 311 631 345 638 l 372 882 m 207 198 l 298 567 q 330 581 316 576 q 359 586 344 586 q 423 555 400 586 q 446 469 446 524 q 427 337 446 416 q 373 176 409 258 q 254 46 315 46 q 211 65 227 46 q 195 118 195 84 q 198 153 195 133 q 207 198 200 173 "},"]":{"x_min":-93,"x_max":426,"ha":438,"o":"m 187 900 q 172 885 180 900 q 165 849 165 870 q 172 837 165 837 l 233 837 q 266 820 266 837 q 260 789 266 810 l 36 -153 q 20 -191 29 -178 q -8 -205 12 -205 l -72 -205 q -86 -219 -79 -205 q -93 -252 -93 -233 q -86 -268 -93 -268 l 113 -268 q 151 -255 138 -268 q 172 -216 165 -243 l 419 827 q 424 855 423 844 q 426 872 426 866 q 416 890 426 880 q 395 900 406 900 l 187 900 "},"m":{"x_min":-2.734375,"x_max":926.34375,"ha":1003,"o":"m 890 416 q 911 496 905 462 q 918 550 918 530 q 830 645 918 645 q 687 569 757 645 q 546 342 618 493 l 558 407 q 572 488 566 453 q 578 547 578 522 q 496 645 578 645 q 378 581 434 645 q 258 396 321 518 q 278 487 271 446 q 285 558 285 528 q 214 645 285 645 q 58 548 141 645 q -2 447 -2 479 q 9 432 -2 432 q 34 447 22 432 q 58 481 45 462 q 84 516 70 500 q 115 532 98 532 q 128 527 125 532 q 132 507 132 522 q 127 463 132 490 q 112 401 123 437 l 7 34 q 4 23 4 27 q 4 16 4 19 q 8 4 4 9 q 18 0 12 0 l 130 0 q 154 11 145 0 q 173 54 162 23 q 200 138 184 86 q 248 273 217 191 q 300 391 275 340 q 347 477 325 441 q 386 530 369 512 q 411 548 402 548 q 425 527 425 548 q 413 453 425 506 q 383 312 402 400 l 318 34 q 315 16 315 20 q 319 5 315 11 q 329 0 323 0 l 430 0 q 456 12 447 0 q 476 56 465 25 q 506 140 487 87 q 558 273 525 193 q 668 478 617 411 q 740 545 719 545 q 754 533 754 545 q 748 497 754 519 q 731 443 742 475 l 673 271 q 645 166 653 212 q 637 90 637 119 q 713 -14 637 -14 q 797 13 758 -14 q 874 96 836 41 q 914 164 902 136 q 926 198 926 191 q 915 216 926 216 q 895 198 905 216 q 872 160 884 181 q 845 122 859 139 q 812 105 830 105 q 802 120 802 105 q 810 160 802 132 l 890 416 "},"8":{"x_min":-1,"x_max":633,"ha":651,"o":"m 394 530 q 299 606 330 566 q 268 697 268 647 q 279 754 268 727 q 309 800 290 780 q 354 831 329 820 q 406 843 379 843 q 485 807 455 843 q 515 711 515 772 q 483 597 515 644 q 394 530 452 549 m 439 494 q 584 559 536 511 q 633 686 633 608 q 567 834 633 780 q 383 889 501 889 q 272 868 322 889 q 186 814 222 848 q 130 733 150 779 q 110 636 110 687 q 135 532 110 580 q 208 447 160 483 q 114 409 154 430 q 49 359 75 387 q 11 296 23 332 q -1 212 -1 260 q 17 114 -1 158 q 69 39 36 71 q 149 -8 103 8 q 249 -26 194 -26 q 380 -1 321 -26 q 483 66 440 23 q 550 163 526 108 q 574 278 574 218 q 542 398 574 348 q 439 494 510 448 m 243 411 q 369 321 327 368 q 411 212 411 275 q 398 139 411 172 q 365 80 386 105 q 316 41 344 55 q 258 28 288 28 q 165 73 202 28 q 128 197 128 118 q 137 271 128 236 q 161 334 146 307 q 198 382 177 362 q 243 411 219 403 "},"ž":{"x_min":-65.28125,"x_max":609.765625,"ha":592,"o":"m 87 92 q 240 217 175 158 q 352 325 305 276 q 429 411 398 373 q 480 473 461 450 q 525 516 502 499 q 567 546 548 533 q 597 572 586 559 q 609 605 609 586 q 600 631 609 620 q 576 641 591 641 q 539 627 554 641 q 506 591 525 613 l 483 563 q 463 561 472 562 q 447 561 454 561 q 386 572 418 561 q 322 599 355 584 q 256 627 290 614 q 190 640 223 640 q 129 626 158 640 q 80 588 101 612 q 47 534 59 564 q 34 470 34 503 q 43 414 34 434 q 63 395 52 395 q 79 413 79 395 q 77 431 79 423 q 76 446 76 439 q 84 470 76 461 q 106 480 93 480 q 134 472 119 480 q 165 458 148 465 q 204 443 183 450 q 251 436 226 436 q 450 494 322 436 q 284 354 354 419 q 167 239 215 290 q 90 155 119 189 q 43 109 61 121 q -36 83 -8 107 q -65 29 -65 59 q -54 4 -65 14 q -23 -5 -43 -5 q 24 9 1 -5 q 76 53 47 25 l 104 53 q 158 40 130 53 q 215 13 186 27 q 275 -13 244 -1 q 338 -25 306 -25 q 402 -10 372 -25 q 454 27 431 4 q 491 82 477 51 q 505 145 505 113 q 492 205 505 183 q 468 227 479 227 q 458 209 458 227 q 459 199 458 205 q 459 186 459 192 q 420 136 459 136 q 394 141 408 136 q 366 155 380 147 q 334 168 351 162 q 300 174 318 174 q 255 164 277 174 q 208 142 233 155 q 153 115 183 129 q 87 92 123 101 m 239 956 l 328 718 l 397 718 l 563 956 l 507 956 l 373 833 l 283 956 l 239 956 "},"R":{"x_min":-65.125,"x_max":753,"ha":768,"o":"m 508 433 q 691 532 629 466 q 753 686 753 598 q 701 824 753 773 q 558 875 650 875 q 468 871 514 875 q 376 868 423 868 q 210 874 265 868 q 148 880 155 880 q 116 852 116 880 q 120 834 116 840 q 129 826 123 829 q 143 822 134 823 q 159 818 151 822 q 186 772 186 808 q 171 680 186 748 l 51 142 q 25 83 41 100 q -17 60 9 65 q -51 51 -38 55 q -65 24 -65 46 q -31 -4 -65 -4 q 2 0 -24 -4 q 83 4 30 4 q 223 0 175 4 q 279 -4 271 -4 q 311 25 311 -4 q 295 49 311 46 q 251 59 279 52 q 219 100 219 66 q 221 123 219 108 q 229 161 223 139 l 277 371 q 291 373 284 372 q 305 374 298 374 q 357 353 340 374 q 384 286 373 333 l 440 61 q 454 15 447 29 q 479 1 461 1 q 507 4 486 1 q 562 7 527 7 q 631 3 602 7 q 675 0 659 0 q 705 26 705 0 q 692 51 705 47 q 655 62 679 55 q 632 87 641 67 q 612 142 623 107 l 551 335 q 535 380 544 355 q 508 433 526 404 m 290 433 l 372 796 q 454 808 427 808 q 564 680 564 808 q 548 580 564 626 q 501 501 532 534 q 427 449 470 468 q 329 431 383 431 q 310 431 319 431 q 290 433 301 432 "},"á":{"x_min":-11,"x_max":685.1875,"ha":736,"o":"m 556 656 q 526 653 535 656 q 511 636 518 651 l 500 611 q 404 645 458 645 q 259 599 336 645 q 111 462 183 554 q -11 134 -11 307 q 23 15 -11 58 q 107 -28 58 -28 q 257 48 182 -28 q 421 277 333 124 l 396 157 q 383 95 389 124 q 378 38 378 66 q 393 -5 378 12 q 437 -24 409 -24 q 528 2 480 -24 q 619 82 575 28 q 669 158 654 125 q 685 197 685 191 q 674 216 685 216 q 653 200 664 216 q 631 165 643 184 q 604 131 618 146 q 572 116 590 116 q 558 123 561 116 q 556 149 556 131 q 557 171 556 157 q 562 200 558 185 l 671 604 q 676 629 675 619 q 676 643 676 639 q 644 656 676 656 l 556 656 m 426 596 q 477 529 477 596 q 452 429 477 494 q 374 273 427 365 q 288 146 326 188 q 216 104 251 104 q 172 174 172 104 q 192 281 172 212 q 259 433 212 350 q 426 596 348 596 m 572 842 q 610 903 610 868 q 596 945 610 928 q 565 963 582 963 q 504 924 536 963 l 336 718 l 394 718 l 572 842 "},"×":{"x_min":194,"x_max":976,"ha":1157,"o":"m 584 493 l 273 805 l 194 725 l 505 413 l 194 102 l 273 22 l 584 334 l 896 22 l 976 102 l 664 413 l 976 725 l 896 805 l 584 493 "},"o":{"x_min":3,"x_max":604,"ha":653,"o":"m 362 647 q 231 616 295 647 q 116 533 166 585 q 34 406 65 480 q 3 248 3 333 q 20 136 3 187 q 68 49 37 85 q 144 -7 100 13 q 243 -28 188 -28 q 381 3 315 -28 q 496 90 447 35 q 574 215 545 144 q 604 363 604 285 q 585 481 604 428 q 535 571 567 534 q 459 627 504 608 q 362 647 415 647 m 440 458 q 372 148 440 301 q 316 55 344 85 q 251 26 287 26 q 170 158 170 26 q 188 316 170 237 q 239 467 206 395 q 362 593 297 593 q 418 558 397 593 q 440 458 440 524 "},"5":{"x_min":-62.859375,"x_max":626.34375,"ha":651,"o":"m 619 860 q 624 884 623 875 q 626 894 626 893 q 608 906 626 906 q 601 906 606 906 q 590 904 597 906 l 230 861 q 194 829 201 857 l 89 476 q 86 460 87 468 q 85 450 85 452 q 105 440 85 440 q 358 251 358 440 q 294 72 358 150 q 114 -40 230 -5 q 39 -55 73 -52 q -16 -60 6 -58 q -51 -67 -39 -62 q -62 -88 -62 -72 q -53 -109 -62 -104 q -12 -114 -43 -114 q 228 -80 124 -114 q 401 10 331 -47 q 507 145 472 68 q 543 308 543 222 q 491 486 543 412 q 345 587 440 559 q 284 599 313 597 q 233 601 255 601 q 197 603 210 601 q 184 612 184 604 q 205 682 184 666 q 260 700 227 697 l 509 726 q 549 731 534 729 q 572 737 563 733 q 586 748 581 740 q 594 768 590 755 l 619 860 "},"õ":{"x_min":3,"x_max":604,"ha":653,"o":"m 362 647 q 231 616 295 647 q 116 533 166 585 q 34 406 65 480 q 3 248 3 333 q 20 136 3 187 q 68 49 37 85 q 144 -7 100 13 q 243 -28 188 -28 q 381 3 315 -28 q 496 90 447 35 q 574 215 545 144 q 604 363 604 285 q 585 481 604 428 q 535 571 567 534 q 459 627 504 608 q 362 647 415 647 m 440 458 q 372 148 440 301 q 316 55 344 85 q 251 26 287 26 q 170 158 170 26 q 188 316 170 237 q 239 467 206 395 q 362 593 297 593 q 418 558 397 593 q 440 458 440 524 m 532 925 q 477 869 521 869 q 443 876 468 869 l 396 891 q 364 897 381 897 q 295 856 324 897 q 256 733 267 815 l 292 733 q 310 780 299 765 q 345 796 322 796 q 357 794 350 796 q 372 790 364 793 l 429 772 q 460 768 446 768 q 529 807 500 768 q 569 925 557 846 l 532 925 "},"7":{"x_min":102.78125,"x_max":673.671875,"ha":651,"o":"m 187 875 q 149 881 159 875 q 136 887 138 887 q 120 854 125 887 l 104 728 q 102 716 102 721 q 102 703 102 710 q 111 680 102 684 q 143 676 120 676 l 459 676 q 500 657 500 676 q 497 646 500 650 l 172 -67 q 168 -76 168 -75 q 195 -88 168 -88 q 220 -84 213 -88 q 230 -72 226 -81 l 241 -47 q 300 83 261 -3 q 402 300 338 170 l 655 815 q 673 865 673 851 q 652 875 673 875 l 187 875 "},"K":{"x_min":-75,"x_max":856,"ha":758,"o":"m 562 637 q 707 762 650 720 q 778 809 764 804 q 804 816 790 814 q 830 821 818 818 q 849 830 842 823 q 856 851 856 836 q 821 876 856 876 q 792 874 814 876 q 732 872 771 872 q 636 875 669 872 q 596 878 603 878 q 558 848 558 878 q 567 829 558 833 q 588 822 576 825 q 609 815 600 819 q 618 797 618 811 q 587 748 618 777 l 300 465 l 339 647 q 364 752 354 713 q 397 801 375 790 q 425 809 409 808 q 453 814 440 811 q 474 823 465 816 q 483 847 483 830 q 447 875 483 875 q 403 869 440 875 q 290 864 365 864 q 187 868 220 864 q 148 872 154 872 q 115 843 115 872 q 126 821 115 826 q 150 811 137 815 q 175 798 164 807 q 186 765 186 790 q 170 673 186 745 l 48 139 q 25 81 38 98 q -20 59 11 64 q -59 50 -44 55 q -75 23 -75 46 q -40 -6 -75 -6 q 4 0 -29 -6 q 94 6 37 6 q 213 1 169 6 q 271 -3 257 -3 q 300 24 300 -3 q 289 48 300 46 q 261 53 277 50 q 230 68 241 56 q 218 92 218 80 q 221 123 218 107 q 229 159 225 139 l 280 394 q 302 401 294 401 q 333 381 319 401 q 362 320 347 360 l 451 89 q 469 43 462 60 q 483 16 476 25 q 499 3 490 6 q 525 0 508 0 q 567 3 544 0 q 618 6 590 6 q 673 0 650 6 q 712 -4 696 -4 q 731 4 724 -4 q 739 25 739 13 q 725 49 739 45 q 692 64 711 53 q 636 141 661 81 l 503 452 q 486 490 496 469 q 455 534 476 511 l 562 637 "},",":{"x_min":-52.953125,"x_max":148,"ha":325,"o":"m 66 188 q 4 156 30 188 q -21 82 -21 124 q 24 5 -21 18 q 60 -3 49 -1 q 71 -26 71 -5 q 56 -79 71 -51 q 10 -144 41 -108 q -13 -169 -1 -159 q -33 -187 -25 -179 q -47 -202 -41 -195 q -52 -219 -52 -209 q -36 -243 -52 -243 q 66 -147 -11 -243 q 127 -44 106 -95 q 148 62 148 5 q 125 156 148 124 q 66 188 102 188 "},"d":{"x_min":-7,"x_max":757.34375,"ha":732,"o":"m 751 940 q 755 958 754 951 q 757 965 757 964 q 753 976 757 971 q 743 981 749 981 q 723 974 736 981 q 687 958 710 967 q 633 942 665 950 q 553 933 600 935 l 523 933 q 489 928 501 933 q 478 900 478 924 q 489 885 478 889 q 514 876 500 880 q 539 867 528 872 q 550 853 550 862 q 536 786 550 832 l 489 622 q 441 642 465 635 q 393 649 418 649 q 258 607 330 649 q 119 484 186 566 q -7 149 -7 326 q 24 21 -7 66 q 102 -24 56 -24 q 246 51 172 -24 q 411 280 321 127 l 389 157 q 378 100 383 128 q 374 39 374 71 q 389 -5 374 12 q 433 -24 405 -24 q 524 2 476 -24 q 615 83 571 28 q 665 159 650 126 q 680 198 680 191 q 669 216 680 216 q 649 199 660 216 q 624 161 637 182 q 595 124 611 141 q 560 107 579 107 q 549 129 549 107 q 579 300 549 150 q 687 719 610 451 l 751 940 m 423 600 q 467 538 467 600 q 445 441 467 504 q 370 295 422 379 q 288 177 322 216 q 224 139 254 139 q 186 204 186 139 q 204 307 186 244 q 263 445 223 370 q 423 600 348 600 "},"¨":{"x_min":235,"x_max":627,"ha":695,"o":"m 544 911 q 488 885 512 911 q 464 830 464 860 q 488 771 464 795 q 544 747 512 747 q 603 770 579 747 q 627 830 627 794 q 602 886 627 862 q 544 911 578 911 m 317 911 q 260 885 285 911 q 235 830 235 860 q 260 771 235 795 q 317 747 285 747 q 375 770 351 747 q 399 830 399 794 q 374 886 399 862 q 317 911 350 911 "},"Ô":{"x_min":30,"x_max":815,"ha":851,"o":"m 469 901 q 303 862 382 901 q 162 757 223 824 q 66 596 102 689 q 30 392 30 502 q 55 216 30 295 q 126 83 81 138 q 233 -1 171 28 q 369 -31 295 -31 q 677 114 546 -31 q 815 481 815 267 q 788 652 815 574 q 715 785 762 730 q 605 870 669 839 q 469 901 542 901 m 632 599 q 627 508 632 556 q 613 410 622 459 q 591 313 604 360 q 562 223 579 265 q 471 77 526 126 q 359 29 416 29 q 251 92 291 29 q 211 277 211 155 q 234 494 211 385 q 298 698 258 604 q 380 813 331 773 q 481 854 429 854 q 591 790 551 854 q 632 599 632 726 m 541 1212 l 375 974 l 430 974 l 564 1096 l 655 974 l 699 974 l 610 1212 l 541 1212 "},"E":{"x_min":-75,"x_max":698.671875,"ha":671,"o":"m 236 875 q 193 875 215 875 q 148 876 172 876 q 116 848 116 876 q 127 826 116 831 q 151 816 138 820 q 175 803 163 812 q 186 769 186 794 q 177 712 186 749 l 48 139 q 25 80 38 96 q -20 59 11 64 q -59 50 -44 55 q -75 23 -75 46 q -34 -6 -75 -6 q 11 -2 -18 -6 q 83 0 40 0 l 465 0 q 493 0 480 0 q 516 -1 505 -1 q 547 7 540 -1 q 562 45 555 16 q 582 136 576 101 q 588 184 588 170 q 581 208 588 198 q 566 217 575 217 q 547 209 555 217 q 533 187 540 201 q 518 157 526 173 q 498 126 511 141 q 459 89 479 102 q 417 70 438 76 q 372 62 395 63 q 322 61 348 61 q 250 67 276 61 q 223 101 223 73 q 233 167 223 124 l 293 436 l 370 436 q 447 420 422 436 q 473 365 473 405 q 470 338 473 351 q 468 309 468 324 q 476 290 468 298 q 494 281 484 281 q 521 310 515 281 q 536 383 527 338 q 566 517 551 469 q 580 585 580 566 q 561 616 580 616 q 541 607 548 616 q 527 585 533 598 q 513 557 520 571 q 494 530 506 542 q 450 505 473 510 q 397 501 427 501 l 308 501 l 351 692 q 365 750 358 720 q 383 814 372 780 l 493 814 q 593 757 573 814 q 600 720 598 739 q 602 687 601 702 q 609 662 604 672 q 630 652 615 652 q 652 666 647 652 q 662 701 657 680 l 697 843 q 698 855 698 848 q 670 875 698 875 l 236 875 "},"Y":{"x_min":15,"x_max":740,"ha":599,"o":"m 294 731 q 288 758 291 746 q 285 778 285 770 q 297 810 285 802 q 324 822 309 819 q 350 831 338 826 q 362 854 362 837 q 355 874 362 869 q 334 879 349 879 q 299 875 324 879 q 231 872 274 872 q 96 877 142 872 q 42 883 51 883 q 15 856 15 883 q 30 828 15 833 q 58 817 46 823 q 84 793 80 808 q 94 759 88 778 l 184 417 q 190 394 187 404 q 192 376 192 385 q 192 365 192 372 q 190 348 192 358 l 167 223 q 143 117 156 155 q 109 69 130 80 q 82 60 96 62 q 54 56 67 59 q 32 46 41 53 q 23 23 23 39 q 56 -6 23 -6 q 103 0 69 -6 q 196 6 137 6 q 314 1 271 6 q 369 -3 356 -3 q 398 24 398 -3 q 387 48 398 46 q 359 53 377 51 q 328 68 340 56 q 317 92 317 80 q 321 125 317 109 q 328 159 326 141 l 377 399 l 460 527 q 574 696 528 631 q 648 784 620 760 q 680 804 663 798 q 710 816 696 810 q 731 829 723 822 q 740 852 740 837 q 710 873 740 873 q 680 870 701 873 q 626 868 659 868 q 546 871 576 868 q 508 875 517 875 q 477 849 477 875 q 489 827 477 833 q 514 819 501 822 q 539 809 527 816 q 551 784 551 802 q 535 743 551 769 q 495 677 520 717 l 359 454 l 294 731 "},"\"":{"x_min":57,"x_max":416,"ha":471,"o":"m 108 581 l 134 581 l 184 892 q 186 904 186 898 q 186 918 186 911 q 120 992 186 992 q 57 918 57 992 q 57 904 57 911 q 58 892 57 898 l 108 581 m 336 581 l 363 581 l 413 892 q 415 905 414 898 q 416 919 416 912 q 398 973 416 954 q 350 992 381 992 q 302 973 319 992 q 285 918 285 954 q 285 904 285 911 q 286 892 285 898 l 336 581 "},"‹":{"x_min":18,"x_max":285,"ha":275,"o":"m 143 306 q 250 431 215 381 q 285 506 285 481 q 266 526 285 526 q 240 510 258 526 q 193 467 222 495 q 120 400 164 440 q 18 312 77 361 q 94 220 63 261 q 144 150 125 179 q 176 107 164 122 q 200 92 189 92 q 218 115 218 92 q 143 306 218 148 "},"˙":{"x_min":368,"x_max":537,"ha":695,"o":"m 368 833 q 392 772 368 797 q 452 747 416 747 q 512 772 488 747 q 537 833 537 797 q 512 892 537 866 q 452 918 487 918 q 394 891 420 918 q 368 833 368 865 "},"ê":{"x_min":1,"x_max":570,"ha":606,"o":"m 189 309 q 273 524 222 452 q 368 597 324 597 q 395 580 385 597 q 406 535 406 563 q 390 453 406 494 q 346 381 375 413 q 280 328 318 348 q 196 309 242 309 l 189 309 m 180 255 q 352 285 279 267 q 474 329 426 302 q 546 396 522 356 q 570 494 570 435 q 526 605 570 563 q 406 647 483 647 q 277 620 341 647 q 154 544 212 594 q 40 392 80 478 q 1 212 1 305 q 58 33 1 98 q 204 -31 115 -31 q 335 1 270 -31 q 451 96 399 34 q 497 177 497 152 q 481 195 497 195 q 462 183 472 195 q 434 151 452 170 q 358 86 395 108 q 290 65 320 65 q 208 105 238 65 q 179 220 179 145 q 179 237 179 228 q 180 255 179 245 m 367 956 l 201 718 l 256 718 l 390 840 l 481 718 l 525 718 l 436 956 l 367 956 "},"Ï":{"x_min":-61,"x_max":551,"ha":433,"o":"m 374 730 q 397 789 384 769 q 440 816 410 809 q 476 825 462 822 q 490 849 490 829 q 455 875 490 875 q 410 869 446 875 q 305 863 373 863 q 201 868 234 863 q 162 872 168 872 q 133 845 133 872 q 143 825 133 830 q 165 817 154 820 q 188 806 177 813 q 198 779 198 799 q 191 733 198 768 l 55 139 q 45 104 51 119 q 32 80 40 89 q 13 66 25 71 q -12 59 2 62 q -48 50 -36 55 q -61 23 -61 45 q -26 -6 -61 -6 q 16 0 -15 -6 q 105 6 47 6 q 226 1 183 6 q 280 -3 269 -3 q 308 24 308 -3 q 298 48 308 46 q 273 53 288 49 q 247 69 258 57 q 236 91 236 80 q 238 123 236 103 q 244 162 240 142 l 374 730 m 468 1167 q 412 1141 436 1167 q 388 1086 388 1116 q 412 1027 388 1051 q 468 1003 436 1003 q 527 1026 503 1003 q 551 1086 551 1050 q 526 1142 551 1118 q 468 1167 502 1167 m 241 1167 q 184 1141 209 1167 q 159 1086 159 1116 q 184 1027 159 1051 q 241 1003 209 1003 q 299 1026 275 1003 q 323 1086 323 1050 q 298 1142 323 1118 q 241 1167 274 1167 "},"„":{"x_min":-100.625,"x_max":345,"ha":486,"o":"m -52 76 q -41 30 -52 45 q -18 5 -31 15 q 4 -11 -6 -4 q 14 -33 14 -19 q -3 -81 14 -59 q -42 -122 -21 -104 q -82 -157 -64 -141 q -100 -186 -100 -173 q -95 -197 -100 -193 q -83 -202 -90 -202 q -46 -186 -72 -202 q 16 -133 -19 -169 q 86 -38 62 -84 q 111 66 111 6 q 88 140 111 111 q 32 169 66 169 q -26 143 -1 169 q -52 76 -52 116 m 182 76 q 192 28 182 44 q 215 4 202 13 q 238 -12 227 -4 q 248 -35 248 -19 q 230 -82 248 -60 q 191 -123 212 -104 q 151 -157 169 -141 q 133 -183 133 -172 q 138 -197 133 -191 q 150 -203 143 -203 q 187 -186 161 -203 q 250 -133 214 -169 q 321 -38 297 -85 q 345 66 345 7 q 322 139 345 110 q 266 169 300 169 q 207 142 232 169 q 182 76 182 116 "},"Â":{"x_min":-72.234375,"x_max":630.609375,"ha":682,"o":"m 480 831 q 472 886 475 871 q 444 901 469 901 q 406 889 419 901 q 373 835 394 877 l 25 130 q -4 91 12 103 q -36 70 -22 78 q -61 53 -51 62 q -72 29 -72 45 q -63 8 -72 13 q -36 4 -54 4 q -4 6 -23 4 q 43 8 15 8 q 100 6 77 8 q 137 4 123 4 l 145 4 q 183 32 183 4 q 169 53 183 47 q 139 66 155 59 q 109 82 123 72 q 95 112 95 91 q 99 134 95 118 q 113 175 102 150 l 165 296 l 375 296 l 394 145 q 397 123 397 132 q 397 112 397 115 q 358 65 397 73 q 320 52 334 61 q 306 20 306 43 q 344 -1 306 -1 q 398 3 358 -1 q 508 8 438 8 q 568 5 547 8 q 595 2 588 2 q 630 33 630 2 q 622 53 630 48 q 605 64 615 58 q 586 83 595 70 q 572 127 576 95 l 480 831 m 331 645 l 365 368 l 195 368 q 259 503 226 434 q 331 645 293 572 m 456 1212 l 290 974 l 345 974 l 479 1096 l 570 974 l 614 974 l 525 1212 l 456 1212 "},"Í":{"x_min":-61,"x_max":513,"ha":433,"o":"m 374 730 q 397 789 384 769 q 440 816 410 809 q 476 825 462 822 q 490 849 490 829 q 455 875 490 875 q 410 869 446 875 q 305 863 373 863 q 201 868 234 863 q 162 872 168 872 q 133 845 133 872 q 143 825 133 830 q 165 817 154 820 q 188 806 177 813 q 198 779 198 799 q 191 733 198 768 l 55 139 q 45 104 51 119 q 32 80 40 89 q 13 66 25 71 q -12 59 2 62 q -48 50 -36 55 q -61 23 -61 45 q -26 -6 -61 -6 q 16 0 -15 -6 q 105 6 47 6 q 226 1 183 6 q 280 -3 269 -3 q 308 24 308 -3 q 298 48 308 46 q 273 53 288 49 q 247 69 258 57 q 236 91 236 80 q 238 123 236 103 q 244 162 240 142 l 374 730 m 475 1098 q 513 1159 513 1124 q 499 1201 513 1184 q 468 1219 485 1219 q 407 1180 439 1219 l 239 974 l 297 974 l 475 1098 "},"´":{"x_min":315,"x_max":589,"ha":695,"o":"m 551 842 q 589 903 589 868 q 575 945 589 928 q 544 963 561 963 q 483 924 515 963 l 315 718 l 373 718 l 551 842 "},"ì":{"x_min":14,"x_max":369,"ha":399,"o":"m 294 397 q 320 485 309 446 q 331 558 331 524 q 254 645 331 645 q 81 559 158 645 q 30 491 47 522 q 14 446 14 461 q 22 432 14 432 q 47 448 38 432 q 73 490 55 465 q 115 537 97 522 q 147 553 134 553 q 156 532 156 553 q 152 504 156 518 l 63 224 q 36 139 48 179 q 25 63 25 99 q 105 -24 25 -24 q 281 81 197 -24 q 331 155 316 123 q 347 198 347 187 q 335 216 347 216 q 311 197 323 216 q 286 156 299 178 q 257 115 273 134 q 222 97 241 97 q 209 119 209 97 q 226 190 209 141 l 294 397 m 235 922 q 181 963 209 963 q 149 947 163 963 q 136 904 136 932 q 145 876 136 889 q 170 848 155 863 l 312 718 l 369 718 l 235 922 "},"±":{"x_min":172.234375,"x_max":984.796875,"ha":1157,"o":"m 636 818 l 521 818 l 521 592 l 172 592 l 172 479 l 521 479 l 521 252 l 636 252 l 636 479 l 984 479 l 984 592 l 636 592 l 636 818 m 984 124 l 172 124 l 172 10 l 984 10 l 984 124 "},"Ú":{"x_min":60,"x_max":865.9375,"ha":788,"o":"m 732 647 q 758 748 747 709 q 792 801 768 787 q 816 809 803 808 q 840 813 829 810 q 858 823 852 816 q 865 847 865 830 q 835 875 865 875 q 801 871 818 875 q 764 868 783 868 q 683 870 714 868 q 639 873 652 873 q 607 847 607 873 q 611 828 607 834 q 623 819 615 822 q 641 817 631 817 q 664 813 652 816 q 700 770 700 804 q 695 733 700 756 q 683 676 690 709 l 604 326 q 517 111 572 185 q 363 37 461 37 q 262 74 297 37 q 227 181 227 111 q 234 252 227 208 q 257 358 242 296 l 349 730 q 372 788 360 772 q 418 810 385 805 q 458 819 443 815 q 472 847 472 823 q 438 875 472 875 q 392 869 431 875 q 279 863 354 863 q 178 868 211 863 q 139 872 144 872 q 105 841 105 872 q 117 820 105 825 q 141 811 128 815 q 165 798 154 806 q 176 765 176 790 q 174 734 176 758 q 161 673 171 709 l 94 411 q 69 303 79 353 q 60 208 60 253 q 129 34 60 94 q 332 -26 199 -26 q 463 -3 410 -26 q 552 62 515 18 q 613 174 588 107 q 658 332 638 241 l 732 647 m 650 1098 q 688 1159 688 1124 q 674 1201 688 1184 q 643 1219 660 1219 q 582 1180 614 1219 l 414 974 l 472 974 l 650 1098 "},"|":{"x_min":287,"x_max":408,"ha":695,"o":"m 408 1061 l 287 1061 l 287 -328 l 408 -328 l 408 1061 "},"§":{"x_min":4,"x_max":483,"ha":556,"o":"m 302 599 q 235 764 235 707 q 259 833 235 807 q 322 860 283 860 q 363 846 347 860 q 379 818 379 833 q 373 802 379 809 q 361 784 367 794 q 349 764 355 775 q 344 737 344 753 q 363 689 344 709 q 408 669 383 669 q 459 695 435 669 q 483 762 483 721 q 440 860 483 821 q 319 900 398 900 q 185 851 235 900 q 136 725 136 802 q 204 542 136 640 l 198 542 q 76 494 123 542 q 30 367 30 446 q 50 268 30 315 q 105 168 71 221 l 188 39 q 233 -39 216 -3 q 250 -123 250 -74 q 225 -197 250 -169 q 161 -226 201 -226 q 116 -212 133 -226 q 100 -180 100 -199 q 105 -160 100 -170 q 118 -139 111 -151 q 131 -116 126 -128 q 137 -89 137 -105 q 120 -38 137 -57 q 77 -19 102 -19 q 26 -46 49 -19 q 4 -114 4 -73 q 47 -220 4 -176 q 170 -264 91 -264 q 308 -216 257 -264 q 360 -89 360 -168 q 344 0 360 -47 q 293 98 328 49 q 416 144 371 98 q 461 271 461 191 q 439 373 461 324 q 383 474 418 421 l 302 599 m 364 224 q 345 167 364 188 q 299 147 327 147 q 241 177 266 147 q 184 262 216 208 q 140 350 155 311 q 126 417 126 390 q 148 472 126 449 q 199 495 170 495 q 308 379 242 495 q 350 294 336 332 q 364 224 364 256 "},"Ý":{"x_min":15,"x_max":740,"ha":599,"o":"m 294 731 q 288 758 291 746 q 285 778 285 770 q 297 810 285 802 q 324 822 309 819 q 350 831 338 826 q 362 854 362 837 q 355 874 362 869 q 334 879 349 879 q 299 875 324 879 q 231 872 274 872 q 96 877 142 872 q 42 883 51 883 q 15 856 15 883 q 30 828 15 833 q 58 817 46 823 q 84 793 80 808 q 94 759 88 778 l 184 417 q 190 394 187 404 q 192 376 192 385 q 192 365 192 372 q 190 348 192 358 l 167 223 q 143 117 156 155 q 109 69 130 80 q 82 60 96 62 q 54 56 67 59 q 32 46 41 53 q 23 23 23 39 q 56 -6 23 -6 q 103 0 69 -6 q 196 6 137 6 q 314 1 271 6 q 369 -3 356 -3 q 398 24 398 -3 q 387 48 398 46 q 359 53 377 51 q 328 68 340 56 q 317 92 317 80 q 321 125 317 109 q 328 159 326 141 l 377 399 l 460 527 q 574 696 528 631 q 648 784 620 760 q 680 804 663 798 q 710 816 696 810 q 731 829 723 822 q 740 852 740 837 q 710 873 740 873 q 680 870 701 873 q 626 868 659 868 q 546 871 576 868 q 508 875 517 875 q 477 849 477 875 q 489 827 477 833 q 514 819 501 822 q 539 809 527 816 q 551 784 551 802 q 535 743 551 769 q 495 677 520 717 l 359 454 l 294 731 m 555 1098 q 593 1159 593 1124 q 579 1201 593 1184 q 548 1219 565 1219 q 487 1180 519 1219 l 319 974 l 377 974 l 555 1098 "},"b":{"x_min":11,"x_max":618,"ha":667,"o":"m 376 940 q 379 958 379 951 q 380 965 380 964 q 376 976 380 971 q 366 981 372 981 q 345 973 359 981 q 305 956 330 965 q 241 940 280 947 q 147 932 202 932 q 114 928 126 932 q 102 900 102 924 q 113 884 102 889 q 138 876 124 879 q 162 867 151 872 q 173 851 173 862 q 170 824 173 840 q 159 786 166 808 l 49 382 q 20 261 30 315 q 11 165 11 207 q 55 22 11 71 q 184 -26 99 -26 q 481 107 359 -26 q 582 267 547 178 q 618 445 618 357 q 581 590 618 537 q 490 643 544 643 q 422 623 455 643 q 356 566 390 604 q 284 473 322 529 q 202 344 247 417 l 376 940 m 387 486 q 426 420 426 486 q 407 317 426 380 q 348 179 389 254 q 189 25 262 25 q 142 88 142 25 q 238 327 142 162 q 320 446 286 406 q 387 486 353 486 "},"q":{"x_min":-11,"x_max":669.609375,"ha":668,"o":"m 415 593 q 454 577 442 593 q 465 526 465 562 q 440 423 465 490 q 363 262 416 356 q 277 133 315 175 q 205 91 240 91 q 161 161 161 91 q 180 268 161 197 q 248 427 199 338 q 415 593 337 593 m 594 384 q 647 575 625 513 q 669 647 669 637 q 654 670 669 670 q 632 662 641 670 q 614 644 623 653 q 592 626 604 634 q 562 617 580 617 q 505 632 537 617 q 425 647 472 647 q 280 609 352 647 q 140 497 208 572 q 27 322 65 415 q -11 134 -11 230 q 22 15 -11 57 q 108 -26 55 -26 q 249 40 176 -26 q 395 242 322 107 l 297 -155 q 279 -206 289 -187 q 239 -236 269 -226 q 209 -243 223 -240 q 183 -251 194 -247 q 165 -263 172 -255 q 158 -283 158 -270 q 164 -300 158 -293 q 177 -307 169 -307 q 245 -298 198 -307 q 364 -290 293 -290 q 470 -297 430 -290 q 527 -305 511 -305 q 547 -284 547 -305 q 534 -260 547 -268 q 505 -245 520 -252 q 477 -229 490 -238 q 464 -201 464 -220 q 473 -133 464 -180 l 594 384 "},"Ö":{"x_min":30,"x_max":815,"ha":851,"o":"m 469 901 q 303 862 382 901 q 162 757 223 824 q 66 596 102 689 q 30 392 30 502 q 55 216 30 295 q 126 83 81 138 q 233 -1 171 28 q 369 -31 295 -31 q 677 114 546 -31 q 815 481 815 267 q 788 652 815 574 q 715 785 762 730 q 605 870 669 839 q 469 901 542 901 m 632 599 q 627 508 632 556 q 613 410 622 459 q 591 313 604 360 q 562 223 579 265 q 471 77 526 126 q 359 29 416 29 q 251 92 291 29 q 211 277 211 155 q 234 494 211 385 q 298 698 258 604 q 380 813 331 773 q 481 854 429 854 q 591 790 551 854 q 632 599 632 726 m 675 1167 q 619 1141 643 1167 q 595 1086 595 1116 q 619 1027 595 1051 q 675 1003 643 1003 q 734 1026 710 1003 q 758 1086 758 1050 q 733 1142 758 1118 q 675 1167 709 1167 m 448 1167 q 391 1141 416 1167 q 366 1086 366 1116 q 391 1027 366 1051 q 448 1003 416 1003 q 506 1026 482 1003 q 530 1086 530 1050 q 505 1142 530 1118 q 448 1167 481 1167 "},"ﬂ":{"x_min":-273,"x_max":753,"ha":717,"o":"m 639 909 q 568 953 603 939 q 490 967 533 967 q 260 877 355 967 q 125 617 164 787 l 60 617 q 31 576 31 617 q 49 559 31 559 l 110 559 l 39 234 q -3 27 14 117 q -36 -124 -21 -62 q -66 -217 -52 -186 q -99 -249 -81 -249 q -127 -203 -127 -249 q -126 -189 -127 -196 q -125 -174 -125 -182 q -144 -107 -125 -130 q -195 -83 -163 -83 q -250 -111 -227 -83 q -273 -179 -273 -139 q -237 -272 -273 -237 q -135 -307 -202 -307 q 0 -259 -63 -307 q 110 -119 61 -212 q 180 88 153 -36 q 240 378 207 213 l 276 559 l 378 559 q 400 567 393 559 q 407 599 407 575 q 389 617 407 617 l 289 617 q 451 913 354 913 q 484 904 468 913 q 512 882 500 896 q 531 851 523 868 q 539 816 539 835 q 533 777 539 794 l 400 271 q 376 165 383 208 q 368 98 368 122 q 391 14 368 45 q 455 -17 414 -17 q 535 11 493 -17 q 618 97 578 40 q 660 164 647 137 q 673 198 673 191 q 662 216 673 216 q 639 199 647 216 q 616 159 632 183 q 551 97 575 97 q 539 119 539 97 q 544 156 539 135 l 732 858 q 746 907 740 890 q 753 930 753 925 q 747 946 753 939 q 734 953 741 953 q 701 939 723 953 q 639 909 679 925 "},"z":{"x_min":-65.28125,"x_max":609.765625,"ha":592,"o":"m 87 92 q 240 217 175 158 q 352 325 305 276 q 429 411 398 373 q 480 473 461 450 q 525 516 502 499 q 567 546 548 533 q 597 572 586 559 q 609 605 609 586 q 600 631 609 620 q 576 641 591 641 q 539 627 554 641 q 506 591 525 613 l 483 563 q 463 561 472 562 q 447 561 454 561 q 386 572 418 561 q 322 599 355 584 q 256 627 290 614 q 190 640 223 640 q 129 626 158 640 q 80 588 101 612 q 47 534 59 564 q 34 470 34 503 q 43 414 34 434 q 63 395 52 395 q 79 413 79 395 q 77 431 79 423 q 76 446 76 439 q 84 470 76 461 q 106 480 93 480 q 134 472 119 480 q 165 458 148 465 q 204 443 183 450 q 251 436 226 436 q 450 494 322 436 q 284 354 354 419 q 167 239 215 290 q 90 155 119 189 q 43 109 61 121 q -36 83 -8 107 q -65 29 -65 59 q -54 4 -65 14 q -23 -5 -43 -5 q 24 9 1 -5 q 76 53 47 25 l 104 53 q 158 40 130 53 q 215 13 186 27 q 275 -13 244 -1 q 338 -25 306 -25 q 402 -10 372 -25 q 454 27 431 4 q 491 82 477 51 q 505 145 505 113 q 492 205 505 183 q 468 227 479 227 q 458 209 458 227 q 459 199 458 205 q 459 186 459 192 q 420 136 459 136 q 394 141 408 136 q 366 155 380 147 q 334 168 351 162 q 300 174 318 174 q 255 164 277 174 q 208 142 233 155 q 153 115 183 129 q 87 92 123 101 "},"™":{"x_min":157.9375,"x_max":969.828125,"ha":1142,"o":"m 469 982 l 164 982 l 157 853 l 177 853 q 266 958 187 958 l 276 958 l 276 671 q 251 635 276 637 l 228 633 l 228 614 l 405 614 l 405 633 l 384 635 q 358 671 358 638 l 358 958 l 364 958 q 428 932 408 958 q 455 853 449 906 l 476 853 l 469 982 m 656 982 l 522 982 l 522 961 l 544 959 q 572 923 572 956 l 572 670 q 544 635 572 638 l 522 633 l 522 614 l 655 614 l 655 633 l 631 635 q 605 671 605 637 l 605 930 l 720 612 l 738 612 l 850 926 l 850 671 q 823 635 850 637 l 802 633 l 802 614 l 969 614 l 969 633 l 951 635 q 924 671 924 639 l 924 926 q 951 962 924 958 l 969 963 l 969 982 l 841 982 l 748 723 l 656 982 "},"ã":{"x_min":-11,"x_max":685.1875,"ha":736,"o":"m 556 656 q 526 653 535 656 q 511 636 518 651 l 500 611 q 404 645 458 645 q 259 599 336 645 q 111 462 183 554 q -11 134 -11 307 q 23 15 -11 58 q 107 -28 58 -28 q 257 48 182 -28 q 421 277 333 124 l 396 157 q 383 95 389 124 q 378 38 378 66 q 393 -5 378 12 q 437 -24 409 -24 q 528 2 480 -24 q 619 82 575 28 q 669 158 654 125 q 685 197 685 191 q 674 216 685 216 q 653 200 664 216 q 631 165 643 184 q 604 131 618 146 q 572 116 590 116 q 558 123 561 116 q 556 149 556 131 q 557 171 556 157 q 562 200 558 185 l 671 604 q 676 629 675 619 q 676 643 676 639 q 644 656 676 656 l 556 656 m 426 596 q 477 529 477 596 q 452 429 477 494 q 374 273 427 365 q 288 146 326 188 q 216 104 251 104 q 172 174 172 104 q 192 281 172 212 q 259 433 212 350 q 426 596 348 596 m 572 925 q 517 869 561 869 q 483 876 508 869 l 436 891 q 404 897 421 897 q 335 856 364 897 q 296 733 307 815 l 332 733 q 350 780 339 765 q 385 796 362 796 q 397 794 390 796 q 412 790 404 793 l 469 772 q 500 768 486 768 q 569 807 540 768 q 609 925 597 846 l 572 925 "},"æ":{"x_min":-11,"x_max":963,"ha":999,"o":"m 555 656 q 526 653 535 656 q 511 636 518 651 l 500 611 q 404 645 458 645 q 259 599 336 645 q 111 462 183 554 q -11 134 -11 307 q 23 15 -11 58 q 106 -28 58 -28 q 401 244 241 -28 q 456 41 403 110 q 597 -28 509 -28 q 727 4 662 -28 q 844 99 792 37 q 890 180 890 155 q 874 198 890 198 q 855 186 865 198 q 827 154 845 173 q 751 89 788 111 q 684 68 715 68 q 602 108 633 68 q 572 224 572 149 q 572 240 572 231 q 573 258 572 248 q 745 288 672 270 q 867 332 819 305 q 939 399 915 359 q 963 497 963 438 q 919 608 963 566 q 800 650 876 650 q 658 616 733 650 q 662 640 662 633 q 655 653 662 651 q 630 656 648 656 l 555 656 m 426 596 q 477 529 477 596 q 452 429 477 494 q 374 273 427 365 q 288 146 326 188 q 216 104 251 104 q 172 174 172 104 q 192 281 172 212 q 259 433 212 350 q 426 596 348 596 m 582 312 q 666 527 615 455 q 761 600 717 600 q 788 583 778 600 q 799 538 799 566 q 783 456 799 497 q 739 384 768 416 q 673 331 711 351 q 589 312 635 312 l 582 312 "},"®":{"x_min":82,"x_max":1060,"ha":1142,"o":"m 572 950 q 384 912 473 950 q 225 805 294 874 q 118 645 155 734 q 82 459 82 556 q 226 113 82 258 q 382 8 295 44 q 561 -28 469 -28 q 907 106 771 -28 q 1020 269 980 178 q 1060 454 1060 360 q 1023 644 1060 554 q 921 802 987 734 q 762 911 853 873 q 572 950 671 950 m 993 459 q 961 299 993 376 q 868 159 929 222 q 732 67 808 98 q 571 36 657 36 q 273 159 397 36 q 180 296 212 220 q 149 459 149 372 q 180 621 149 545 q 272 759 211 697 q 409 853 332 821 q 572 885 487 885 q 732 853 655 885 q 868 762 809 821 q 959 623 926 702 q 993 459 993 543 m 587 743 l 316 743 l 316 709 q 377 693 361 706 q 393 644 393 680 l 393 291 q 377 241 393 255 q 316 225 361 228 l 316 194 l 580 194 l 580 225 q 522 243 538 230 q 507 291 507 256 l 507 458 l 523 458 q 647 359 624 458 q 652 290 654 327 q 670 220 651 252 q 760 181 697 181 q 876 299 876 181 l 876 315 l 842 315 q 802 225 842 225 q 779 234 785 225 q 769 258 772 243 q 765 293 766 273 q 759 331 763 312 q 711 419 747 387 q 612 468 676 451 q 758 518 712 486 q 804 609 804 549 q 747 704 804 665 q 587 743 691 743 m 507 665 q 570 711 507 711 q 654 680 623 711 q 685 604 685 649 q 648 518 685 548 q 543 489 612 489 q 530 489 540 489 q 507 490 522 489 l 507 665 "},"É":{"x_min":-75,"x_max":698.671875,"ha":671,"o":"m 236 875 q 193 875 215 875 q 148 876 172 876 q 116 848 116 876 q 127 826 116 831 q 151 816 138 820 q 175 803 163 812 q 186 769 186 794 q 177 712 186 749 l 48 139 q 25 80 38 96 q -20 59 11 64 q -59 50 -44 55 q -75 23 -75 46 q -34 -6 -75 -6 q 11 -2 -18 -6 q 83 0 40 0 l 465 0 q 493 0 480 0 q 516 -1 505 -1 q 547 7 540 -1 q 562 45 555 16 q 582 136 576 101 q 588 184 588 170 q 581 208 588 198 q 566 217 575 217 q 547 209 555 217 q 533 187 540 201 q 518 157 526 173 q 498 126 511 141 q 459 89 479 102 q 417 70 438 76 q 372 62 395 63 q 322 61 348 61 q 250 67 276 61 q 223 101 223 73 q 233 167 223 124 l 293 436 l 370 436 q 447 420 422 436 q 473 365 473 405 q 470 338 473 351 q 468 309 468 324 q 476 290 468 298 q 494 281 484 281 q 521 310 515 281 q 536 383 527 338 q 566 517 551 469 q 580 585 580 566 q 561 616 580 616 q 541 607 548 616 q 527 585 533 598 q 513 557 520 571 q 494 530 506 542 q 450 505 473 510 q 397 501 427 501 l 308 501 l 351 692 q 365 750 358 720 q 383 814 372 780 l 493 814 q 593 757 573 814 q 600 720 598 739 q 602 687 601 702 q 609 662 604 672 q 630 652 615 652 q 652 666 647 652 q 662 701 657 680 l 697 843 q 698 855 698 848 q 670 875 698 875 l 236 875 m 591 1098 q 629 1159 629 1124 q 615 1201 629 1184 q 584 1219 601 1219 q 523 1180 555 1219 l 355 974 l 413 974 l 591 1098 "},"~":{"x_min":121,"x_max":1038,"ha":1157,"o":"m 1038 407 l 1038 532 q 904 454 967 480 q 780 428 842 428 q 681 443 729 428 q 582 477 633 459 q 491 505 539 493 q 383 518 443 518 q 121 421 264 518 l 121 294 q 258 375 196 347 q 382 403 321 403 q 513 380 448 403 q 650 334 578 358 q 779 311 718 311 q 906 335 842 311 q 1038 407 969 359 "},"³":{"x_min":-53.140625,"x_max":379,"ha":431,"o":"m 148 633 q 320 701 261 668 q 379 791 379 734 q 343 864 379 837 q 242 892 308 892 q 178 880 206 892 q 129 854 149 869 q 98 824 109 838 q 87 802 87 809 q 101 791 87 791 q 117 801 108 791 q 138 822 126 810 q 167 844 151 834 q 205 854 184 854 q 245 837 230 854 q 261 791 261 820 q 228 715 261 751 q 142 656 196 679 q 70 627 98 637 q 42 602 42 618 q 46 592 42 595 q 55 588 51 588 q 84 597 62 588 q 142 607 106 607 q 208 579 184 607 q 233 500 233 552 q 218 421 233 458 q 182 354 203 383 q 137 308 162 325 q 94 292 113 292 q 67 302 76 292 q 46 332 59 312 q 19 364 31 353 q -11 375 6 375 q -41 362 -29 375 q -53 330 -53 350 q -23 279 -53 298 q 57 261 5 261 q 174 280 120 261 q 269 331 228 299 q 332 406 309 363 q 355 498 355 449 q 315 598 355 561 q 200 636 275 636 q 179 636 193 636 q 148 633 167 636 "},"¡":{"x_min":-6,"x_max":346,"ha":360,"o":"m 276 903 q 212 872 239 903 q 185 790 185 841 q 204 722 185 746 q 257 699 223 699 q 318 729 290 699 q 346 811 346 760 q 327 879 346 855 q 276 903 308 903 m 229 650 q 188 600 208 650 q 127 451 167 551 q 30 210 66 302 q -6 72 -6 118 q 16 8 -6 32 q 73 -15 38 -15 q 164 39 135 -15 q 204 197 192 93 q 250 616 250 598 q 229 650 250 650 "},"[":{"x_min":-51,"x_max":468,"ha":438,"o":"m 262 900 q 224 888 237 900 q 204 850 211 876 l -44 -195 q -49 -223 -48 -212 q -51 -240 -51 -234 q -41 -258 -51 -248 q -20 -268 -31 -268 l 187 -268 q 202 -253 194 -268 q 209 -217 209 -238 q 202 -204 209 -204 l 143 -204 q 109 -188 109 -204 q 114 -158 109 -179 l 338 785 q 354 823 345 810 q 383 837 362 837 l 448 837 q 461 851 455 837 q 468 884 468 865 q 461 900 468 900 l 262 900 "},"L":{"x_min":-76.390625,"x_max":556.984375,"ha":604,"o":"m 358 730 q 381 789 368 772 q 427 810 395 806 q 468 819 452 815 q 483 847 483 823 q 447 875 483 875 q 402 869 440 875 q 290 863 365 863 q 187 868 220 863 q 148 872 154 872 q 115 843 115 872 q 126 820 115 825 q 150 811 137 815 q 175 798 163 806 q 186 765 186 790 q 170 673 186 745 l 48 140 q 25 81 38 97 q -19 59 12 65 q -60 51 -44 55 q -76 23 -76 47 q -40 -4 -76 -4 q 33 0 -33 -4 q 241 5 100 5 q 410 1 354 5 q 475 -2 466 -2 q 511 7 505 -2 q 522 46 516 18 q 545 142 533 104 q 556 200 556 181 q 533 236 556 236 q 513 228 520 236 q 499 208 505 221 q 484 177 493 194 q 462 142 476 160 q 386 78 426 94 q 281 63 345 63 q 219 101 219 63 q 222 127 219 112 q 229 160 225 142 l 358 730 "},";":{"x_min":-36.328125,"x_max":239,"ha":353,"o":"m 75 417 q 95 354 75 377 q 148 332 116 332 q 212 364 186 332 q 239 447 239 397 q 218 510 239 487 q 165 533 197 533 q 101 501 127 533 q 75 417 75 470 m 84 188 q 22 156 48 188 q -3 82 -3 124 q 42 5 -3 18 q 78 -3 67 -1 q 89 -24 89 -5 q 74 -78 89 -49 q 28 -142 59 -106 q -16 -187 2 -173 q -36 -219 -36 -201 q -30 -236 -36 -229 q -18 -243 -25 -243 q 84 -147 6 -243 q 145 -45 124 -95 q 166 62 166 4 q 143 155 166 122 q 84 188 120 188 "}," ":{"x_min":0,"x_max":0,"ha":325},"%":{"x_min":36,"x_max":761,"ha":810,"o":"m 36 629 q 75 495 36 544 q 181 446 115 446 q 264 466 224 446 q 335 524 305 487 q 382 609 364 561 q 401 713 401 658 q 360 852 401 803 q 249 901 319 901 q 167 879 206 901 q 99 821 128 858 q 53 734 70 784 q 36 629 36 684 m 648 900 l 86 -26 l 148 -26 l 712 900 l 648 900 m 256 866 q 308 767 308 866 q 296 664 308 714 q 267 573 285 613 q 227 509 249 533 q 183 485 205 485 q 132 573 132 485 q 144 683 132 630 q 175 776 156 735 q 215 841 194 817 q 256 866 237 866 m 396 155 q 435 22 396 72 q 541 -28 475 -28 q 624 -7 584 -28 q 695 50 665 13 q 742 135 724 87 q 761 240 761 184 q 720 379 761 330 q 609 429 680 429 q 527 407 566 429 q 459 349 488 385 q 413 262 430 312 q 396 155 396 212 m 615 391 q 653 366 639 391 q 667 300 667 341 q 655 189 667 242 q 625 96 643 137 q 584 31 607 55 q 541 8 562 8 q 490 98 490 8 q 502 207 490 155 q 533 301 515 260 q 574 366 552 342 q 615 391 595 391 "},"P":{"x_min":-65.625,"x_max":740,"ha":740,"o":"m 290 433 l 369 798 q 418 806 397 803 q 454 810 438 810 q 564 676 564 810 q 509 492 564 556 q 347 429 454 429 q 290 433 319 429 m 323 375 q 481 384 413 375 q 598 418 549 394 q 701 516 663 450 q 740 662 740 583 q 683 817 740 759 q 533 875 626 875 q 442 872 487 875 q 355 869 398 869 q 207 875 258 869 q 148 881 156 881 q 116 854 116 881 q 119 836 116 841 q 128 827 123 830 q 142 824 134 824 q 159 819 151 823 q 185 773 185 809 q 181 735 185 758 q 170 681 177 713 l 52 150 q 28 86 42 105 q -18 59 13 66 q -52 50 -39 55 q -65 22 -65 46 q -32 -4 -65 -4 q 8 0 -23 -4 q 101 5 41 5 q 225 0 181 5 q 278 -4 269 -4 q 309 25 309 -4 q 294 49 309 46 q 251 60 278 53 q 219 100 219 67 q 222 126 219 111 q 230 161 226 142 l 277 375 l 323 375 "},"À":{"x_min":-72.234375,"x_max":630.609375,"ha":682,"o":"m 480 831 q 472 886 475 871 q 444 901 469 901 q 406 889 419 901 q 373 835 394 877 l 25 130 q -4 91 12 103 q -36 70 -22 78 q -61 53 -51 62 q -72 29 -72 45 q -63 8 -72 13 q -36 4 -54 4 q -4 6 -23 4 q 43 8 15 8 q 100 6 77 8 q 137 4 123 4 l 145 4 q 183 32 183 4 q 169 53 183 47 q 139 66 155 59 q 109 82 123 72 q 95 112 95 91 q 99 134 95 118 q 113 175 102 150 l 165 296 l 375 296 l 394 145 q 397 123 397 132 q 397 112 397 115 q 358 65 397 73 q 320 52 334 61 q 306 20 306 43 q 344 -1 306 -1 q 398 3 358 -1 q 508 8 438 8 q 568 5 547 8 q 595 2 588 2 q 630 33 630 2 q 622 53 630 48 q 605 64 615 58 q 586 83 595 70 q 572 127 576 95 l 480 831 m 331 645 l 365 368 l 195 368 q 259 503 226 434 q 331 645 293 572 m 427 1178 q 373 1219 401 1219 q 341 1203 355 1219 q 328 1160 328 1188 q 337 1132 328 1145 q 362 1104 347 1119 l 504 974 l 561 974 l 427 1178 "},"_":{"x_min":0,"x_max":694.5,"ha":695,"o":"m 694 -211 l 0 -211 l 0 -328 l 694 -328 l 694 -211 "},"ñ":{"x_min":-1.125,"x_max":667.78125,"ha":718,"o":"m 619 425 q 640 542 640 492 q 615 618 640 592 q 545 645 590 645 q 250 342 403 645 l 268 421 q 283 501 279 465 q 288 561 288 536 q 218 645 288 645 q 142 621 182 645 q 62 548 103 597 q -1 448 -1 472 q 12 432 -1 432 q 34 447 22 432 q 59 481 46 462 q 87 516 72 500 q 118 532 101 532 q 135 505 135 532 q 133 481 135 498 q 125 440 132 463 l 23 36 q 21 27 22 30 q 21 19 21 23 q 25 6 21 12 q 33 0 29 0 l 150 0 q 176 12 168 0 q 192 52 184 25 q 211 125 200 80 q 250 235 223 169 q 308 366 279 310 q 365 460 338 422 q 414 517 392 498 q 448 537 435 537 q 462 531 456 537 q 469 514 469 525 q 466 489 469 506 q 455 446 463 472 l 384 216 q 366 145 371 176 q 362 95 362 115 q 385 13 362 44 q 449 -17 409 -17 q 528 10 485 -17 q 610 95 570 38 q 653 163 640 135 q 667 198 667 191 q 655 216 667 216 q 632 197 644 216 q 606 156 620 178 q 576 115 592 134 q 542 97 560 97 q 530 119 530 97 q 534 151 530 134 q 545 190 538 167 l 619 425 m 564 925 q 509 869 553 869 q 475 876 500 869 l 428 891 q 396 897 413 897 q 327 856 356 897 q 288 733 299 815 l 324 733 q 342 780 331 765 q 377 796 354 796 q 389 794 382 796 q 404 790 396 793 l 461 772 q 492 768 478 768 q 561 807 532 768 q 601 925 589 846 l 564 925 "},"+":{"x_min":172.359375,"x_max":984.640625,"ha":1157,"o":"m 636 827 l 521 827 l 521 471 l 172 471 l 172 358 l 521 358 l 521 0 l 636 0 l 636 358 l 984 358 l 984 471 l 636 471 l 636 827 "},"‚":{"x_min":-54.609375,"x_max":155,"ha":325,"o":"m -6 76 q 4 28 -6 44 q 27 4 14 13 q 50 -12 39 -4 q 60 -35 60 -19 q 42 -82 60 -60 q 3 -123 24 -104 q -36 -157 -18 -141 q -54 -186 -54 -173 q -49 -198 -54 -193 q -37 -203 -44 -203 q 0 -186 -26 -203 q 62 -133 25 -169 q 132 -38 109 -85 q 155 66 155 7 q 133 139 155 110 q 78 169 111 169 q 18 142 43 169 q -6 76 -6 116 "},"½":{"x_min":15,"x_max":971,"ha":1006,"o":"m 338 854 q 344 877 344 870 q 332 891 344 891 q 287 875 324 891 q 174 836 249 859 q 120 818 141 825 q 99 798 99 812 q 113 786 99 786 q 132 789 121 786 q 155 797 144 793 q 178 804 167 801 q 196 808 189 808 q 210 802 210 808 q 201 754 210 793 l 121 463 q 103 426 114 436 q 63 413 91 416 q 27 409 39 411 q 15 394 15 408 q 35 380 15 380 q 87 384 44 380 q 209 388 130 388 q 264 386 244 388 q 292 383 285 383 q 316 401 316 383 q 295 415 316 412 q 246 420 264 416 q 228 444 228 425 q 238 491 228 458 l 338 854 m 716 900 l 223 -26 l 286 -26 l 779 900 l 716 900 m 682 97 q 742 148 712 127 q 799 186 772 170 q 848 215 826 203 q 887 239 871 228 q 971 377 971 297 q 931 467 971 433 q 826 501 891 501 q 698 449 753 501 q 668 410 677 430 q 658 383 658 390 q 668 372 658 372 q 682 382 675 372 q 704 412 690 392 q 743 448 721 436 q 787 461 765 461 q 835 440 818 461 q 853 384 853 420 q 812 271 853 325 q 697 150 771 217 q 596 58 630 91 q 562 12 562 26 q 583 0 562 0 q 605 1 591 0 q 636 2 618 2 l 850 2 q 857 1 853 2 q 869 0 861 0 q 884 6 880 0 q 890 22 887 13 l 911 101 q 918 133 918 128 q 908 142 918 142 q 897 135 901 142 q 887 119 893 128 q 870 103 880 110 q 839 97 859 97 l 682 97 "},"Æ":{"x_min":-131.953125,"x_max":1055.640625,"ha":1029,"o":"m 497 875 q 443 876 465 875 q 409 878 422 878 q 376 848 376 878 q 384 825 376 830 q 400 819 391 821 q 417 814 409 818 q 425 797 425 811 q 421 783 425 794 q 409 759 418 772 l 4 143 q -43 87 -22 104 q -97 57 -65 71 q -122 41 -113 50 q -131 14 -131 32 q -108 -4 -131 -4 q -52 1 -80 -4 q 5 7 -23 7 q 59 1 37 7 q 97 -4 81 -4 q 130 22 130 -4 q 120 45 130 37 q 97 58 109 53 q 74 72 84 64 q 63 97 63 80 q 111 205 63 130 l 250 427 l 469 427 l 406 142 q 381 80 397 99 q 337 60 366 62 q 297 52 312 57 q 281 24 281 47 q 319 -6 281 -6 q 370 0 329 -6 q 488 7 412 7 q 776 2 682 7 q 882 -3 870 -3 q 905 6 898 -3 q 920 44 912 16 q 941 138 936 99 q 947 184 947 177 q 923 216 947 216 q 903 208 911 216 q 889 186 895 199 q 875 156 883 172 q 855 126 868 140 q 777 71 819 81 q 683 61 736 61 q 607 67 634 61 q 580 102 580 73 q 583 133 580 117 q 590 167 586 148 l 647 436 l 729 436 q 805 421 780 436 q 830 366 830 406 q 827 337 830 351 q 825 308 825 323 q 832 289 825 297 q 851 281 840 281 q 878 308 872 281 q 891 376 884 334 q 922 519 908 469 q 937 581 937 569 q 918 616 937 616 q 897 607 905 616 q 884 584 890 598 q 870 555 877 570 q 851 528 863 541 q 808 505 832 509 q 754 501 784 501 l 662 501 l 702 694 q 715 749 708 719 q 733 814 722 779 l 850 814 q 950 757 930 814 q 957 721 955 740 q 959 687 958 702 q 966 662 961 672 q 987 652 972 652 q 1009 666 1004 652 q 1019 701 1013 680 l 1054 843 q 1055 855 1055 848 q 1027 875 1055 875 l 497 875 m 530 710 l 481 492 l 295 492 l 468 751 q 519 800 500 800 q 537 765 537 800 q 536 744 537 758 q 530 710 534 729 "},"Ë":{"x_min":-75,"x_max":698.671875,"ha":671,"o":"m 236 875 q 193 875 215 875 q 148 876 172 876 q 116 848 116 876 q 127 826 116 831 q 151 816 138 820 q 175 803 163 812 q 186 769 186 794 q 177 712 186 749 l 48 139 q 25 80 38 96 q -20 59 11 64 q -59 50 -44 55 q -75 23 -75 46 q -34 -6 -75 -6 q 11 -2 -18 -6 q 83 0 40 0 l 465 0 q 493 0 480 0 q 516 -1 505 -1 q 547 7 540 -1 q 562 45 555 16 q 582 136 576 101 q 588 184 588 170 q 581 208 588 198 q 566 217 575 217 q 547 209 555 217 q 533 187 540 201 q 518 157 526 173 q 498 126 511 141 q 459 89 479 102 q 417 70 438 76 q 372 62 395 63 q 322 61 348 61 q 250 67 276 61 q 223 101 223 73 q 233 167 223 124 l 293 436 l 370 436 q 447 420 422 436 q 473 365 473 405 q 470 338 473 351 q 468 309 468 324 q 476 290 468 298 q 494 281 484 281 q 521 310 515 281 q 536 383 527 338 q 566 517 551 469 q 580 585 580 566 q 561 616 580 616 q 541 607 548 616 q 527 585 533 598 q 513 557 520 571 q 494 530 506 542 q 450 505 473 510 q 397 501 427 501 l 308 501 l 351 692 q 365 750 358 720 q 383 814 372 780 l 493 814 q 593 757 573 814 q 600 720 598 739 q 602 687 601 702 q 609 662 604 672 q 630 652 615 652 q 652 666 647 652 q 662 701 657 680 l 697 843 q 698 855 698 848 q 670 875 698 875 l 236 875 m 584 1167 q 528 1141 552 1167 q 504 1086 504 1116 q 528 1027 504 1051 q 584 1003 552 1003 q 643 1026 619 1003 q 667 1086 667 1050 q 642 1142 667 1118 q 584 1167 618 1167 m 357 1167 q 300 1141 325 1167 q 275 1086 275 1116 q 300 1027 275 1051 q 357 1003 325 1003 q 415 1026 391 1003 q 439 1086 439 1050 q 414 1142 439 1118 q 357 1167 390 1167 "},"'":{"x_min":57,"x_max":186,"ha":243,"o":"m 108 581 l 134 581 l 184 892 q 186 904 186 898 q 186 918 186 911 q 120 992 186 992 q 57 918 57 992 q 57 904 57 911 q 58 892 57 898 l 108 581 "},"Š":{"x_min":-0.140625,"x_max":626,"ha":615,"o":"m 599 765 q 603 792 602 781 q 605 806 605 802 q 588 835 605 819 q 543 865 572 851 q 476 890 515 880 q 394 900 437 900 q 291 881 338 900 q 209 829 244 862 q 155 752 174 797 q 136 655 136 708 q 167 523 136 584 q 255 394 199 462 q 295 344 276 368 q 329 296 315 320 q 352 246 344 272 q 361 189 361 219 q 349 125 361 154 q 316 74 337 96 q 267 40 295 53 q 205 28 238 28 q 120 56 154 28 q 76 137 87 84 q 70 180 72 159 q 65 214 69 200 q 56 238 62 229 q 37 247 49 247 q 10 230 17 247 q 2 176 4 212 l 0 78 l 0 73 q 52 -3 0 21 q 217 -29 105 -29 q 342 -6 286 -29 q 441 55 399 16 q 506 145 483 94 q 529 255 529 197 q 519 330 529 295 q 492 397 509 365 q 451 461 474 430 q 401 526 427 492 q 326 628 355 584 q 297 716 297 672 q 333 804 297 769 q 419 840 369 840 q 526 742 509 840 q 530 708 528 724 q 533 680 531 692 q 541 660 535 667 q 559 652 547 652 q 585 689 578 652 l 599 765 m 302 1212 l 391 974 l 460 974 l 626 1212 l 570 1212 l 436 1089 l 346 1212 l 302 1212 "},"ª":{"x_min":-9,"x_max":514.234375,"ha":553,"o":"m 417 881 q 395 880 401 881 q 383 869 389 879 l 375 851 q 302 875 343 875 q 194 843 252 875 q 82 747 137 811 q -9 517 -9 636 q 17 434 -9 465 q 80 404 44 404 q 193 457 136 404 q 315 618 250 511 l 297 534 q 288 491 292 511 q 284 451 284 470 q 295 419 284 432 q 328 407 307 407 q 396 425 360 407 q 465 482 432 444 q 502 535 490 512 q 514 562 514 558 q 505 575 514 575 q 491 564 498 575 q 473 540 483 553 q 453 517 464 528 q 429 506 443 506 q 417 529 417 506 q 418 544 417 535 q 422 564 419 554 l 503 845 q 506 863 505 856 q 507 873 507 870 q 483 881 507 881 l 417 881 m 319 840 q 358 794 358 840 q 340 724 358 770 q 281 615 322 679 q 216 525 244 555 q 162 496 188 496 q 129 545 129 496 q 144 620 129 572 q 194 726 159 668 q 319 840 262 840 "},"Œ":{"x_min":29,"x_max":1145.75,"ha":1118,"o":"m 727 875 q 589 887 651 875 q 476 899 527 899 q 300 860 381 899 q 158 753 219 821 q 63 593 98 686 q 29 391 29 500 q 52 222 29 298 q 119 90 76 145 q 222 5 162 35 q 356 -24 283 -24 q 476 -10 409 -24 q 622 2 542 2 l 911 2 q 938 1 926 2 q 962 0 951 0 q 994 9 986 0 q 1009 49 1002 18 q 1029 141 1023 107 q 1034 186 1034 175 q 1027 210 1034 200 q 1012 219 1020 219 q 993 210 1001 219 q 978 188 986 201 q 963 158 970 175 q 942 126 955 142 q 863 72 905 81 q 769 63 822 63 q 696 69 723 63 q 669 103 669 75 q 679 169 669 125 l 740 436 l 817 436 q 895 420 869 436 q 920 365 920 405 q 917 338 920 351 q 915 309 915 324 q 922 290 915 298 q 940 281 930 281 q 967 310 961 281 q 981 383 973 338 q 1011 517 997 469 q 1026 585 1026 566 q 1008 616 1026 616 q 988 607 995 616 q 974 585 980 598 q 961 557 967 571 q 941 530 954 542 q 897 505 920 510 q 842 501 873 501 l 755 501 l 798 692 q 809 743 802 713 q 827 814 816 773 l 938 814 q 1038 757 1019 814 q 1045 720 1044 739 q 1048 687 1047 702 q 1055 662 1049 672 q 1076 652 1061 652 q 1097 666 1092 652 q 1108 701 1102 680 l 1144 843 q 1145 855 1145 847 q 1116 875 1145 875 l 727 875 m 616 673 l 504 192 q 454 68 484 107 q 359 30 423 30 q 243 93 284 30 q 203 278 203 156 q 227 496 203 385 q 291 698 251 607 q 483 853 361 853 q 584 816 546 853 q 623 722 623 779 q 621 700 623 711 q 616 673 619 689 "},"˛":{"x_min":179,"x_max":390.5625,"ha":695,"o":"m 325 19 q 215 -95 251 -39 q 179 -212 179 -151 q 203 -283 179 -256 q 265 -311 227 -311 q 390 -199 348 -311 l 373 -187 q 345 -223 360 -211 q 311 -236 330 -236 q 260 -159 260 -236 q 283 -70 260 -112 q 354 19 307 -28 l 325 19 "},"ð":{"x_min":18,"x_max":631.671875,"ha":653,"o":"m 431 822 q 363 911 387 880 q 323 943 338 943 q 310 927 310 943 q 326 882 310 913 q 370 798 342 851 l 201 736 q 182 727 190 732 q 174 707 174 723 q 179 689 174 695 q 191 683 184 683 q 198 684 194 683 q 209 688 202 686 l 387 752 q 424 604 416 673 q 356 614 391 614 q 235 585 295 614 q 126 507 174 557 q 47 387 77 457 q 18 236 18 318 q 33 130 18 179 q 79 47 49 82 q 151 -6 109 12 q 245 -26 192 -26 q 376 3 313 -26 q 486 85 438 32 q 562 210 534 137 q 590 369 590 283 q 558 581 590 477 q 459 780 526 684 l 605 836 q 624 845 616 840 q 631 865 631 849 q 626 881 631 876 q 613 887 620 887 q 596 883 610 887 l 431 822 m 433 434 q 367 141 433 287 q 314 54 341 83 q 253 25 287 25 q 176 151 176 25 q 193 307 176 233 q 237 438 210 382 q 296 529 264 495 q 359 564 328 564 q 412 531 392 564 q 433 434 433 498 "},"T":{"x_min":36.109375,"x_max":757,"ha":668,"o":"m 237 875 q 181 893 186 875 q 175 927 177 911 q 155 944 173 944 q 123 901 136 944 l 73 728 q 68 708 69 716 q 66 695 66 699 q 87 667 66 667 q 112 688 102 667 q 148 749 122 709 q 172 779 161 767 q 197 797 183 791 q 227 805 211 803 q 265 808 243 808 l 319 808 l 162 142 q 136 80 151 96 q 90 59 122 63 q 50 50 65 55 q 36 23 36 46 q 72 -6 36 -6 q 116 0 84 -6 q 204 6 148 6 q 331 1 283 6 q 401 -3 380 -3 q 434 24 434 -3 q 420 48 434 46 q 387 53 406 50 q 351 67 365 56 q 337 91 337 78 q 339 118 337 100 q 347 159 341 135 l 429 524 q 500 808 459 666 l 577 808 q 637 796 622 808 q 652 749 652 785 q 652 725 652 738 q 651 699 651 712 q 673 667 651 667 q 708 712 697 667 l 738 833 q 751 881 745 863 q 757 905 757 898 q 738 930 757 930 q 717 918 723 930 q 698 895 711 906 q 660 877 680 880 q 612 875 640 875 l 237 875 "},"š":{"x_min":-30.53125,"x_max":513,"ha":492,"o":"m 295 395 q 233 473 255 440 q 212 543 212 507 q 257 596 212 596 q 305 570 282 596 q 363 500 329 544 q 397 458 383 473 q 429 443 412 443 q 468 557 468 443 q 416 622 468 598 q 282 646 365 646 q 115 597 177 646 q 54 466 54 548 q 80 367 54 411 q 151 275 106 323 l 201 220 q 243 158 229 188 q 257 101 257 127 q 240 45 257 66 q 200 25 223 25 q 88 131 159 25 q 44 192 61 172 q 12 212 27 212 q -20 189 -11 212 q -30 115 -30 166 q 22 10 -30 45 q 175 -25 76 -25 q 275 -7 230 -25 q 350 38 319 9 q 399 106 382 68 q 417 187 417 144 q 399 267 417 232 q 348 338 382 302 l 295 395 m 189 956 l 278 718 l 347 718 l 513 956 l 457 956 l 323 833 l 233 956 l 189 956 "},"Þ":{"x_min":-65.5,"x_max":704,"ha":740,"o":"m 353 726 q 374 786 356 762 q 424 816 392 809 q 460 826 447 820 q 473 854 473 831 q 438 882 473 882 q 397 876 430 882 q 305 870 365 870 q 194 875 233 870 q 148 880 155 880 q 116 852 116 880 q 119 834 116 840 q 128 826 123 829 q 142 822 134 823 q 159 818 151 822 q 185 772 185 808 q 181 734 185 757 q 170 680 177 712 l 52 150 q 28 86 42 105 q -18 59 13 66 q -52 50 -39 55 q -65 22 -65 46 q -32 -4 -65 -4 q 8 0 -23 -4 q 101 5 41 5 q 225 0 181 5 q 278 -4 269 -4 q 309 25 309 -4 q 294 49 309 45 q 251 59 278 52 q 219 100 219 66 q 230 161 219 113 l 241 204 l 287 204 q 445 213 377 204 q 562 247 513 222 q 665 346 627 279 q 704 493 704 413 q 646 648 704 591 q 483 706 588 706 q 440 703 460 706 q 397 700 419 700 q 362 703 372 700 q 352 712 352 706 l 352 715 l 353 726 m 253 265 l 333 629 q 382 636 360 633 q 419 639 404 639 q 529 506 529 639 q 473 324 529 387 q 310 261 417 261 q 253 265 283 261 "},"j":{"x_min":-236,"x_max":377,"ha":365,"o":"m 196 788 q 219 717 196 743 q 279 691 243 691 q 347 722 318 691 q 377 806 377 754 q 354 873 377 846 q 294 901 331 901 q 225 869 254 901 q 196 788 196 837 m 301 476 q 314 559 314 527 q 243 643 314 643 q 154 620 198 643 q 69 553 109 598 q 20 489 36 517 q 4 450 4 462 q 15 431 4 431 q 43 450 27 431 q 74 491 58 469 q 106 532 90 513 q 137 551 122 551 q 150 531 150 551 q 145 503 150 521 l 22 30 q -7 -98 2 -44 q -26 -185 -17 -151 q -42 -236 -34 -219 q -66 -253 -51 -253 q -79 -244 -73 -253 q -86 -232 -86 -236 q -92 -202 -86 -222 q -110 -163 -98 -182 q -138 -130 -122 -144 q -174 -115 -155 -115 q -219 -136 -202 -115 q -236 -191 -236 -157 q -197 -273 -236 -240 q -97 -307 -159 -307 q 82 -230 11 -307 q 189 0 152 -154 l 301 476 "},"1":{"x_min":25,"x_max":547,"ha":651,"o":"m 538 837 q 547 880 547 870 q 528 904 547 904 q 456 875 515 904 q 279 805 397 847 q 230 788 252 795 q 192 774 208 781 q 168 759 177 767 q 159 738 159 751 q 180 716 159 716 q 212 722 194 716 q 249 736 230 729 q 284 750 267 744 q 313 756 301 756 q 334 745 334 756 q 331 717 334 740 q 319 659 327 695 l 194 140 q 164 75 183 93 q 101 51 145 57 q 45 44 65 47 q 25 18 25 41 q 58 -8 25 -8 q 140 0 72 -8 q 333 7 208 7 q 420 3 387 7 q 466 -1 453 -1 q 503 29 503 -1 q 470 54 503 51 q 393 65 422 57 q 365 107 365 73 q 368 139 365 118 q 380 191 372 159 l 538 837 "},"›":{"x_min":-32,"x_max":233,"ha":275,"o":"m 233 305 q 157 397 187 356 q 107 467 127 438 q 74 510 87 495 q 51 526 62 526 q 39 519 44 526 q 34 501 34 512 q 109 311 34 469 q -32 110 -32 165 q -15 92 -32 92 q 11 106 -7 92 q 58 148 29 121 q 130 216 87 176 q 233 305 173 255 "},"ı":{"x_min":14,"x_max":347,"ha":399,"o":"m 294 397 q 320 485 309 446 q 331 558 331 524 q 254 645 331 645 q 81 559 158 645 q 30 491 47 522 q 14 446 14 461 q 22 432 14 432 q 47 448 38 432 q 73 490 55 465 q 115 537 97 522 q 147 553 134 553 q 156 532 156 553 q 152 504 156 518 l 63 224 q 36 139 48 179 q 25 63 25 99 q 105 -24 25 -24 q 281 81 197 -24 q 331 155 316 123 q 347 198 347 187 q 335 216 347 216 q 311 197 323 216 q 286 156 299 178 q 257 115 273 134 q 222 97 241 97 q 209 119 209 97 q 226 190 209 141 l 294 397 "},"ä":{"x_min":-11,"x_max":685.1875,"ha":736,"o":"m 556 656 q 526 653 535 656 q 511 636 518 651 l 500 611 q 404 645 458 645 q 259 599 336 645 q 111 462 183 554 q -11 134 -11 307 q 23 15 -11 58 q 107 -28 58 -28 q 257 48 182 -28 q 421 277 333 124 l 396 157 q 383 95 389 124 q 378 38 378 66 q 393 -5 378 12 q 437 -24 409 -24 q 528 2 480 -24 q 619 82 575 28 q 669 158 654 125 q 685 197 685 191 q 674 216 685 216 q 653 200 664 216 q 631 165 643 184 q 604 131 618 146 q 572 116 590 116 q 558 123 561 116 q 556 149 556 131 q 557 171 556 157 q 562 200 558 185 l 671 604 q 676 629 675 619 q 676 643 676 639 q 644 656 676 656 l 556 656 m 426 596 q 477 529 477 596 q 452 429 477 494 q 374 273 427 365 q 288 146 326 188 q 216 104 251 104 q 172 174 172 104 q 192 281 172 212 q 259 433 212 350 q 426 596 348 596 m 565 911 q 509 885 533 911 q 485 830 485 860 q 509 771 485 795 q 565 747 533 747 q 624 770 600 747 q 648 830 648 794 q 623 886 648 862 q 565 911 599 911 m 338 911 q 281 885 306 911 q 256 830 256 860 q 281 771 256 795 q 338 747 306 747 q 396 770 372 747 q 420 830 420 794 q 395 886 420 862 q 338 911 371 911 "},"<":{"x_min":179,"x_max":978,"ha":1157,"o":"m 978 672 l 978 797 l 179 467 l 179 359 l 978 32 l 978 155 l 344 413 l 978 672 "},"£":{"x_min":-55,"x_max":604.578125,"ha":651,"o":"m 392 457 q 380 577 386 525 q 374 667 374 629 q 396 795 374 750 q 447 841 418 841 q 469 820 465 841 q 483 767 472 800 q 508 725 494 739 q 547 710 522 710 q 588 729 572 710 q 604 778 604 747 q 594 824 604 803 q 564 861 583 845 q 520 886 546 877 q 465 895 494 895 q 369 871 414 895 q 291 802 325 847 q 239 691 258 757 q 221 543 221 626 q 221 502 221 523 q 223 457 222 480 l 140 457 q 126 406 126 430 l 126 400 l 229 400 q 231 366 230 379 q 232 350 232 354 q 223 230 232 298 q 153 263 186 251 q 90 275 121 275 q 33 263 60 275 q -12 233 7 252 q -43 188 -32 215 q -55 130 -55 160 q -18 32 -55 70 q 80 -6 18 -6 q 172 16 129 -6 q 259 82 215 38 q 351 4 312 32 q 440 -24 391 -24 q 556 34 510 -24 q 601 188 601 92 q 590 258 601 232 q 565 285 580 285 q 551 278 555 285 q 547 261 548 271 q 547 236 547 250 q 542 213 547 224 q 506 168 533 185 q 441 152 480 152 q 340 186 394 152 q 397 400 397 278 l 495 400 q 510 425 506 412 q 513 457 513 438 l 392 457 m 197 143 q 115 61 160 61 q 80 78 94 61 q 67 123 67 95 q 82 176 67 157 q 121 196 97 196 q 156 182 139 196 q 197 143 173 169 "},"¹":{"x_min":17,"x_max":361,"ha":429,"o":"m 355 852 q 359 868 358 862 q 361 877 361 874 q 348 892 361 892 q 300 875 340 892 q 183 833 261 858 q 127 815 148 822 q 105 792 105 808 q 119 780 105 780 q 139 783 127 780 q 164 792 151 787 q 187 800 176 797 q 207 804 198 804 q 220 797 220 804 q 218 781 220 794 q 211 745 216 767 l 127 434 q 108 395 121 406 q 66 380 96 383 q 30 376 43 377 q 17 361 17 374 q 37 344 17 344 q 92 348 47 344 q 219 353 137 353 q 277 351 255 353 q 308 348 299 348 q 331 367 331 348 q 311 381 331 381 q 259 389 277 384 q 240 413 240 394 q 242 433 240 420 q 251 465 244 445 l 355 852 "},"t":{"x_min":3,"x_max":411,"ha":383,"o":"m 258 799 q 207 796 225 799 q 182 788 190 793 q 170 777 173 783 q 166 764 168 771 l 123 617 l 43 617 q 15 573 15 617 q 27 557 15 557 l 108 557 l 34 266 q 12 169 21 211 q 3 94 3 126 q 25 10 3 40 q 90 -19 48 -19 q 175 10 130 -19 q 265 98 220 39 q 309 164 295 138 q 322 198 322 191 q 309 216 322 216 q 287 196 299 216 q 259 154 275 177 q 226 112 244 131 q 190 94 208 94 q 176 125 176 94 q 180 157 176 141 l 283 557 l 381 557 q 401 571 392 557 q 411 601 411 586 q 406 614 411 612 q 395 617 402 617 l 298 617 l 334 762 q 337 775 337 769 q 337 786 337 782 q 311 799 337 799 l 258 799 "},"¬":{"x_min":171.9375,"x_max":985,"ha":1157,"o":"m 985 585 l 171 585 l 171 472 l 872 472 l 872 244 l 985 244 l 985 585 "},"ù":{"x_min":15.109375,"x_max":649.0625,"ha":718,"o":"m 281 404 q 305 488 297 452 q 313 551 313 524 q 234 640 313 640 q 154 617 195 640 q 74 548 113 594 q 29 482 42 510 q 15 443 15 453 q 26 427 15 427 q 47 443 35 427 q 72 478 59 459 q 100 514 85 498 q 131 530 115 530 q 141 513 141 530 q 140 498 141 507 q 135 480 138 489 l 51 198 q 35 140 41 168 q 29 84 29 112 q 51 5 29 33 q 112 -22 73 -22 q 252 53 174 -22 q 413 283 330 128 l 391 203 q 372 115 377 153 q 368 64 368 78 q 434 -24 368 -24 q 583 71 507 -24 q 633 145 618 116 q 649 188 649 175 q 637 204 649 204 q 616 188 626 204 q 594 151 606 171 q 569 114 582 131 q 542 98 556 98 q 531 121 531 98 q 535 156 531 128 q 550 228 539 184 l 639 580 q 646 607 646 605 q 641 613 646 610 q 631 617 636 617 l 517 617 q 489 605 497 617 q 476 567 482 593 q 459 500 469 541 q 425 398 448 458 q 366 278 398 332 q 305 189 334 225 q 252 133 276 152 q 220 114 229 114 q 208 119 213 114 q 204 132 204 125 q 208 166 204 147 q 222 213 213 186 l 281 404 m 394 922 q 340 963 368 963 q 308 947 322 963 q 295 904 295 932 q 304 876 295 889 q 329 848 314 863 l 471 718 l 528 718 l 394 922 "},"W":{"x_min":1.390625,"x_max":1016.75,"ha":942,"o":"m 601 768 l 565 676 l 547 772 q 544 784 544 780 q 544 788 544 788 q 552 807 544 800 q 579 815 561 815 q 608 790 608 815 q 601 768 608 786 m 241 733 q 237 754 238 744 q 236 775 236 764 q 244 803 236 794 q 262 816 252 811 q 280 828 272 821 q 288 851 288 835 q 279 872 288 864 q 259 881 270 881 q 210 874 245 881 q 116 867 175 867 q 64 871 86 867 q 30 875 43 875 q 9 866 18 875 q 1 843 1 857 q 17 817 1 822 q 45 800 33 812 q 59 774 55 792 q 69 730 62 757 l 222 44 q 229 12 226 26 q 236 -10 231 -1 q 247 -23 240 -19 q 269 -28 255 -28 q 296 -19 286 -28 q 316 6 306 -11 q 336 48 326 23 q 358 106 345 73 l 465 375 l 536 13 q 576 -29 544 -29 q 601 -20 591 -29 q 619 6 611 -11 q 636 48 627 23 q 658 106 645 73 l 851 611 q 895 720 875 675 q 950 790 916 765 q 972 803 961 799 q 994 813 984 808 q 1010 826 1004 818 q 1016 847 1016 833 q 983 874 1016 874 q 937 871 959 874 q 893 868 915 868 q 851 871 869 868 q 818 874 833 874 q 790 844 790 874 q 799 823 790 829 q 819 812 808 817 q 839 799 830 807 q 848 772 848 792 q 830 701 848 750 l 658 236 l 587 575 q 585 584 586 580 q 584 593 584 589 q 587 609 584 601 q 594 625 590 616 l 658 764 q 686 797 669 787 q 718 812 702 807 q 746 823 734 817 q 758 847 758 829 q 723 874 758 874 q 665 869 712 874 q 534 865 618 865 q 413 870 456 865 q 359 875 370 875 q 319 844 319 875 q 327 825 319 832 q 345 812 334 818 q 365 796 355 805 q 379 767 375 786 l 445 464 l 354 220 l 241 733 "},"ï":{"x_min":14,"x_max":481,"ha":399,"o":"m 294 397 q 320 485 309 446 q 331 558 331 524 q 254 645 331 645 q 81 559 158 645 q 30 491 47 522 q 14 446 14 461 q 22 432 14 432 q 47 448 38 432 q 73 490 55 465 q 115 537 97 522 q 147 553 134 553 q 156 532 156 553 q 152 504 156 518 l 63 224 q 36 139 48 179 q 25 63 25 99 q 105 -24 25 -24 q 281 81 197 -24 q 331 155 316 123 q 347 198 347 187 q 335 216 347 216 q 311 197 323 216 q 286 156 299 178 q 257 115 273 134 q 222 97 241 97 q 209 119 209 97 q 226 190 209 141 l 294 397 m 398 911 q 342 885 366 911 q 318 830 318 860 q 342 771 318 795 q 398 747 366 747 q 457 770 433 747 q 481 830 481 794 q 456 886 481 862 q 398 911 432 911 m 171 911 q 114 885 139 911 q 89 830 89 860 q 114 771 89 795 q 171 747 139 747 q 229 770 205 747 q 253 830 253 794 q 228 886 253 862 q 171 911 204 911 "},">":{"x_min":179,"x_max":978,"ha":1157,"o":"m 978 467 l 179 797 l 179 672 l 812 413 l 179 155 l 179 32 l 978 359 l 978 467 "},"v":{"x_min":9.71875,"x_max":544.484375,"ha":575,"o":"m 58 238 q 41 170 48 202 q 34 109 34 138 q 67 10 34 45 q 159 -25 100 -25 q 296 22 226 -25 q 425 163 366 70 q 476 261 454 211 q 513 360 498 311 q 536 454 529 409 q 544 536 544 499 q 527 616 544 590 q 479 643 509 643 q 436 622 454 643 q 419 567 419 601 q 425 528 419 548 q 438 487 431 508 q 452 443 445 466 q 458 395 458 420 q 434 288 458 356 q 361 152 409 220 q 292 76 325 102 q 238 51 259 51 q 206 66 218 51 q 194 105 194 81 q 219 238 194 146 l 266 402 q 290 488 280 449 q 300 558 300 526 q 230 643 300 643 q 146 619 186 643 q 76 564 106 595 q 27 502 45 533 q 9 458 9 472 q 19 441 9 441 q 43 456 30 441 q 70 490 56 472 q 98 525 84 509 q 126 541 112 541 q 133 526 133 541 q 126 488 133 519 l 58 238 "},"û":{"x_min":15.109375,"x_max":649.0625,"ha":718,"o":"m 281 404 q 305 488 297 452 q 313 551 313 524 q 234 640 313 640 q 154 617 195 640 q 74 548 113 594 q 29 482 42 510 q 15 443 15 453 q 26 427 15 427 q 47 443 35 427 q 72 478 59 459 q 100 514 85 498 q 131 530 115 530 q 141 513 141 530 q 140 498 141 507 q 135 480 138 489 l 51 198 q 35 140 41 168 q 29 84 29 112 q 51 5 29 33 q 112 -22 73 -22 q 252 53 174 -22 q 413 283 330 128 l 391 203 q 372 115 377 153 q 368 64 368 78 q 434 -24 368 -24 q 583 71 507 -24 q 633 145 618 116 q 649 188 649 175 q 637 204 649 204 q 616 188 626 204 q 594 151 606 171 q 569 114 582 131 q 542 98 556 98 q 531 121 531 98 q 535 156 531 128 q 550 228 539 184 l 639 580 q 646 607 646 605 q 641 613 646 610 q 631 617 636 617 l 517 617 q 489 605 497 617 q 476 567 482 593 q 459 500 469 541 q 425 398 448 458 q 366 278 398 332 q 305 189 334 225 q 252 133 276 152 q 220 114 229 114 q 208 119 213 114 q 204 132 204 125 q 208 166 204 147 q 222 213 213 186 l 281 404 m 423 956 l 257 718 l 312 718 l 446 840 l 537 718 l 581 718 l 492 956 l 423 956 "},"Ò":{"x_min":30,"x_max":815,"ha":851,"o":"m 469 901 q 303 862 382 901 q 162 757 223 824 q 66 596 102 689 q 30 392 30 502 q 55 216 30 295 q 126 83 81 138 q 233 -1 171 28 q 369 -31 295 -31 q 677 114 546 -31 q 815 481 815 267 q 788 652 815 574 q 715 785 762 730 q 605 870 669 839 q 469 901 542 901 m 632 599 q 627 508 632 556 q 613 410 622 459 q 591 313 604 360 q 562 223 579 265 q 471 77 526 126 q 359 29 416 29 q 251 92 291 29 q 211 277 211 155 q 234 494 211 385 q 298 698 258 604 q 380 813 331 773 q 481 854 429 854 q 591 790 551 854 q 632 599 632 726 m 512 1178 q 458 1219 486 1219 q 426 1203 440 1219 q 413 1160 413 1188 q 422 1132 413 1145 q 447 1104 432 1119 l 589 974 l 646 974 l 512 1178 "},"&":{"x_min":26,"x_max":808.234375,"ha":826,"o":"m 299 564 q 279 601 286 583 q 273 639 273 619 q 283 687 273 664 q 311 726 293 710 q 351 753 328 743 q 400 763 374 763 q 521 681 482 763 q 535 654 529 664 q 556 644 541 644 q 576 656 566 644 q 596 688 586 668 q 612 733 606 708 q 618 782 618 757 q 571 862 618 828 q 441 896 524 896 q 344 879 388 896 q 269 833 300 862 q 221 766 238 804 q 204 684 204 727 q 254 548 204 616 q 85 448 144 522 q 26 269 26 375 q 48 151 26 205 q 110 58 70 97 q 207 -2 151 19 q 331 -25 263 -25 q 462 -3 402 -25 q 566 52 522 18 q 635 131 610 87 q 661 219 661 174 q 657 248 661 234 q 648 277 654 262 q 724 295 694 278 q 774 337 755 312 q 800 396 792 363 q 808 463 808 428 q 781 499 808 499 q 758 482 766 499 q 742 455 751 466 q 695 424 723 430 q 628 419 667 419 l 605 419 q 409 351 471 419 q 366 281 381 320 q 350 219 350 241 q 368 198 350 198 q 385 214 379 198 q 409 247 391 230 q 456 274 427 263 q 517 286 485 286 q 605 216 605 286 q 589 165 605 191 q 548 118 574 138 q 487 84 523 97 q 409 71 451 71 q 317 90 359 71 q 245 143 276 109 q 198 225 215 178 q 182 328 182 272 q 279 508 182 455 q 347 469 316 485 q 413 454 378 454 q 460 469 443 454 q 477 508 477 485 q 364 568 477 568 q 299 564 354 568 "},"˝":{"x_min":304,"x_max":660,"ha":695,"o":"m 459 854 q 488 913 488 890 q 476 951 488 936 q 444 966 463 966 q 383 901 412 966 l 304 720 l 351 720 l 459 854 m 625 848 q 660 910 660 883 q 647 949 660 934 q 616 965 634 965 q 553 909 583 965 l 444 721 l 493 721 l 625 848 "},"Ð":{"x_min":-65.796875,"x_max":819,"ha":856,"o":"m 57 168 q 39 102 48 126 q 3 68 30 79 q -24 59 -11 62 q -46 52 -36 56 q -60 41 -56 48 q -65 22 -65 34 q -61 2 -65 6 q -46 -1 -57 -1 q 3 2 -35 -1 q 113 6 42 6 q 207 3 159 6 q 307 0 256 0 q 508 23 424 0 q 663 116 592 47 q 725 196 696 150 q 774 294 753 242 q 807 406 795 347 q 819 525 819 466 q 732 784 819 694 q 478 875 646 875 q 398 872 442 875 q 305 869 355 869 q 198 872 237 869 q 148 876 159 876 q 123 870 130 876 q 116 849 116 865 q 127 826 116 831 q 154 816 139 820 q 180 805 168 812 q 192 777 192 798 q 190 743 192 756 q 187 727 188 731 l 131 486 l 13 486 l -1 425 l 117 425 l 57 168 m 234 165 l 294 425 l 437 425 l 451 486 l 306 486 l 359 722 q 370 765 365 747 q 385 795 376 783 q 408 812 394 807 q 447 817 423 817 q 587 756 538 817 q 636 583 636 695 q 626 457 636 520 q 600 337 616 395 q 562 232 584 280 q 515 151 540 184 q 324 58 445 58 q 251 66 276 58 q 227 119 227 74 q 229 142 227 131 q 234 165 231 153 "},"I":{"x_min":-61,"x_max":490,"ha":433,"o":"m 374 730 q 397 789 384 769 q 440 816 410 809 q 476 825 462 822 q 490 849 490 829 q 455 875 490 875 q 410 869 446 875 q 305 863 373 863 q 201 868 234 863 q 162 872 168 872 q 133 845 133 872 q 143 825 133 830 q 165 817 154 820 q 188 806 177 813 q 198 779 198 799 q 191 733 198 768 l 55 139 q 45 104 51 119 q 32 80 40 89 q 13 66 25 71 q -12 59 2 62 q -48 50 -36 55 q -61 23 -61 45 q -26 -6 -61 -6 q 16 0 -15 -6 q 105 6 47 6 q 226 1 183 6 q 280 -3 269 -3 q 308 24 308 -3 q 298 48 308 46 q 273 53 288 49 q 247 69 258 57 q 236 91 236 80 q 238 123 236 103 q 244 162 240 142 l 374 730 "},"ˉ":{"x_min":272,"x_max":590,"ha":695,"o":"m 290 879 l 272 779 l 571 779 l 590 879 l 290 879 "},"G":{"x_min":27,"x_max":790.609375,"ha":808,"o":"m 786 834 q 790 864 790 855 q 669 900 790 900 q 273 777 443 900 q 27 317 27 601 q 115 61 27 153 q 361 -31 203 -31 q 482 -17 414 -31 q 623 24 551 -4 l 653 173 q 677 279 665 237 q 726 339 689 321 q 746 345 736 343 q 766 350 757 347 q 780 358 775 353 q 786 376 786 364 q 751 401 786 401 q 702 396 739 401 q 601 390 665 390 q 498 394 535 390 q 454 399 462 399 q 416 373 416 399 q 421 357 416 362 q 432 351 425 353 q 449 348 440 348 q 468 344 458 347 q 496 300 496 337 q 485 204 496 271 q 443 44 475 138 q 380 29 408 29 q 314 48 344 29 q 260 104 283 67 q 223 192 236 141 q 210 309 210 244 q 253 526 210 422 q 379 714 296 630 q 448 771 412 747 q 519 812 485 795 q 581 837 553 829 q 629 846 610 846 q 663 840 651 846 q 680 820 675 834 q 687 783 686 807 q 687 725 687 759 l 687 708 q 721 654 687 654 q 743 668 737 654 q 755 707 748 682 l 786 834 "},"`":{"x_min":282,"x_max":515,"ha":695,"o":"m 381 922 q 327 963 355 963 q 295 947 309 963 q 282 904 282 932 q 291 876 282 889 q 316 848 301 863 l 458 718 l 515 718 l 381 922 "},"·":{"x_min":49,"x_max":268,"ha":325,"o":"m 158 546 q 80 514 112 546 q 49 437 49 483 q 80 359 49 391 q 158 328 112 328 q 236 359 204 328 q 268 437 268 391 q 236 514 268 483 q 158 546 204 546 "},"r":{"x_min":2.78125,"x_max":552.828125,"ha":547,"o":"m 148 0 q 173 10 165 0 q 189 47 181 20 q 209 119 197 73 q 244 234 220 165 q 334 447 291 375 q 397 520 377 520 q 406 508 405 520 q 411 478 408 497 q 466 422 422 422 q 527 457 502 422 q 552 553 552 492 q 531 624 552 599 q 473 649 511 649 q 361 575 415 649 q 248 359 306 502 l 261 423 q 274 492 268 456 q 280 563 280 527 q 262 625 280 603 q 213 647 244 647 q 144 623 181 647 q 68 550 106 599 q 18 474 33 507 q 2 434 2 441 q 16 416 2 416 q 38 434 26 416 q 62 473 50 452 q 88 511 75 493 q 116 530 102 530 q 129 505 129 530 q 120 452 129 493 l 30 37 q 27 23 27 29 q 27 16 27 18 q 31 5 27 11 q 38 0 36 0 l 148 0 "},"¿":{"x_min":-14,"x_max":415,"ha":425,"o":"m 344 904 q 281 873 307 904 q 255 791 255 842 q 274 723 255 747 q 327 700 293 700 q 387 731 360 700 q 415 813 415 762 q 396 880 415 856 q 344 904 377 904 m 327 619 l 327 631 q 309 658 327 658 q 293 645 296 658 q 283 614 289 633 q 264 571 277 595 q 220 526 251 548 q 138 471 185 501 q 48 384 91 442 q -14 195 -14 298 q 0 107 -14 147 q 40 40 15 68 q 96 -2 64 12 q 164 -18 128 -18 q 289 22 244 -18 q 334 126 334 62 q 323 158 334 146 q 296 171 313 171 q 259 156 276 171 q 220 115 242 142 q 171 61 192 80 q 127 42 151 42 q 91 59 106 42 q 76 107 76 76 q 114 212 76 168 q 223 300 152 257 q 260 322 246 313 q 282 344 274 331 q 296 377 291 356 q 305 437 301 398 l 327 619 "},"ý":{"x_min":-158,"x_max":543,"ha":565,"o":"m 302 184 q 295 391 300 305 q 279 533 291 477 q 242 616 266 590 q 176 643 218 643 q 98 614 137 643 q 26 527 59 586 q 0 476 8 497 q -6 444 -6 455 q 5 426 -6 426 q 26 442 18 426 q 43 477 34 458 q 61 513 51 497 q 86 529 71 529 q 111 499 98 529 q 133 412 123 469 q 149 273 143 355 q 155 89 155 192 q 143 -49 155 10 q 111 -148 130 -108 q 70 -207 93 -188 q 25 -227 47 -227 q 0 -215 11 -227 q -24 -188 -12 -203 q -53 -161 -37 -174 q -91 -149 -69 -149 q -138 -169 -119 -149 q -158 -221 -158 -189 q -132 -285 -158 -260 q -62 -310 -106 -310 q 34 -284 -12 -310 q 131 -207 82 -258 q 233 -81 180 -157 q 348 94 286 -5 q 493 358 444 248 q 543 538 543 467 q 525 614 543 587 q 479 641 508 641 q 427 616 447 641 q 408 551 408 591 q 422 484 408 522 q 436 398 436 447 q 404 276 436 351 q 304 99 372 201 l 302 184 m 489 842 q 527 903 527 868 q 513 945 527 928 q 482 963 499 963 q 421 924 453 963 l 253 718 l 311 718 l 489 842 "},"x":{"x_min":-58.34375,"x_max":619.5,"ha":615,"o":"m 350 416 q 291 588 326 531 q 193 646 256 646 q 134 629 161 646 q 86 586 106 613 q 55 522 66 558 q 44 445 44 485 q 59 421 44 421 q 75 433 70 421 q 83 466 79 445 q 126 547 98 547 q 162 491 147 547 l 225 256 q 142 118 175 165 q 83 72 109 72 q 73 87 73 72 q 76 115 73 102 q 79 140 79 127 q 64 188 79 172 q 26 205 50 205 q -31 169 -5 205 q -58 78 -58 134 q -35 3 -58 30 q 26 -24 -12 -24 q 80 -9 55 -24 q 130 32 105 5 q 182 102 155 60 q 243 198 209 144 q 272 98 258 139 q 303 29 286 56 q 343 -10 320 2 q 400 -24 366 -24 q 452 -8 427 -24 q 493 34 476 6 q 521 99 511 62 q 531 181 531 137 q 516 208 531 208 q 502 192 505 208 q 495 156 498 176 q 486 119 493 135 q 463 104 480 104 q 428 139 444 104 q 393 254 412 174 l 368 357 q 433 478 404 439 q 472 518 462 518 q 484 511 481 518 q 486 490 486 505 q 499 440 486 458 q 531 423 512 423 q 595 458 570 423 q 619 556 619 494 q 600 617 619 594 q 552 640 580 640 q 453 583 500 640 q 350 416 406 527 "},"è":{"x_min":1,"x_max":570,"ha":606,"o":"m 189 309 q 273 524 222 452 q 368 597 324 597 q 395 580 385 597 q 406 535 406 563 q 390 453 406 494 q 346 381 375 413 q 280 328 318 348 q 196 309 242 309 l 189 309 m 180 255 q 352 285 279 267 q 474 329 426 302 q 546 396 522 356 q 570 494 570 435 q 526 605 570 563 q 406 647 483 647 q 277 620 341 647 q 154 544 212 594 q 40 392 80 478 q 1 212 1 305 q 58 33 1 98 q 204 -31 115 -31 q 335 1 270 -31 q 451 96 399 34 q 497 177 497 152 q 481 195 497 195 q 462 183 472 195 q 434 151 452 170 q 358 86 395 108 q 290 65 320 65 q 208 105 238 65 q 179 220 179 145 q 179 237 179 228 q 180 255 179 245 m 338 922 q 284 963 312 963 q 252 947 266 963 q 239 904 239 932 q 248 876 239 889 q 273 848 258 863 l 415 718 l 472 718 l 338 922 "},"º":{"x_min":3,"x_max":453,"ha":490,"o":"m 272 875 q 173 854 222 875 q 87 796 125 833 q 26 707 50 758 q 3 596 3 656 q 51 458 3 512 q 182 404 100 404 q 285 426 236 404 q 372 486 334 448 q 431 573 409 524 q 453 676 453 622 q 402 822 453 769 q 272 875 351 875 m 331 743 q 279 527 331 633 q 189 442 237 442 q 128 534 128 442 q 141 644 128 588 q 179 749 154 700 q 272 837 222 837 q 315 813 299 837 q 331 743 331 790 "},"Ø":{"x_min":-2.953125,"x_max":841.390625,"ha":851,"o":"m 766 989 l 662 834 q 477 901 571 901 q 303 862 384 901 q 160 754 222 823 q 64 591 99 685 q 29 387 29 496 q 137 71 29 192 l -2 -129 l 66 -129 l 178 34 q 369 -31 273 -31 q 677 114 546 -31 q 815 481 815 267 q 706 794 815 664 l 841 989 l 766 989 m 608 755 l 216 191 q 212 242 213 219 q 211 287 211 266 q 230 479 211 378 q 284 667 249 580 q 372 807 320 760 q 481 854 423 854 q 556 829 523 854 q 608 755 588 804 m 627 679 q 631 644 630 660 q 633 610 633 627 q 627 513 633 563 q 612 411 621 462 q 590 313 603 360 q 562 223 577 265 q 471 77 526 126 q 359 29 416 29 q 237 119 277 29 l 627 679 "},"μ":{"x_min":-73.609375,"x_max":757,"ha":803,"o":"m 45 252 q 4 85 26 159 q -34 -47 -16 10 q -62 -148 -51 -105 q -73 -216 -73 -190 q -56 -266 -73 -248 q -6 -285 -38 -285 q 43 -259 27 -285 q 69 -181 59 -233 q 88 -50 79 -129 q 116 135 97 28 q 163 21 123 60 q 269 -17 202 -17 q 450 126 391 -17 q 481 19 451 55 q 569 -17 512 -17 q 718 80 662 -17 q 747 153 737 115 q 757 207 757 191 q 741 227 757 227 q 726 221 732 227 q 715 205 720 215 q 704 181 709 194 q 691 154 700 168 q 604 93 657 93 q 561 109 576 93 q 545 154 545 125 q 550 198 545 177 q 558 239 554 219 l 634 600 l 493 600 l 418 246 q 366 132 401 168 q 272 96 331 96 q 202 120 227 96 q 177 189 177 144 q 191 283 177 219 l 259 600 l 119 600 l 45 252 "},"÷":{"x_min":172.234375,"x_max":984.796875,"ha":1157,"o":"m 579 765 q 513 737 541 765 q 486 670 486 709 q 512 605 486 631 q 579 579 538 579 q 645 606 619 579 q 672 670 672 633 q 644 737 672 709 q 579 765 617 765 m 984 471 l 172 471 l 172 358 l 984 358 l 984 471 m 579 249 q 513 221 541 249 q 486 155 486 194 q 512 90 486 116 q 579 64 538 64 q 645 91 619 64 q 672 155 672 118 q 644 221 672 194 q 579 249 617 249 "},"h":{"x_min":-37.765625,"x_max":626,"ha":670,"o":"m 340 879 q 356 935 349 915 q 362 962 362 955 q 348 981 362 981 q 326 973 341 981 q 287 956 312 965 q 223 940 262 947 q 128 932 184 932 q 95 928 108 932 q 83 900 83 924 q 94 885 83 889 q 117 876 105 880 q 141 867 130 872 q 152 849 152 861 q 149 820 152 835 q 141 786 145 805 l -34 41 q -37 29 -37 34 q -37 19 -37 23 q -32 6 -37 12 q -23 0 -28 0 l 71 0 q 103 7 92 0 q 124 35 115 15 q 144 89 133 55 q 177 177 156 123 q 308 438 248 353 q 412 523 369 523 q 437 508 427 523 q 447 463 447 493 q 435 363 447 437 q 387 178 423 290 q 347 66 363 104 q 319 28 331 28 q 301 69 306 28 q 284 123 294 105 q 251 140 274 140 q 217 121 231 140 q 203 71 203 101 q 231 1 203 29 q 306 -26 259 -26 q 417 11 360 -26 q 521 114 474 48 q 596 266 567 179 q 626 454 626 354 q 594 601 626 552 q 502 651 562 651 q 358 578 433 651 q 208 360 283 506 l 340 879 "},".":{"x_min":-11,"x_max":153,"ha":325,"o":"m -11 72 q 9 8 -11 32 q 62 -15 30 -15 q 126 16 100 -15 q 153 100 153 48 q 132 163 153 140 q 80 186 112 186 q 16 154 43 186 q -11 72 -11 122 "},";":{"x_min":-36.328125,"x_max":239,"ha":353,"o":"m 75 417 q 95 354 75 377 q 148 332 116 332 q 212 364 186 332 q 239 447 239 397 q 218 510 239 487 q 165 533 197 533 q 101 501 127 533 q 75 417 75 470 m 84 188 q 22 156 48 188 q -3 82 -3 124 q 42 5 -3 18 q 78 -3 67 -1 q 89 -24 89 -5 q 74 -78 89 -49 q 28 -142 59 -106 q -16 -187 2 -173 q -36 -219 -36 -201 q -30 -236 -36 -229 q -18 -243 -25 -243 q 84 -147 6 -243 q 145 -45 124 -95 q 166 62 166 4 q 143 155 166 122 q 84 188 120 188 "},"f":{"x_min":-267,"x_max":544,"ha":365,"o":"m 292 617 q 339 828 313 758 q 387 898 364 898 q 399 877 399 898 q 398 859 399 868 q 396 841 396 850 q 417 779 396 804 q 469 754 438 754 q 522 779 500 754 q 544 843 544 804 q 510 931 544 900 q 419 963 477 963 q 241 875 317 963 q 130 617 166 787 l 64 617 q 37 576 37 617 q 55 559 37 559 l 114 559 l 45 234 q 2 27 20 117 q -30 -124 -15 -62 q -60 -217 -46 -186 q -93 -249 -75 -249 q -121 -203 -121 -249 l -121 -174 q -139 -107 -121 -130 q -189 -83 -157 -83 q -244 -111 -221 -83 q -267 -179 -267 -139 q -231 -272 -267 -237 q -129 -307 -196 -307 q 5 -259 -57 -307 q 116 -119 67 -212 q 186 88 159 -36 q 246 378 213 213 l 282 559 l 367 559 q 396 599 396 559 q 378 617 396 617 l 292 617 "},"“":{"x_min":80,"x_max":523.625,"ha":486,"o":"m 274 900 q 235 882 261 900 q 173 829 209 865 q 102 735 125 781 q 80 636 80 688 q 102 556 80 586 q 158 527 124 527 q 217 554 192 527 q 243 620 243 580 q 232 667 243 651 q 208 692 222 683 q 185 709 195 701 q 174 731 174 716 q 192 779 174 756 q 233 820 210 801 q 273 854 255 838 q 291 880 291 869 q 286 893 291 887 q 274 900 281 900 m 508 900 q 469 882 495 900 q 406 829 443 865 q 336 735 359 782 q 314 636 314 689 q 336 557 314 586 q 391 528 358 528 q 450 554 426 528 q 475 621 475 580 q 464 667 475 651 q 441 692 454 683 q 418 708 429 701 q 408 730 408 715 q 426 779 408 757 q 465 820 444 801 q 505 854 487 838 q 523 883 523 870 q 519 895 523 890 q 508 900 515 900 "},"A":{"x_min":-72.234375,"x_max":630.609375,"ha":682,"o":"m 480 831 q 472 886 475 871 q 444 901 469 901 q 406 889 419 901 q 373 835 394 877 l 25 130 q -4 91 12 103 q -36 70 -22 78 q -61 53 -51 62 q -72 29 -72 45 q -63 8 -72 13 q -36 4 -54 4 q -4 6 -23 4 q 43 8 15 8 q 100 6 77 8 q 137 4 123 4 l 145 4 q 183 32 183 4 q 169 53 183 47 q 139 66 155 59 q 109 82 123 72 q 95 112 95 91 q 99 134 95 118 q 113 175 102 150 l 165 296 l 375 296 l 394 145 q 397 123 397 132 q 397 112 397 115 q 358 65 397 73 q 320 52 334 61 q 306 20 306 43 q 344 -1 306 -1 q 398 3 358 -1 q 508 8 438 8 q 568 5 547 8 q 595 2 588 2 q 630 33 630 2 q 622 53 630 48 q 605 64 615 58 q 586 83 595 70 q 572 127 576 95 l 480 831 m 331 645 l 365 368 l 195 368 q 259 503 226 434 q 331 645 293 572 "},"6":{"x_min":15,"x_max":715.3125,"ha":651,"o":"m 677 979 q 620 970 668 979 q 497 935 572 962 q 383 889 438 916 q 269 815 327 862 q 81 580 147 716 q 15 297 15 444 q 34 161 15 222 q 87 59 53 101 q 169 -5 121 17 q 274 -28 217 -28 q 397 0 338 -28 q 500 74 456 26 q 570 187 544 121 q 597 330 597 252 q 579 435 597 388 q 533 515 562 483 q 469 565 505 548 q 394 583 433 583 q 308 567 341 583 q 276 531 276 551 q 291 516 276 516 q 313 519 302 516 q 337 522 324 522 q 436 330 436 522 q 425 208 436 263 q 395 111 415 152 q 349 48 376 70 q 288 26 322 26 q 205 76 236 26 q 175 224 175 127 q 198 425 175 328 q 264 605 222 521 q 366 754 306 688 q 498 863 426 820 q 588 904 548 892 q 656 922 629 916 q 700 934 684 928 q 715 958 715 940 q 706 974 715 970 q 677 979 697 979 "},"‘":{"x_min":112,"x_max":323.625,"ha":325,"o":"m 306 900 q 268 882 294 900 q 206 829 242 865 q 135 734 159 780 q 112 636 112 689 q 134 557 112 586 q 190 528 156 528 q 249 554 224 528 q 275 621 275 580 q 264 666 275 651 q 241 691 254 682 q 218 709 229 701 q 208 732 208 716 q 226 779 208 757 q 265 820 244 801 q 305 854 287 838 q 323 880 323 869 q 318 893 323 887 q 306 900 313 900 "},"O":{"x_min":30,"x_max":815,"ha":851,"o":"m 469 901 q 303 862 382 901 q 162 757 223 824 q 66 596 102 689 q 30 392 30 502 q 55 216 30 295 q 126 83 81 138 q 233 -1 171 28 q 369 -31 295 -31 q 677 114 546 -31 q 815 481 815 267 q 788 652 815 574 q 715 785 762 730 q 605 870 669 839 q 469 901 542 901 m 632 599 q 627 508 632 556 q 613 410 622 459 q 591 313 604 360 q 562 223 579 265 q 471 77 526 126 q 359 29 416 29 q 251 92 291 29 q 211 277 211 155 q 234 494 211 385 q 298 698 258 604 q 380 813 331 773 q 481 854 429 854 q 591 790 551 854 q 632 599 632 726 "},"n":{"x_min":-1.125,"x_max":667.78125,"ha":718,"o":"m 619 425 q 640 542 640 492 q 615 618 640 592 q 545 645 590 645 q 250 342 403 645 l 268 421 q 283 501 279 465 q 288 561 288 536 q 218 645 288 645 q 142 621 182 645 q 62 548 103 597 q -1 448 -1 472 q 12 432 -1 432 q 34 447 22 432 q 59 481 46 462 q 87 516 72 500 q 118 532 101 532 q 135 505 135 532 q 133 481 135 498 q 125 440 132 463 l 23 36 q 21 27 22 30 q 21 19 21 23 q 25 6 21 12 q 33 0 29 0 l 150 0 q 176 12 168 0 q 192 52 184 25 q 211 125 200 80 q 250 235 223 169 q 308 366 279 310 q 365 460 338 422 q 414 517 392 498 q 448 537 435 537 q 462 531 456 537 q 469 514 469 525 q 466 489 469 506 q 455 446 463 472 l 384 216 q 366 145 371 176 q 362 95 362 115 q 385 13 362 44 q 449 -17 409 -17 q 528 10 485 -17 q 610 95 570 38 q 653 163 640 135 q 667 198 667 191 q 655 216 667 216 q 632 197 644 216 q 606 156 620 178 q 576 115 592 134 q 542 97 560 97 q 530 119 530 97 q 534 151 530 134 q 545 190 538 167 l 619 425 "},"3":{"x_min":-80.375,"x_max":574,"ha":651,"o":"m 225 472 q 377 528 312 501 q 486 586 443 555 q 552 653 530 616 q 574 736 574 689 q 520 857 574 812 q 368 903 466 903 q 270 884 314 903 q 196 840 226 865 q 150 790 166 815 q 133 755 133 766 q 152 735 133 735 q 178 751 164 735 q 211 787 193 767 q 255 824 230 808 q 311 840 279 840 q 373 812 350 840 q 396 735 396 784 q 348 608 396 669 q 216 510 300 547 q 155 484 183 495 q 107 463 127 473 q 76 444 87 454 q 65 420 65 434 q 71 403 65 409 q 83 398 76 398 q 100 403 89 398 q 128 413 111 408 q 168 424 146 419 q 216 429 190 429 q 316 383 280 429 q 353 249 353 337 q 331 118 353 180 q 277 7 309 55 q 209 -68 246 -40 q 143 -97 173 -97 q 103 -79 116 -97 q 71 -28 90 -62 q 30 23 50 5 q -16 41 9 41 q -62 21 -44 41 q -80 -31 -80 1 q -35 -115 -80 -84 q 89 -147 9 -147 q 264 -115 182 -147 q 407 -28 347 -83 q 503 96 468 25 q 539 248 539 168 q 478 415 539 353 q 305 478 418 478 q 275 476 295 478 q 225 472 255 475 "},"9":{"x_min":-65.421875,"x_max":618,"ha":651,"o":"m 344 901 q 227 875 281 901 q 131 805 172 849 q 66 702 90 760 q 43 577 43 644 q 59 470 43 518 q 106 390 76 423 q 175 339 136 357 q 261 321 215 321 q 338 339 309 321 q 366 373 366 357 q 353 387 366 387 q 335 381 347 387 q 303 375 323 375 q 229 418 255 375 q 203 542 203 461 q 215 666 203 608 q 249 764 227 723 q 300 830 270 806 q 363 854 330 854 q 461 676 461 854 q 440 490 461 595 q 379 284 419 386 q 166 4 305 102 q 76 -46 122 -27 q -20 -72 30 -65 q -54 -80 -43 -74 q -65 -104 -65 -85 q -55 -124 -65 -119 q -20 -129 -44 -129 q 60 -121 16 -129 q 151 -98 105 -113 q 244 -60 198 -83 q 331 -6 290 -37 q 449 106 397 41 q 540 247 502 172 q 597 403 577 322 q 618 566 618 484 q 597 704 618 642 q 541 810 577 766 q 454 877 505 853 q 344 901 404 901 "},"l":{"x_min":0,"x_max":390,"ha":356,"o":"m 366 882 q 383 937 376 917 q 390 964 390 957 q 385 976 390 971 q 374 981 380 981 q 353 973 367 981 q 314 956 340 965 q 249 939 288 947 q 155 932 210 932 q 122 928 134 932 q 109 900 109 924 q 120 885 109 889 q 145 876 131 880 q 169 866 158 872 q 180 846 180 860 q 176 819 180 833 q 169 786 173 804 l 31 270 q 7 165 15 208 q 0 98 0 122 q 22 14 0 45 q 87 -17 45 -17 q 252 99 165 -17 q 293 166 281 140 q 305 198 305 192 q 294 216 305 216 q 274 201 281 216 q 247 158 266 185 q 181 97 206 97 q 169 119 169 97 q 170 133 169 126 q 173 152 170 141 l 366 882 "},"¤":{"x_min":51.65625,"x_max":792.734375,"ha":842,"o":"m 251 832 l 114 969 l 51 907 l 189 768 q 135 600 135 694 q 189 432 135 504 l 51 293 l 114 230 l 251 369 q 422 314 325 314 q 591 369 515 314 l 728 230 l 792 293 l 653 432 q 708 600 708 504 q 653 768 708 694 l 792 907 l 728 969 l 591 832 q 420 888 517 888 q 251 832 325 888 m 619 600 q 603 523 619 559 q 561 461 588 487 q 499 419 534 434 q 422 404 463 404 q 345 419 380 404 q 282 461 309 434 q 240 523 255 487 q 225 600 225 559 q 240 676 225 640 q 282 738 255 711 q 345 781 309 765 q 422 798 381 798 q 498 781 462 798 q 561 738 534 765 q 603 676 588 711 q 619 600 619 640 "},"4":{"x_min":0,"x_max":615.328125,"ha":651,"o":"m 575 940 q 540 933 550 940 q 519 916 530 927 l 51 395 q 15 352 30 372 q 0 308 0 332 q 13 282 0 286 q 50 278 26 278 l 287 278 q 309 266 309 278 q 309 256 309 264 q 305 237 308 248 l 272 102 q 252 65 265 79 q 213 49 240 52 q 170 44 188 47 q 152 20 152 42 q 179 -3 152 -3 q 243 1 188 -3 q 402 6 298 6 q 461 3 438 6 q 497 1 484 1 q 520 22 520 1 q 507 44 520 40 q 479 49 494 48 q 450 56 463 51 q 437 81 437 60 q 441 108 437 92 l 475 247 q 482 272 480 266 q 504 278 484 278 l 572 278 q 586 283 583 278 q 593 300 590 289 l 602 337 q 603 340 602 340 q 604 344 604 341 q 586 354 604 354 l 526 354 q 506 367 506 354 q 506 376 506 370 q 509 388 506 381 l 569 637 q 573 669 573 654 q 552 685 573 685 q 523 680 544 685 l 448 658 q 409 635 419 649 q 393 598 398 620 l 340 381 q 331 358 336 362 q 308 354 327 354 l 79 354 q 302 605 202 501 q 470 777 401 709 q 577 880 540 845 q 615 924 615 916 q 594 940 615 940 l 575 940 "},"p":{"x_min":-163.796875,"x_max":621,"ha":665,"o":"m 230 781 q 200 772 209 781 q 184 741 190 762 l 143 593 q 57 543 84 563 q 29 498 29 522 q 51 479 29 479 q 82 490 66 479 q 123 515 97 502 l -41 -163 q -56 -208 -48 -191 q -90 -233 -63 -224 q -117 -240 -104 -237 q -140 -248 -130 -244 q -157 -259 -151 -252 q -163 -279 -163 -266 q -141 -301 -163 -301 q -95 -295 -129 -301 q -6 -290 -61 -290 q 138 -298 87 -290 q 200 -307 189 -307 q 220 -284 220 -307 q 202 -257 220 -262 q 161 -243 184 -252 q 120 -187 120 -227 q 126 -140 120 -167 l 165 36 q 294 -19 226 -19 q 402 14 347 -19 q 509 114 458 47 q 593 270 565 187 q 621 426 621 352 q 570 584 621 526 q 427 643 520 643 q 375 640 404 643 q 311 631 345 638 l 337 752 q 339 763 339 756 q 311 781 339 781 l 230 781 m 207 198 l 298 567 q 330 581 316 576 q 359 586 344 586 q 423 555 400 586 q 446 469 446 524 q 427 337 446 416 q 373 176 409 258 q 254 46 315 46 q 211 65 227 46 q 195 118 195 84 q 198 153 195 133 q 207 198 200 173 "},"‡":{"x_min":-43.0625,"x_max":509.765625,"ha":556,"o":"m 295 594 q 317 671 302 637 q 346 733 331 705 q 371 785 361 762 q 381 832 381 809 q 363 882 381 863 q 313 901 344 901 q 269 880 286 901 q 252 824 252 859 q 258 769 252 809 q 263 663 263 730 q 259 595 263 628 q 213 606 233 597 q 177 626 194 616 q 143 644 159 635 q 109 652 127 652 q 59 631 77 652 q 41 573 41 609 q 57 517 41 540 q 101 495 73 495 q 136 504 118 495 q 172 524 154 513 q 211 544 191 534 q 252 554 231 554 q 158 318 234 436 q 175 236 170 278 q 180 147 180 194 q 176 77 180 114 q 127 86 150 77 q 86 105 105 95 q 51 124 68 115 q 18 133 34 133 q -26 110 -9 133 q -43 54 -43 86 q -24 0 -43 22 q 22 -20 -5 -20 q 56 -12 38 -20 q 91 6 73 -3 q 129 25 109 16 q 169 35 148 35 l 170 35 q 149 -42 163 -8 q 120 -104 134 -76 q 95 -157 105 -133 q 84 -203 84 -181 q 103 -253 84 -234 q 152 -272 122 -272 q 197 -251 180 -272 q 213 -199 213 -231 q 208 -140 213 -184 q 202 -24 202 -97 q 206 33 202 -2 q 252 21 233 30 q 289 2 272 12 q 322 -15 306 -6 q 356 -23 338 -23 q 406 -1 388 -23 q 425 55 425 20 q 409 111 425 88 q 365 133 393 133 q 330 124 348 133 q 293 104 312 115 q 254 84 275 94 q 213 74 234 74 q 247 195 222 137 q 308 317 272 253 q 289 394 293 353 q 286 484 286 435 q 286 512 286 495 q 290 552 287 530 q 338 543 316 552 q 379 523 361 534 q 415 504 398 513 q 448 495 431 495 q 493 519 476 495 q 509 574 509 542 q 491 628 509 606 q 444 649 472 649 q 411 640 427 649 q 376 621 394 631 q 339 602 358 610 q 300 594 320 594 l 295 594 "},"à":{"x_min":-11,"x_max":685.1875,"ha":736,"o":"m 556 656 q 526 653 535 656 q 511 636 518 651 l 500 611 q 404 645 458 645 q 259 599 336 645 q 111 462 183 554 q -11 134 -11 307 q 23 15 -11 58 q 107 -28 58 -28 q 257 48 182 -28 q 421 277 333 124 l 396 157 q 383 95 389 124 q 378 38 378 66 q 393 -5 378 12 q 437 -24 409 -24 q 528 2 480 -24 q 619 82 575 28 q 669 158 654 125 q 685 197 685 191 q 674 216 685 216 q 653 200 664 216 q 631 165 643 184 q 604 131 618 146 q 572 116 590 116 q 558 123 561 116 q 556 149 556 131 q 557 171 556 157 q 562 200 558 185 l 671 604 q 676 629 675 619 q 676 643 676 639 q 644 656 676 656 l 556 656 m 426 596 q 477 529 477 596 q 452 429 477 494 q 374 273 427 365 q 288 146 326 188 q 216 104 251 104 q 172 174 172 104 q 192 281 172 212 q 259 433 212 350 q 426 596 348 596 m 402 922 q 348 963 376 963 q 316 947 330 963 q 303 904 303 932 q 312 876 303 889 q 337 848 322 863 l 479 718 l 536 718 l 402 922 "},"Ü":{"x_min":60,"x_max":865.9375,"ha":788,"o":"m 732 647 q 758 748 747 709 q 792 801 768 787 q 816 809 803 808 q 840 813 829 810 q 858 823 852 816 q 865 847 865 830 q 835 875 865 875 q 801 871 818 875 q 764 868 783 868 q 683 870 714 868 q 639 873 652 873 q 607 847 607 873 q 611 828 607 834 q 623 819 615 822 q 641 817 631 817 q 664 813 652 816 q 700 770 700 804 q 695 733 700 756 q 683 676 690 709 l 604 326 q 517 111 572 185 q 363 37 461 37 q 262 74 297 37 q 227 181 227 111 q 234 252 227 208 q 257 358 242 296 l 349 730 q 372 788 360 772 q 418 810 385 805 q 458 819 443 815 q 472 847 472 823 q 438 875 472 875 q 392 869 431 875 q 279 863 354 863 q 178 868 211 863 q 139 872 144 872 q 105 841 105 872 q 117 820 105 825 q 141 811 128 815 q 165 798 154 806 q 176 765 176 790 q 174 734 176 758 q 161 673 171 709 l 94 411 q 69 303 79 353 q 60 208 60 253 q 129 34 60 94 q 332 -26 199 -26 q 463 -3 410 -26 q 552 62 515 18 q 613 174 588 107 q 658 332 638 241 l 732 647 m 643 1167 q 587 1141 611 1167 q 563 1086 563 1116 q 587 1027 563 1051 q 643 1003 611 1003 q 702 1026 678 1003 q 726 1086 726 1050 q 701 1142 726 1118 q 643 1167 677 1167 m 416 1167 q 359 1141 384 1167 q 334 1086 334 1116 q 359 1027 334 1051 q 416 1003 384 1003 q 474 1026 450 1003 q 498 1086 498 1050 q 473 1142 498 1118 q 416 1167 449 1167 "},"ó":{"x_min":3,"x_max":604,"ha":653,"o":"m 362 647 q 231 616 295 647 q 116 533 166 585 q 34 406 65 480 q 3 248 3 333 q 20 136 3 187 q 68 49 37 85 q 144 -7 100 13 q 243 -28 188 -28 q 381 3 315 -28 q 496 90 447 35 q 574 215 545 144 q 604 363 604 285 q 585 481 604 428 q 535 571 567 534 q 459 627 504 608 q 362 647 415 647 m 440 458 q 372 148 440 301 q 316 55 344 85 q 251 26 287 26 q 170 158 170 26 q 188 316 170 237 q 239 467 206 395 q 362 593 297 593 q 418 558 397 593 q 440 458 440 524 m 532 842 q 570 903 570 868 q 556 945 570 928 q 525 963 542 963 q 464 924 496 963 l 296 718 l 354 718 l 532 842 "}}}
